<svg width="25" height="25" viewBox="0 0 25 25" fill="none" xmlns="http://www.w3.org/2000/svg">
<path d="M17.6636 22.998H7.66438C7.00146 22.9974 6.36588 22.7337 5.89713 22.265C5.42837 21.7962 5.16473 21.1607 5.16406 20.4977V5.49836C5.16473 4.83544 5.42837 4.19987 5.89713 3.73111C6.36588 3.26236 7.00146 2.99872 7.66438 2.99805L13.4973 2.99805C13.6067 2.99807 13.7151 3.01968 13.8162 3.06164C13.9174 3.10359 14.0092 3.16507 14.0865 3.24256L19.9204 9.07292C19.998 9.15016 20.0594 9.24202 20.1012 9.34316C20.143 9.44431 20.1643 9.55274 20.1639 9.66218V20.4957C20.1638 21.159 19.9004 21.7951 19.4316 22.2643C18.9628 22.7335 18.3269 22.9974 17.6636 22.998V22.998ZM7.66438 4.66459C7.44333 4.66485 7.23141 4.75278 7.07511 4.90909C6.9188 5.0654 6.83087 5.27731 6.8306 5.49836V20.4982C6.83087 20.7193 6.9188 20.9312 7.07511 21.0875C7.23141 21.2438 7.44333 21.3317 7.66438 21.332H17.6636C17.8847 21.3317 18.0966 21.2438 18.2529 21.0875C18.4092 20.9312 18.4971 20.7193 18.4974 20.4982V10.4985H15.1643C14.5014 10.4978 13.8658 10.2342 13.3971 9.76542C12.9283 9.29667 12.6647 8.66109 12.664 7.99817V4.66459H7.66438ZM14.331 5.84311V7.99817C14.3314 8.21909 14.4195 8.43082 14.5758 8.58694C14.7321 8.74306 14.9439 8.8308 15.1648 8.83094H17.3189L14.331 5.84311ZM15.1648 18.8317H10.1642C9.94319 18.8317 9.73125 18.7439 9.57498 18.5876C9.41871 18.4314 9.33092 18.2194 9.33092 17.9984C9.33092 17.7774 9.41871 17.5655 9.57498 17.4092C9.73125 17.2529 9.94319 17.1652 10.1642 17.1652H15.1643C15.3853 17.1652 15.5973 17.2529 15.7535 17.4092C15.9098 17.5655 15.9976 17.7774 15.9976 17.9984C15.9976 18.2194 15.9098 18.4314 15.7535 18.5876C15.5973 18.7439 15.3853 18.8317 15.1643 18.8317H15.1648ZM12.6645 15.4981H10.1642C9.94319 15.4981 9.73125 15.4103 9.57498 15.2541C9.41871 15.0978 9.33092 14.8858 9.33092 14.6648C9.33092 14.4438 9.41871 14.2319 9.57498 14.0756C9.73125 13.9194 9.94319 13.8316 10.1642 13.8316H12.6645C12.8855 13.8316 13.0974 13.9194 13.2537 14.0756C13.41 14.2319 13.4978 14.4438 13.4978 14.6648C13.4978 14.8858 13.41 15.0978 13.2537 15.2541C13.0974 15.4103 12.8855 15.4981 12.6645 15.4981V15.4981Z" fill="black"/>
</svg>
