<svg width="202" height="175" viewBox="0 0 202 175" fill="none" xmlns="http://www.w3.org/2000/svg">
<path d="M127.925 105.031L100.187 72.0293L44.5029 72.5383L10.7217 105.439L11.4043 105.878H11.1605V174.313H127.848V105.878L127.925 105.031Z" fill="#2361B5"/>
<path d="M100.213 72.1001L65.5576 112.73V174.313H127.85V105.001L100.213 72.1001Z" fill="#1894FF"/>
<path d="M103.284 140.256H90.5615V151.501H103.284V140.256Z" fill="white"/>
<path d="M103.284 120.793H90.5615V131.86H103.284V120.793Z" fill="white"/>
<path d="M46.7484 137.273H34.0264V148.518H46.7484V137.273Z" fill="white"/>
<path d="M46.7484 117.81H34.0264V128.876H46.7484V117.81Z" fill="white"/>
<path d="M201.163 174.099H0.163086V174.577H201.163V174.099Z" fill="#3F3D56" fill-opacity="0.24"/>
<path d="M156.494 66.6515H72.0321C71.6173 66.6512 71.2196 66.4863 70.9263 66.193C70.6331 65.8997 70.4681 65.502 70.4678 65.0872V26.3026C70.4681 25.8878 70.6331 25.4901 70.9263 25.1969C71.2196 24.9036 71.6173 24.7386 72.0321 24.7383H156.494C156.909 24.7388 157.307 24.9038 157.6 25.197C157.893 25.4903 158.058 25.8879 158.059 26.3026V65.0846C158.059 65.4997 157.894 65.898 157.601 66.1918C157.308 66.4857 156.91 66.651 156.494 66.6515ZM72.0321 25.3675C71.7833 25.3678 71.5448 25.4668 71.3689 25.6427C71.193 25.8186 71.094 26.0571 71.0936 26.3059V65.0886C71.0949 65.3368 71.1942 65.5744 71.3701 65.7496C71.5459 65.9248 71.7839 66.0233 72.0321 66.0237H156.494C156.743 66.0233 156.981 65.9248 157.156 65.7496C157.332 65.5744 157.432 65.3368 157.433 65.0886V26.3026C157.433 26.0538 157.334 25.8153 157.158 25.6394C156.982 25.4635 156.743 25.3645 156.494 25.3641L72.0321 25.3675Z" fill="#E6E6E6"/>
<path d="M84.5306 44.8512C88.0494 44.8512 90.9019 41.9986 90.9019 38.4798C90.9019 34.961 88.0494 32.1084 84.5306 32.1084C81.0117 32.1084 78.1592 34.961 78.1592 38.4798C78.1592 41.9986 81.0117 44.8512 84.5306 44.8512Z" fill="#00DE9A"/>
<path d="M99.2436 34.2319C98.962 34.2319 98.6919 34.3438 98.4927 34.543C98.2935 34.7422 98.1816 35.0123 98.1816 35.2939C98.1816 35.5756 98.2935 35.8457 98.4927 36.0449C98.6919 36.2441 98.962 36.3559 99.2436 36.3559H149.304C149.586 36.3559 149.856 36.2441 150.055 36.0449C150.254 35.8457 150.366 35.5756 150.366 35.2939C150.366 35.0123 150.254 34.7422 150.055 34.543C149.856 34.3438 149.586 34.2319 149.304 34.2319H99.2436Z" fill="#E6E6E6"/>
<path d="M99.2436 40.604C98.962 40.604 98.6919 40.7159 98.4927 40.9151C98.2935 41.1142 98.1816 41.3843 98.1816 41.666C98.1816 41.9477 98.2935 42.2178 98.4927 42.417C98.6919 42.6161 98.962 42.728 99.2436 42.728H120.785C121.067 42.728 121.337 42.6161 121.536 42.417C121.735 42.2178 121.847 41.9477 121.847 41.666C121.847 41.3843 121.735 41.1142 121.536 40.9151C121.337 40.7159 121.067 40.604 120.785 40.604H99.2436Z" fill="#E6E6E6"/>
<path d="M79.6425 50.7896C78.835 50.7896 78.1777 51.2658 78.1777 51.8516C78.1777 52.4373 78.835 52.9136 79.6425 52.9136H148.711C149.519 52.9136 150.177 52.4373 150.177 51.8516C150.177 51.2658 149.519 50.7896 148.711 50.7896H79.6425Z" fill="#E6E6E6"/>
<path d="M79.6425 57.1606C78.835 57.1606 78.1777 57.6369 78.1777 58.2226C78.1777 58.8084 78.835 59.2847 79.6425 59.2847H148.711C149.519 59.2847 150.177 58.8084 150.177 58.2226C150.177 57.6369 149.519 57.1606 148.711 57.1606H79.6425Z" fill="#E6E6E6"/>
<path d="M141.28 22.8015C147.538 22.8015 152.611 17.7283 152.611 11.4701C152.611 5.21192 147.538 0.138672 141.28 0.138672C135.021 0.138672 129.948 5.21192 129.948 11.4701C129.948 17.7283 135.021 22.8015 141.28 22.8015Z" fill="#00DE9A"/>
<path d="M141.283 29.8901L137.743 23.7531L134.203 17.6162H148.375L144.835 23.7531L141.283 29.8901Z" fill="#00DE9A"/>
<path d="M141.373 15.4649C143.619 15.4649 145.439 13.6446 145.439 11.3992C145.439 9.15377 143.619 7.3335 141.373 7.3335C139.128 7.3335 137.308 9.15377 137.308 11.3992C137.308 13.6446 139.128 15.4649 141.373 15.4649Z" fill="white"/>
</svg>
