<svg width="202" height="170" viewBox="0 0 202 170" fill="none" xmlns="http://www.w3.org/2000/svg">
<path d="M145.163 131.585H117.659L70.8137 136.113L23.6055 131.585V20.6401L70.6176 24.0375L118.645 20.6401L165.628 27.0556L164.422 112.256L145.163 131.585Z" fill="white"/>
<path d="M145.317 128.564H116.351L72.1649 132.835L27.6367 128.564V23.9131L71.98 27.1167L117.281 23.9131L161.597 29.9666V112.19L145.317 128.564Z" fill="#1894FF"/>
<path d="M201.163 159.982L99.4422 103.651L125.279 17.8074L116.487 14.3225L103.965 55.9267L4.20543 0.677246L0.163086 10.2947L100.906 66.0844L77.9044 142.502L86.6975 145.989L96.3818 113.814L197.12 169.6L201.163 159.982Z" fill="white"/>
<path d="M143.265 131.411L143.606 109.81L164.421 110.65L143.265 131.411Z" fill="url(#paint0_linear)"/>
<path d="M27.6396 69.1396L91.4834 97.4071L95.7262 106.202L91.5023 110.602L27.6396 80.3149V69.1396Z" fill="white"/>
<path d="M145.163 131.411L145.473 111.479L164.424 112.253L145.163 131.411Z" fill="white"/>
<path d="M114.377 114.65L141.016 27.1562L151.613 28.6043L121.769 119.226L114.377 114.65Z" fill="white"/>
<path opacity="0.1" d="M71.9795 132.835L116.323 128.564V23.9131L71.9795 27.1167" fill="black"/>
<path d="M112.592 62.0021C112.592 70.4555 97.286 94.3932 97.286 94.3932C97.286 94.3932 81.9805 70.455 81.9805 62.0021C81.9805 57.9428 83.593 54.0497 86.4634 51.1793C89.3338 48.3089 93.2269 46.6963 97.2863 46.6963C101.346 46.6963 105.239 48.3089 108.109 51.1793C110.98 54.0497 112.592 57.9428 112.592 62.0021H112.592Z" fill="#00DE9A"/>
<path d="M97.2863 65.5609C99.8418 65.5609 101.913 63.4893 101.913 60.9338C101.913 58.3783 99.8418 56.3066 97.2863 56.3066C94.7308 56.3066 92.6592 58.3783 92.6592 60.9338C92.6592 63.4893 94.7308 65.5609 97.2863 65.5609Z" fill="white"/>
<path d="M138.265 69.1396L161.597 75.1263V86.3015L133.035 76.1054L138.265 69.1396Z" fill="white"/>
<path d="M49.3452 90.6103L43.4521 131.371L50.14 132.779L58.9504 95.1656L58.9398 89.8345L49.3452 90.6103Z" fill="white"/>
<path d="M49.1072 37.3996L42.4951 75.7178L47.6152 78.4819L59.8202 37.3862L49.1072 37.3996Z" fill="white"/>
<defs>
<linearGradient id="paint0_linear" x1="153.843" y1="131.411" x2="153.843" y2="109.81" gradientUnits="userSpaceOnUse">
<stop stop-opacity="0.122"/>
<stop offset="0.551" stop-opacity="0.09"/>
<stop offset="1" stop-opacity="0.02"/>
</linearGradient>
</defs>
</svg>
