<svg width="17" height="19" viewBox="0 0 17 19" fill="none" xmlns="http://www.w3.org/2000/svg">
<path d="M11.9669 18.9274H5.38054C4.80565 18.9304 4.24984 18.7213 3.81948 18.3401C3.38913 17.9589 3.11447 17.4324 3.04806 16.8614L1.71583 4.99407H1.6337C1.5304 4.99667 1.42762 4.97856 1.33143 4.94083C1.23523 4.90309 1.14756 4.84648 1.07358 4.77434C0.999603 4.70219 0.94081 4.61597 0.900667 4.52075C0.860524 4.42554 0.839844 4.32325 0.839844 4.21992C0.839844 4.11658 0.860524 4.0143 0.900667 3.91908C0.94081 3.82386 0.999603 3.73764 1.07358 3.6655C1.14756 3.59335 1.23523 3.53675 1.33143 3.49901C1.42762 3.46127 1.5304 3.44317 1.6337 3.44576H5.54481V2.67185C5.54882 2.05296 5.79812 1.46092 6.23804 1.02558C6.67796 0.590245 7.27258 0.347156 7.89148 0.349628H9.45592C10.0748 0.347156 10.6694 0.590245 11.1094 1.02558C11.5493 1.46092 11.7986 2.05296 11.8026 2.67185V3.44576H15.7137C15.817 3.44317 15.9198 3.46127 16.016 3.49901C16.1122 3.53675 16.1998 3.59335 16.2738 3.6655C16.3478 3.73764 16.4066 3.82386 16.4467 3.91908C16.4869 4.0143 16.5076 4.11658 16.5076 4.21992C16.5076 4.32325 16.4869 4.42554 16.4467 4.52075C16.4066 4.61597 16.3478 4.70219 16.2738 4.77434C16.1998 4.84648 16.1122 4.90309 16.016 4.94083C15.9198 4.97856 15.817 4.99667 15.7137 4.99407H15.6321L14.2984 16.8614C14.2323 17.4324 13.9578 17.9589 13.5276 18.3402C13.0974 18.7214 12.5417 18.9305 11.9669 18.9274ZM3.28908 4.99407L4.60321 16.6907C4.62535 16.881 4.71689 17.0565 4.86032 17.1835C5.00374 17.3105 5.18897 17.3801 5.38054 17.3791H11.9669C12.1584 17.3801 12.3437 17.3105 12.4871 17.1835C12.6305 17.0565 12.722 16.881 12.7442 16.6907L14.0573 4.99407H3.28908ZM7.89148 1.89794C7.68518 1.89703 7.48695 1.97801 7.34029 2.1231C7.19364 2.2682 7.11055 2.46555 7.10925 2.67185V3.44576H10.2381V2.67185C10.2369 2.46555 10.1538 2.2682 10.0071 2.1231C9.86045 1.97801 9.66222 1.89703 9.45592 1.89794H7.89148Z" fill="#FE5656"/>
</svg>
