<svg width="94" height="94" viewBox="0 0 94 94" fill="none" xmlns="http://www.w3.org/2000/svg">
<path d="M14.772 94C10.8556 93.9955 7.1009 92.4377 4.33159 89.6684C1.56228 86.8991 0.00449933 83.1444 0 79.228L0 25.516C0.00323276 21.8313 1.38158 18.2804 3.86523 15.5586C6.34888 12.8367 9.75899 11.1398 13.428 10.8V4.028C13.428 2.95971 13.8524 1.93517 14.6078 1.17977C15.3632 0.424377 16.3877 0 17.456 0C18.5243 0 19.5488 0.424377 20.3042 1.17977C21.0596 1.93517 21.484 2.95971 21.484 4.028V10.744H42.972V4.028C42.972 2.95971 43.3964 1.93517 44.1518 1.17977C44.9072 0.424377 45.9317 0 47 0C48.0683 0 49.0928 0.424377 49.8482 1.17977C50.6036 1.93517 51.028 2.95971 51.028 4.028V10.744H72.516V4.028C72.516 2.95971 72.9404 1.93517 73.6958 1.17977C74.4512 0.424377 75.4757 0 76.544 0C77.6123 0 78.6368 0.424377 79.3922 1.17977C80.1476 1.93517 80.572 2.95971 80.572 4.028V10.8C84.241 11.1398 87.6511 12.8367 90.1348 15.5586C92.6184 18.2804 93.9968 21.8313 94 25.516V79.228C93.9955 83.1444 92.4377 86.8991 89.6684 89.6684C86.8991 92.4377 83.1444 93.9955 79.228 94H14.772ZM8.056 25.516V79.228C8.05812 81.0085 8.76637 82.7156 10.0254 83.9746C11.2844 85.2336 12.9915 85.9419 14.772 85.944H79.228C81.0085 85.9419 82.7156 85.2336 83.9746 83.9746C85.2336 82.7156 85.9419 81.0085 85.944 79.228V25.516C85.9419 23.7355 85.2336 22.0284 83.9746 20.7694C82.7156 19.5104 81.0085 18.8021 79.228 18.8H14.772C12.9915 18.8021 11.2844 19.5104 10.0254 20.7694C8.76637 22.0284 8.05812 23.7355 8.056 25.516Z" fill="#1894FF"/>
<path d="M42.9729 68.485V56.401H30.8849C29.8166 56.401 28.7921 55.9766 28.0367 55.2212C27.2813 54.4658 26.8569 53.4413 26.8569 52.373C26.8569 51.3047 27.2813 50.2802 28.0367 49.5248C28.7921 48.7694 29.8166 48.345 30.8849 48.345H42.9729V36.257C42.9729 35.1887 43.3973 34.1642 44.1527 33.4088C44.9081 32.6534 45.9326 32.229 47.0009 32.229C48.0692 32.229 49.0938 32.6534 49.8492 33.4088C50.6046 34.1642 51.0289 35.1887 51.0289 36.257V48.345H63.1129C64.1812 48.345 65.2058 48.7694 65.9612 49.5248C66.7166 50.2802 67.1409 51.3047 67.1409 52.373C67.1409 53.4413 66.7166 54.4658 65.9612 55.2212C65.2058 55.9766 64.1812 56.401 63.1129 56.401H51.0289V68.485C51.0289 69.5533 50.6046 70.5778 49.8492 71.3332C49.0938 72.0886 48.0692 72.513 47.0009 72.513C45.9326 72.513 44.9081 72.0886 44.1527 71.3332C43.3973 70.5778 42.9729 69.5533 42.9729 68.485Z" fill="#00DE9A"/>
</svg>
