<svg width="162" height="143" viewBox="0 0 162 143" fill="none" xmlns="http://www.w3.org/2000/svg">
<path d="M161.885 38.8159H0.435547V142.214H161.885V38.8159Z" fill="#1894FF"/>
<path d="M146.759 50.2666H15.5645V130.764H146.759V50.2666Z" fill="#1894FF"/>
<path d="M146.759 65.7246H15.5645V70.6673H146.759V65.7246Z" fill="white"/>
<path d="M146.759 89.8882H15.5645V94.8308H146.759V89.8882Z" fill="white"/>
<path d="M89.2924 76.708H33.8262V81.6507H89.2924V76.708Z" fill="white"/>
<path d="M146.759 115.424H15.5645V120.367H146.759V115.424Z" fill="white"/>
<path d="M36.3011 50.2656H31.3584V118.445H36.3011V50.2656Z" fill="white"/>
<path d="M128.559 50.2656H123.616V92.6343H128.559V50.2656Z" fill="white"/>
<path d="M91.2132 50.2656H86.2705V130.763H91.2132V50.2656Z" fill="white"/>
<path d="M62.9329 90.7119H57.9902V130.763H62.9329V90.7119Z" fill="white"/>
<path d="M89.9713 59.4233C106.355 59.4233 119.636 46.1417 119.636 29.758C119.636 13.3744 106.355 0.0927734 89.9713 0.0927734C73.5879 0.0927734 60.3066 13.3744 60.3066 29.758C60.3066 46.1417 73.5879 59.4233 89.9713 59.4233Z" fill="#00DE9A"/>
<path d="M89.971 77.9827L80.6955 61.9172L71.4199 45.8511H108.521L99.2466 61.9172L89.971 77.9827Z" fill="#00DE9A"/>
<path d="M90.2074 40.2164C96.0854 40.2164 100.85 35.4511 100.85 29.5728C100.85 23.6945 96.0854 18.9292 90.2074 18.9292C84.3295 18.9292 79.5645 23.6945 79.5645 29.5728C79.5645 35.4511 84.3295 40.2164 90.2074 40.2164Z" fill="white"/>
</svg>
