<svg width="25" height="25" viewBox="0 0 25 25" fill="none" xmlns="http://www.w3.org/2000/svg">
<path d="M15.1141 19.998L12.6641 23.498L10.2141 19.998H3.66406C3.39885 19.998 3.14449 19.8927 2.95696 19.7052C2.76942 19.5176 2.66406 19.2633 2.66406 18.998V4.99805C2.66406 4.73283 2.76942 4.47848 2.95696 4.29094C3.14449 4.1034 3.39885 3.99805 3.66406 3.99805H21.6641C21.9293 3.99805 22.1836 4.1034 22.3712 4.29094C22.5587 4.47848 22.6641 4.73283 22.6641 4.99805V18.998C22.6641 19.2633 22.5587 19.5176 22.3712 19.7052C22.1836 19.8927 21.9293 19.998 21.6641 19.998H15.1141ZM14.0731 17.998H20.6641V5.99805H4.66406V17.998H11.2551L12.6641 20.01L14.0731 17.998Z" fill="black"/>
</svg>
