<svg width="151" height="113" viewBox="0 0 151 113" fill="none" xmlns="http://www.w3.org/2000/svg">
    <defs>
        <linearGradient id="paint0_linear_3362:17182" x1="395.697" y1="107.074" x2="395.697" y2="20.9723" gradientUnits="userSpaceOnUse">
            <stop stop-color="#808080" stop-opacity="0.251"/>
            <stop offset="0.54" stop-color="#808080" stop-opacity="0.122"/>
            <stop offset="1" stop-color="#808080" stop-opacity="0.102"/>
        </linearGradient>
        <linearGradient id="paint1_linear_3362:17182" x1="100.492" y1="112.008" x2="100.492" y2="26.0762" gradientUnits="userSpaceOnUse">
            <stop stop-color="#808080" stop-opacity="0.239"/>
            <stop offset="0.54" stop-color="#808080" stop-opacity="0.122"/>
            <stop offset="1" stop-color="#808080" stop-opacity="0.102"/>
        </linearGradient>
        <linearGradient id="paint2_linear_3362:17182" x1="118.45" y1="69.9436" x2="118.45" y2="55.6016" gradientUnits="userSpaceOnUse">
            <stop stop-color="#808080" stop-opacity="0.251"/>
            <stop offset="0.54" stop-color="#808080" stop-opacity="0.122"/>
            <stop offset="1" stop-color="#808080" stop-opacity="0.102"/>
        </linearGradient>
    </defs>
<path d="M0.662109 0.652344H102.187V74.2218H37.6356L30.662 86.7539L23.335 74.2218H0.662109V0.652344Z" fill="url(#paint0_linear_3362:17182)"/>
<path d="M1.94336 2.06445H100.572V73.1865H36.559L30.6301 85.9575L23.9689 73.1865H1.94336V2.06445Z" fill="#1894FF"/>
<path opacity="0.3" d="M14.4201 26.5254L87.8994 26.5254V23.3813L14.4201 23.3813V26.5254Z" fill="white"/>
<path opacity="0.3" d="M14.4201 33.4023L87.8994 33.4023V30.2583L14.4201 30.2583V33.4023Z" fill="white"/>
<path opacity="0.3" d="M14.4201 40.2773L87.8994 40.2773V37.1333L14.4201 37.1333V40.2773Z" fill="white"/>
<path opacity="0.3" d="M14.4201 47.1543L87.8994 47.1543V44.0102L14.4201 44.0102V47.1543Z" fill="white"/>
<path d="M150.661 26.0762H50.3223V99.5015L115.068 99.466L121.17 112.008L128.253 99.5015H150.661L150.661 26.0762Z" fill="url(#paint1_linear_3362:17182)"/>
<path d="M149.888 27.2109H51.2598V98.3323H115.273L121.202 111.103L127.861 98.3323H149.886L149.888 27.2109Z" fill="white"/>
<path d="M118.45 69.9436C122.411 69.9436 125.621 66.733 125.621 62.7726C125.621 58.8121 122.411 55.6016 118.45 55.6016C114.49 55.6016 111.279 58.8121 111.279 62.7726C111.279 66.733 114.49 69.9436 118.45 69.9436Z" fill="url(#paint2_linear_3362:17182)"/>
<path d="M82.6958 69.2548C86.2761 69.2548 89.1786 66.3523 89.1786 62.7719C89.1786 59.1915 86.2761 56.2891 82.6958 56.2891C79.1154 56.2891 76.2129 59.1915 76.2129 62.7719C76.2129 66.3523 79.1154 69.2548 82.6958 69.2548Z" fill="#1894FF"/>
<path d="M100.575 69.2548C104.155 69.2548 107.058 66.3523 107.058 62.7719C107.058 59.1915 104.155 56.2891 100.575 56.2891C96.9943 56.2891 94.0918 59.1915 94.0918 62.7719C94.0918 66.3523 96.9943 69.2548 100.575 69.2548Z" fill="#00DE9A"/>
<path d="M118.454 69.2548C122.034 69.2548 124.936 66.3523 124.936 62.7719C124.936 59.1915 122.034 56.2891 118.454 56.2891C114.873 56.2891 111.971 59.1915 111.971 62.7719C111.971 66.3523 114.873 69.2548 118.454 69.2548Z" fill="#00DE9A"/>

</svg>
