<svg width="108" height="103" viewBox="0 0 108 103" fill="none" xmlns="http://www.w3.org/2000/svg">
    <defs>
        <linearGradient id="paint0_linear" x1="53.839" y1="87.7937" x2="37.8459" y2="13.3116"
            gradientUnits="userSpaceOnUse">
            <stop stop-color="#808080" stop-opacity="0.251" />
            <stop offset="0.54" stop-color="#808080" stop-opacity="0.122" />
            <stop offset="1" stop-color="#808080" stop-opacity="0.102" />
        </linearGradient>
        <linearGradient id="paint1_linear" x1="46.2111" y1="14.576" x2="44.8556" y2="8.26301"
            gradientUnits="userSpaceOnUse">
            <stop stop-color="#808080" stop-opacity="0.251" />
            <stop offset="0.54" stop-color="#808080" stop-opacity="0.122" />
            <stop offset="1" stop-color="#808080" stop-opacity="0.102" />
        </linearGradient>
        <linearGradient id="paint2_linear" x1="46.0605" y1="11.266" x2="46.0605" y2="3.62905"
            gradientUnits="userSpaceOnUse">
            <stop stop-color="#808080" stop-opacity="0.251" />
            <stop offset="0.54" stop-color="#808080" stop-opacity="0.122" />
            <stop offset="1" stop-color="#808080" stop-opacity="0.102" />
        </linearGradient>
        <linearGradient id="paint3_linear" x1="62.3978" y1="93.3911" x2="62.3978" y2="17.2334"
            gradientUnits="userSpaceOnUse">
            <stop stop-color="#808080" stop-opacity="0.251" />
            <stop offset="0.54" stop-color="#808080" stop-opacity="0.122" />
            <stop offset="1" stop-color="#808080" stop-opacity="0.102" />
        </linearGradient>
        <linearGradient id="paint4_linear" x1="62.4676" y1="21.0194" x2="62.4676" y2="14.5645"
            gradientUnits="userSpaceOnUse">
            <stop stop-color="#808080" stop-opacity="0.251" />
            <stop offset="0.54" stop-color="#808080" stop-opacity="0.122" />
            <stop offset="1" stop-color="#808080" stop-opacity="0.102" />
        </linearGradient>
        <linearGradient id="paint5_linear" x1="62.3778" y1="15.8855" x2="62.3778" y2="8.25507"
            gradientUnits="userSpaceOnUse">
            <stop stop-color="#808080" stop-opacity="0.251" />
            <stop offset="0.54" stop-color="#808080" stop-opacity="0.122" />
            <stop offset="1" stop-color="#808080" stop-opacity="0.102" />
        </linearGradient>
    </defs>
    <path d="M65.0244 6.34512L9.23145 18.3252L25.7841 95.4131L81.577 83.4331L65.0244 6.34512Z"
        fill="#E0E0E0" />
    <g opacity="0.5">
        <path opacity="0.5"
            d="M64.3623 7.85159L10.4551 19.4268L26.4482 93.9089L80.3554 82.3338L64.3623 7.85159Z"
            fill="url(#paint0_linear)" />
    </g>
    <path d="M63.7926 8.54667L11.2578 19.8271L26.8976 92.6638L79.4324 81.3833L63.7926 8.54667Z"
        fill="#FAFAFA" />
    <path d="M49.9447 8.22031L23.8828 13.8164L25.2384 20.1294L51.3002 14.5333L49.9447 8.22031Z"
        fill="url(#paint1_linear)" />
    <path
        d="M35.5865 4.85634C34.8412 4.99723 34.1549 5.35709 33.6151 5.88995C33.0754 6.4228 32.7067 7.10446 32.5563 7.84784C32.4058 8.59122 32.4804 9.36259 32.7704 10.0634C33.0605 10.7642 33.5529 11.3626 34.1847 11.7822C34.8165 12.2018 35.559 12.4236 36.3175 12.4191C37.0759 12.4147 37.8158 12.1842 38.4427 11.7572C39.0695 11.3302 39.5548 10.726 39.8366 10.0219C40.1184 9.31772 40.1839 8.54554 40.0248 7.80398C39.8266 6.82481 39.2478 5.96436 38.4156 5.41166C37.5834 4.85897 36.5658 4.65923 35.5865 4.85634ZM36.8487 10.7436C36.4234 10.845 35.9777 10.8176 35.5681 10.6647C35.1586 10.5118 34.8038 10.2405 34.5491 9.8852C34.2944 9.52994 34.1512 9.10688 34.1378 8.66994C34.1244 8.233 34.2414 7.80196 34.4739 7.43178C34.7064 7.06159 35.0439 6.76902 35.4433 6.59136C35.8427 6.41369 36.286 6.35898 36.7166 6.4342C37.1473 6.50941 37.5457 6.71114 37.8613 7.01368C38.1768 7.31622 38.3951 7.70586 38.4884 8.13295C38.5528 8.41207 38.5615 8.70117 38.5139 8.98365C38.4663 9.26613 38.3634 9.53642 38.211 9.779C38.0586 10.0216 37.8598 10.2317 37.6261 10.3972C37.3923 10.5627 37.1281 10.6805 36.8487 10.7436Z"
        fill="url(#paint2_linear)" />
    <path d="M49.6114 8.00813L24.0986 13.4863L25.3945 19.5211L50.9072 14.0429L49.6114 8.00813Z"
        fill="#2361B5" />
    <path
        d="M35.5861 4.85658C34.881 5.00792 34.2366 5.36497 33.7344 5.88257C33.2322 6.40018 32.8947 7.05509 32.7648 7.76448C32.6348 8.47386 32.7181 9.20586 33.0042 9.86789C33.2903 10.5299 33.7663 11.0922 34.372 11.4837C34.9777 11.8752 35.6858 12.0783 36.4069 12.0673C37.128 12.0562 37.8297 11.8316 38.4231 11.4218C39.0166 11.012 39.4751 10.4354 39.7409 9.7649C40.0066 9.09444 40.0675 8.36024 39.9159 7.65515C39.7127 6.70996 39.1424 5.88417 38.3305 5.35937C37.5185 4.83456 36.5314 4.65371 35.5861 4.85658ZM36.7923 10.4828C36.3855 10.5701 35.9619 10.5347 35.5751 10.3811C35.1883 10.2276 34.8558 9.96281 34.6195 9.62028C34.3832 9.27775 34.2538 8.87285 34.2476 8.45677C34.2414 8.04069 34.3587 7.63211 34.5847 7.28272C34.8107 6.93332 35.1353 6.65878 35.5173 6.49382C35.8994 6.32886 36.3217 6.28089 36.731 6.35596C37.1403 6.43104 37.5182 6.62579 37.8168 6.9156C38.1154 7.20541 38.3214 7.57726 38.4087 7.98413C38.4666 8.25433 38.4708 8.5333 38.421 8.80511C38.3711 9.07693 38.2682 9.33626 38.1181 9.56829C37.968 9.80033 37.7737 10.0005 37.5462 10.1574C37.3187 10.3144 37.0626 10.4249 36.7923 10.4828Z"
        fill="#2361B5" />
    <path d="M90.922 15.9004H33.874V94.7224H90.922V15.9004Z" fill="#E0E0E0" />
    <g opacity="0.5">
        <path opacity="0.5" d="M89.9577 17.2334H34.8379V93.3911H89.9577V17.2334Z"
            fill="url(#paint3_linear)" />
    </g>
    <path d="M89.2566 17.7939H35.54V92.269H89.2566V17.7939Z" fill="white" />
    <path d="M75.7917 14.5645H49.1436V21.0194H75.7917V14.5645Z" fill="url(#paint4_linear)" />
    <path
        d="M62.4674 8.26375C61.7092 8.24593 60.9629 8.45446 60.3238 8.86272C59.6847 9.27098 59.1818 9.86045 58.8793 10.5559C58.5767 11.2513 58.4883 12.0211 58.6252 12.767C58.7622 13.5129 59.1184 14.201 59.6483 14.7436C60.1781 15.2861 60.8577 15.6585 61.6001 15.813C62.3426 15.9676 63.1143 15.8974 63.8166 15.6113C64.519 15.3253 65.1202 14.8364 65.5434 14.2072C65.9667 13.5779 66.1928 12.8367 66.1929 12.0784C66.1989 11.5832 66.1072 11.0918 65.9232 10.6321C65.7392 10.1724 65.4664 9.75348 65.1204 9.39924C64.7745 9.045 64.3621 8.76238 63.9069 8.56755C63.4516 8.37272 62.9625 8.26949 62.4674 8.26375ZM62.4674 14.279C62.0299 14.2894 61.5993 14.1692 61.2305 13.9338C60.8617 13.6984 60.5714 13.3584 60.3967 12.9572C60.222 12.556 60.1709 12.1119 60.2498 11.6815C60.3287 11.2511 60.534 10.854 60.8397 10.5409C61.1453 10.2278 61.5374 10.0129 61.9657 9.92357C62.3941 9.83429 62.8393 9.87471 63.2446 10.0396C63.6498 10.2046 63.9968 10.4866 64.2411 10.8496C64.4853 11.2126 64.6158 11.6402 64.616 12.0778C64.6201 12.6528 64.3964 13.206 63.9937 13.6164C63.5911 14.0269 63.0423 14.2612 62.4674 14.2681V14.279Z"
        fill="url(#paint5_linear)" />
    <path d="M75.5115 14.2881H49.4248V20.4586H75.5115V14.2881Z" fill="#2361B5" />
    <path
        d="M62.4684 8.26367C61.7473 8.26367 61.0423 8.47751 60.4427 8.87816C59.8431 9.2788 59.3758 9.84825 59.0998 10.5145C58.8238 11.1807 58.7516 11.9139 58.8923 12.6211C59.033 13.3284 59.3803 13.9781 59.8902 14.488C60.4001 14.9979 61.0498 15.3452 61.7571 15.4859C62.4644 15.6266 63.1975 15.5544 63.8637 15.2784C64.53 15.0024 65.0994 14.5351 65.5001 13.9355C65.9007 13.3359 66.1145 12.6309 66.1145 11.9098C66.1145 10.9428 65.7304 10.0154 65.0466 9.3316C64.3628 8.64782 63.4354 8.26367 62.4684 8.26367ZM62.4684 14.0139C62.4692 14.5722 62.6917 15.1074 63.087 15.5018C63.4823 15.8962 64.018 16.1175 64.5763 16.1171C65.1347 16.1167 65.67 15.8946 66.0647 15.4996C66.4594 15.1046 66.6811 14.5691 66.6811 14.0107C66.6811 13.4524 66.4594 12.9168 66.0647 12.5219C65.67 12.1269 65.1347 11.9048 64.5763 11.9044C64.018 11.904 63.4823 12.1253 63.087 12.5197C62.6917 12.914 62.4692 13.4492 62.4684 14.0076V14.0139Z"
        fill="#2361B5" />
    <g opacity="0.5">
        <path opacity="0.5" d="M2.69373 96.8525H2.20312V99.6368H2.69373V96.8525Z" fill="#47E6B1" />
        <path opacity="0.5" d="M3.84082 98.4906V98H1.05653V98.4906H3.84082Z" fill="#47E6B1" />
    </g>
    <g opacity="0.5">
        <path opacity="0.5" d="M59.6371 0.638672H59.1465V3.42296H59.6371V0.638672Z"
            fill="#47E6B1" />
        <path opacity="0.5" d="M60.7842 2.27576V1.78516L57.9999 1.78516V2.27576H60.7842Z"
            fill="#47E6B1" />
    </g>
    <path opacity="0.5"
        d="M100.865 101.488C100.729 101.429 100.62 101.322 100.559 101.188C100.497 101.054 100.486 100.902 100.529 100.761C100.536 100.739 100.541 100.717 100.543 100.694C100.547 100.63 100.53 100.565 100.494 100.511C100.459 100.457 100.407 100.415 100.346 100.393C100.285 100.37 100.219 100.368 100.156 100.386C100.094 100.405 100.039 100.443 100 100.494C99.9871 100.512 99.9758 100.531 99.9668 100.551C99.9078 100.687 99.8011 100.796 99.6671 100.858C99.533 100.919 99.381 100.93 99.2397 100.887C99.2181 100.88 99.1956 100.875 99.1729 100.874C99.1083 100.87 99.0442 100.887 98.9901 100.922C98.9359 100.958 98.8946 101.009 98.8722 101.07C98.8498 101.131 98.8475 101.197 98.8656 101.259C98.8838 101.321 98.9215 101.376 98.973 101.415C98.9907 101.428 99.0099 101.44 99.0301 101.449C99.1654 101.508 99.2744 101.614 99.3362 101.748C99.398 101.882 99.4084 102.035 99.3654 102.176C99.3585 102.197 99.3541 102.22 99.3523 102.242C99.3484 102.307 99.3655 102.371 99.4009 102.425C99.4363 102.479 99.4881 102.52 99.5488 102.543C99.6095 102.565 99.6758 102.567 99.7379 102.549C99.8 102.531 99.8546 102.494 99.8937 102.442C99.9071 102.424 99.9184 102.405 99.9274 102.385C99.9864 102.25 100.093 102.141 100.227 102.079C100.361 102.017 100.513 102.007 100.654 102.05C100.676 102.057 100.699 102.061 100.721 102.063C100.786 102.067 100.85 102.05 100.905 102.014C100.959 101.979 101 101.927 101.023 101.866C101.045 101.805 101.048 101.739 101.029 101.677C101.011 101.614 100.973 101.56 100.921 101.521C100.904 101.508 100.885 101.497 100.865 101.488Z"
        fill="#4D8AF0" />
    <path opacity="0.5"
        d="M18.0482 74.7196C17.9129 74.6606 17.804 74.5539 17.7422 74.4199C17.6804 74.2858 17.67 74.1337 17.713 73.9925C17.72 73.9708 17.7244 73.9484 17.7261 73.9257C17.7301 73.861 17.7131 73.7967 17.6777 73.7423C17.6423 73.688 17.5903 73.6465 17.5295 73.6241C17.4686 73.6017 17.4022 73.5994 17.3399 73.6178C17.2777 73.6361 17.2231 73.674 17.1841 73.7258C17.1707 73.7435 17.1594 73.7627 17.1504 73.7829C17.0914 73.9182 16.9847 74.0271 16.8507 74.0889C16.7166 74.1508 16.5646 74.1611 16.4233 74.1182C16.4017 74.1112 16.3792 74.1068 16.3565 74.1051C16.2919 74.1012 16.2278 74.1182 16.1737 74.1536C16.1195 74.189 16.0782 74.2409 16.0558 74.3016C16.0334 74.3623 16.0311 74.4286 16.0492 74.4907C16.0674 74.5528 16.105 74.6074 16.1566 74.6465C16.1743 74.6599 16.1935 74.6712 16.2137 74.6802C16.349 74.7392 16.4579 74.8458 16.5197 74.9799C16.5816 75.1139 16.592 75.266 16.549 75.4072C16.542 75.4289 16.5376 75.4513 16.5359 75.4741C16.5318 75.5388 16.5488 75.6031 16.5842 75.6574C16.6196 75.7117 16.6716 75.7532 16.7325 75.7757C16.7933 75.7981 16.8598 75.8003 16.922 75.782C16.9842 75.7637 17.0389 75.7258 17.0779 75.674C17.0912 75.6563 17.1025 75.6371 17.1116 75.6168C17.1706 75.4815 17.2772 75.3726 17.4113 75.3108C17.5453 75.249 17.6974 75.2386 17.8386 75.2816C17.8603 75.2886 17.8827 75.293 17.9054 75.2947C17.9702 75.2987 18.0345 75.2818 18.0888 75.2463C18.1431 75.2109 18.1846 75.1589 18.207 75.0981C18.2295 75.0372 18.2317 74.9708 18.2134 74.9086C18.1951 74.8463 18.1572 74.7917 18.1053 74.7527C18.0876 74.7395 18.0685 74.7284 18.0482 74.7196Z"
        fill="#FDD835" />
    <path opacity="0.5"
        d="M87.028 9.53891C86.8927 9.47991 86.7838 9.37324 86.722 9.2392C86.6601 9.10515 86.6497 8.95307 86.6927 8.81185C86.6997 8.79018 86.7041 8.76775 86.7059 8.74503C86.7099 8.6803 86.6929 8.616 86.6575 8.56167C86.622 8.50734 86.5701 8.46588 86.5092 8.44343C86.4484 8.42099 86.3819 8.41877 86.3197 8.43709C86.2575 8.45541 86.2028 8.49329 86.1638 8.54513C86.1504 8.56282 86.1392 8.58198 86.1301 8.60225C86.0711 8.73755 85.9645 8.84646 85.8304 8.90827C85.6964 8.97008 85.5443 8.98048 85.4031 8.93751C85.3816 8.93055 85.3593 8.92614 85.3368 8.92437C85.2721 8.92035 85.2078 8.93732 85.1535 8.97274C85.0991 9.00816 85.0577 9.06015 85.0352 9.121C85.0128 9.18185 85.0105 9.24832 85.0289 9.31053C85.0472 9.37275 85.0851 9.4274 85.1369 9.46638C85.1546 9.47975 85.1738 9.49105 85.194 9.50008C85.3293 9.55908 85.4383 9.66574 85.5001 9.79979C85.5619 9.93383 85.5723 10.0859 85.5293 10.2271C85.5223 10.2488 85.5179 10.2712 85.5162 10.294C85.5122 10.3587 85.5291 10.423 85.5645 10.4773C85.5999 10.5316 85.652 10.5731 85.7128 10.5956C85.7737 10.618 85.8401 10.6202 85.9023 10.6019C85.9646 10.5836 86.0192 10.5457 86.0582 10.4939C86.0716 10.4762 86.0829 10.457 86.0919 10.4367C86.1509 10.3014 86.2575 10.1925 86.3916 10.1307C86.5256 10.0689 86.6777 10.0585 86.8189 10.1015C86.8406 10.1085 86.863 10.1129 86.8858 10.1146C86.9505 10.1186 87.0148 10.1017 87.0691 10.0662C87.1235 10.0308 87.1649 9.97883 87.1874 9.91798C87.2098 9.85713 87.212 9.79067 87.1937 9.72845C87.1754 9.66624 87.1375 9.61159 87.0856 9.57261C87.068 9.55922 87.0488 9.54792 87.0285 9.53891H87.028Z"
        fill="#FDD835" />
    <path opacity="0.5"
        d="M106.29 42.6719C106.832 42.6719 107.272 42.2318 107.272 41.689C107.272 41.1461 106.832 40.7061 106.29 40.7061C105.747 40.7061 105.307 41.1461 105.307 41.689C105.307 42.2318 105.747 42.6719 106.29 42.6719Z"
        fill="#F55F44" />
    <path opacity="0.5"
        d="M30.3286 99.0879C30.8715 99.0879 31.3116 98.6479 31.3116 98.105C31.3116 97.5621 30.8715 97.1221 30.3286 97.1221C29.7858 97.1221 29.3457 97.5621 29.3457 98.105C29.3457 98.6479 29.7858 99.0879 30.3286 99.0879Z"
        fill="#F55F44" />
    <path opacity="0.5"
        d="M96.1948 63.919C96.7377 63.919 97.1778 63.4789 97.1778 62.9361C97.1778 62.3932 96.7377 61.9531 96.1948 61.9531C95.652 61.9531 95.2119 62.3932 95.2119 62.9361C95.2119 63.4789 95.652 63.919 96.1948 63.919Z"
        fill="#F55F44" />
    <path opacity="0.5"
        d="M11.5845 14.1993C12.1273 14.1993 12.5674 13.7592 12.5674 13.2163C12.5674 12.6735 12.1273 12.2334 11.5845 12.2334C11.0416 12.2334 10.6016 12.6735 10.6016 13.2163C10.6016 13.7592 11.0416 14.1993 11.5845 14.1993Z"
        fill="#4D8AF0" />
    <path opacity="0.5"
        d="M1.19191 41.0127C1.73477 41.0127 2.17484 40.5727 2.17484 40.0298C2.17484 39.4869 1.73477 39.0469 1.19191 39.0469C0.649055 39.0469 0.208984 39.4869 0.208984 40.0298C0.208984 40.5727 0.649055 41.0127 1.19191 41.0127Z"
        fill="#47E6B1" />
</svg>
