<svg width="75" height="119" viewBox="0 0 75 119" fill="none" xmlns="http://www.w3.org/2000/svg">
<path d="M3.39049 25.1534L2.5015 24.6955L2.46619 24.7641L2.4418 24.8372L3.39049 25.1534ZM1.16211 31.8393L0.213416 31.5231L0.162109 31.677V31.8393H1.16211ZM1.16211 37.7822H0.162109V38.0183L0.267664 38.2294L1.16211 37.7822ZM3.39049 42.2395L2.49605 42.6866L2.62187 42.9383L2.86046 43.0874L3.39049 42.2395ZM9.33285 45.9538L8.80281 46.8018L8.93011 46.8814L9.07516 46.92L9.33285 45.9538ZM20.4748 48.9253L20.2171 49.8915L20.3437 49.9253H20.4748V48.9253ZM31.6167 48.9253L31.6832 47.9275L31.65 47.9253H31.6167V48.9253ZM42.7586 49.6682L42.6921 50.666L42.7253 50.6682H42.7586V49.6682ZM53.9005 49.6682L54.3235 48.762L54.1224 48.6682H53.9005V49.6682ZM65.0425 54.8683L65.6672 54.0874L65.5738 54.0127L65.4654 53.9621L65.0425 54.8683ZM68.7564 57.8398L69.6509 57.3926L69.5527 57.1961L69.3812 57.0589L68.7564 57.8398ZM71.7276 63.7827L72.6763 63.4665L72.6538 63.3991L72.622 63.3356L71.7276 63.7827ZM73.2132 68.24H74.2132V68.0777L74.1619 67.9238L73.2132 68.24ZM73.2132 74.9258L74.2055 75.0498L74.2132 74.9881V74.9258H73.2132ZM71.7276 86.8117L72.716 86.9638L72.7181 86.9498L72.7199 86.9358L71.7276 86.8117ZM70.242 96.4691L69.2536 96.317L69.2515 96.331L69.2497 96.345L70.242 96.4691ZM68.7564 108.355L69.7342 108.565L69.7433 108.522L69.7487 108.479L68.7564 108.355ZM66.528 118.755L74.2685 110.187L62.9778 107.768L66.528 118.755ZM15.129 0.180753L14.678 1.05628L16.456 1.97212L16.907 1.09659L15.129 0.180753ZM13.7761 2.80733L12.8741 4.55839L14.6521 5.47423L15.554 3.72317L13.7761 2.80733ZM11.9721 6.30944L11.0702 8.06049L12.8482 8.97633L13.7501 7.22528L11.9721 6.30944ZM10.1682 9.81155L9.26624 11.5626L11.0442 12.4784L11.9462 10.7274L10.1682 9.81155ZM8.36427 13.3137L7.46231 15.0647L9.2403 15.9805L10.1423 14.2295L8.36427 13.3137ZM6.56034 16.8158L5.65838 18.5668L7.43636 19.4827L8.33833 17.7316L6.56034 16.8158ZM4.75641 20.3179L3.85445 22.0689L5.63243 22.9848L6.5344 21.2337L4.75641 20.3179ZM2.95248 23.82L2.5015 24.6955L4.27949 25.6113L4.73047 24.7358L2.95248 23.82ZM2.4418 24.8372L2.16325 25.673L4.06064 26.3054L4.33919 25.4696L2.4418 24.8372ZM1.60616 27.3444L1.04906 29.0159L2.94645 29.6483L3.50354 27.9768L1.60616 27.3444ZM0.491964 30.6873L0.213416 31.5231L2.1108 32.1555L2.38935 31.3197L0.491964 30.6873ZM0.162109 31.8393V33.325H2.16211V31.8393H0.162109ZM0.162109 36.2965V37.7822H2.16211V36.2965H0.162109ZM0.267664 38.2294L0.82476 39.3437L2.61365 38.4494L2.05656 37.3351L0.267664 38.2294ZM1.93895 41.5723L2.49605 42.6866L4.28494 41.7923L3.72784 40.678L1.93895 41.5723ZM2.86046 43.0874L3.60325 43.5517L4.66333 41.8558L3.92053 41.3915L2.86046 43.0874ZM5.08884 44.4803L6.57443 45.4089L7.63451 43.713L6.14892 42.7844L5.08884 44.4803ZM8.06002 46.3375L8.80281 46.8018L9.86289 45.1058L9.12009 44.6416L8.06002 46.3375ZM9.07516 46.92L10.0037 47.1677L10.519 45.2352L9.59054 44.9876L9.07516 46.92ZM11.8606 47.6629L13.7176 48.1582L14.233 46.2257L12.376 45.7305L11.8606 47.6629ZM15.5746 48.6534L17.4316 49.1487L17.947 47.2162L16.09 46.721L15.5746 48.6534ZM19.2886 49.6439L20.2171 49.8915L20.7325 47.9591L19.804 47.7115L19.2886 49.6439ZM20.4748 49.9253H21.4033V47.9253H20.4748V49.9253ZM23.2603 49.9253H25.1172V47.9253H23.2603V49.9253ZM26.9742 49.9253H28.8312V47.9253H26.9742V49.9253ZM30.6882 49.9253H31.6167V47.9253H30.6882V49.9253ZM31.5502 49.9231L32.4787 49.985L32.6117 47.9894L31.6832 47.9275L31.5502 49.9231ZM34.3356 50.1088L36.1926 50.2326L36.3257 48.237L34.4687 48.1132L34.3356 50.1088ZM38.0496 50.3564L39.9066 50.4802L40.0397 48.4847L38.1827 48.3609L38.0496 50.3564ZM41.7636 50.6041L42.6921 50.666L42.8251 48.6704L41.8966 48.6085L41.7636 50.6041ZM42.7586 50.6682H43.6871V48.6682H42.7586V50.6682ZM45.5441 50.6682H47.4011V48.6682H45.5441V50.6682ZM49.2581 50.6682H51.1151V48.6682H49.2581V50.6682ZM52.972 50.6682H53.9005V48.6682H52.972V50.6682ZM53.4776 50.5743L54.4061 51.0077L55.2519 49.1954L54.3235 48.762L53.4776 50.5743ZM56.2631 51.8744L58.1201 52.7411L58.9659 50.9287L57.1089 50.062L56.2631 51.8744ZM59.9771 53.6077L61.8341 54.4744L62.6799 52.6621L60.8229 51.7954L59.9771 53.6077ZM63.691 55.3411L64.6195 55.7744L65.4654 53.9621L64.5369 53.5288L63.691 55.3411ZM64.4177 55.6491L65.3462 56.392L66.5957 54.8303L65.6672 54.0874L64.4177 55.6491ZM67.2032 57.8777L68.1317 58.6206L69.3812 57.0589L68.4527 56.3161L67.2032 57.8777ZM67.862 58.2869L68.2334 59.0298L70.0223 58.1355L69.6509 57.3926L67.862 58.2869ZM68.9762 60.5156L69.719 62.0013L71.5079 61.1069L70.7651 59.6212L68.9762 60.5156ZM70.4618 63.487L70.8332 64.2299L72.622 63.3356L72.2507 62.5927L70.4618 63.487ZM70.7789 64.0989L71.1503 65.2132L73.0477 64.5808L72.6763 63.4665L70.7789 64.0989ZM71.8931 67.4418L72.2645 68.5562L74.1619 67.9238L73.7905 66.8095L71.8931 67.4418ZM72.2132 68.24V69.0757H74.2132V68.24H72.2132ZM72.2132 70.7471V72.4186H74.2132V70.7471H72.2132ZM72.2132 74.0901V74.9258H74.2132V74.0901H72.2132ZM72.2209 74.8018L72.0971 75.7923L74.0817 76.0403L74.2055 75.0498L72.2209 74.8018ZM71.8495 77.7733L71.6019 79.7542L73.5865 80.0023L73.8341 78.0213L71.8495 77.7733ZM71.3543 81.7352L71.1067 83.7162L73.0913 83.9643L73.3389 81.9833L71.3543 81.7352ZM70.8591 85.6972L70.7353 86.6877L72.7199 86.9358L72.8437 85.9453L70.8591 85.6972ZM70.7392 86.6597L70.5535 87.8669L72.5303 88.171L72.716 86.9638L70.7392 86.6597ZM70.1821 90.2812L69.8107 92.6955L71.7875 92.9996L72.1589 90.5853L70.1821 90.2812ZM69.4393 95.1099L69.2536 96.317L71.2304 96.6211L71.4161 95.4139L69.4393 95.1099ZM69.2497 96.345L69.1259 97.3355L71.1105 97.5836L71.2343 96.5931L69.2497 96.345ZM68.8783 99.3165L68.6307 101.298L70.6153 101.546L70.8629 99.5646L68.8783 99.3165ZM68.3831 103.279L68.1355 105.259L70.1201 105.508L70.3677 103.527L68.3831 103.279ZM67.8879 107.24L67.7641 108.231L69.7487 108.479L69.8725 107.489L67.8879 107.24ZM67.7786 108.146L67.5929 109.012L69.5485 109.431L69.7342 108.565L67.7786 108.146ZM67.2215 110.746L66.8501 112.479L68.8057 112.898L69.1771 111.165L67.2215 110.746ZM66.4787 114.212L66.1073 115.946L68.0629 116.365L68.4343 114.631L66.4787 114.212Z" fill="black" fill-opacity="0.5"/>
</svg>
