<svg width="33" height="33" viewBox="0 0 33 33" fill="none" xmlns="http://www.w3.org/2000/svg">
<g opacity="0.3" clip-path="url(#clip0_5646_4356)">
<path d="M2.2356 15.1504H30.2356V29.5504H2.2356V15.1504Z" fill="#1894FF"/>
<path d="M1.43579 12.75H31.4358V15.15H1.43579V12.75Z" fill="#2361B5"/>
<path d="M20.7356 4.9502H24.7356V12.9502H20.7356V4.9502Z" fill="#2361B5"/>
<path d="M20.7356 9.9502H24.7356V12.9502H20.7356V9.9502Z" fill="#2361B5"/>
<path d="M1.43579 29.5498H31.4358V31.1498H1.43579V29.5498Z" fill="#2361B5"/>
<path d="M14.2356 17.75H28.2356V27.75H14.2356V17.75Z" fill="#1894FF"/>
<path d="M26.7356 25.25V17.75H14.2356V26.25H25.7356C26.0008 26.25 26.2552 26.1446 26.4427 25.9571C26.6302 25.7696 26.7356 25.5152 26.7356 25.25Z" fill="white"/>
<path d="M5.2356 29.75V17.75H12.2356V29.75" fill="#2361B5"/>
<path d="M10.7356 27.25V17.75H5.2356V28.25H9.7356C10.0008 28.25 10.2552 28.1446 10.4427 27.9571C10.6302 27.7696 10.7356 27.5152 10.7356 27.25Z" fill="#2361B5"/>
<path d="M9.7356 22.75H10.7356V23.75H9.7356V22.75Z" fill="#F2F2F2"/>
<path d="M8.7356 9.9502H17.7356C18.0008 9.9502 18.2552 10.0556 18.4427 10.2431C18.6302 10.4306 18.7356 10.685 18.7356 10.9502C18.7356 11.4806 18.5249 11.9893 18.1498 12.3644C17.7747 12.7395 17.266 12.9502 16.7356 12.9502H9.7356C9.20516 12.9502 8.69646 12.7395 8.32138 12.3644C7.94631 11.9893 7.7356 11.4806 7.7356 10.9502C7.7356 10.685 7.84095 10.4306 8.02849 10.2431C8.21603 10.0556 8.47038 9.9502 8.7356 9.9502Z" fill="#2361B5"/>
<path d="M10.2356 9.95019C9.39607 9.32055 8.77593 8.44271 8.46303 7.44103C8.15013 6.43935 8.16033 5.36462 8.49218 4.36906C8.82403 3.3735 9.46072 2.50759 10.312 1.89398C11.1634 1.28038 12.1862 0.950195 13.2356 0.950195C14.285 0.950195 15.3078 1.28038 16.1591 1.89398C17.0105 2.50759 17.6472 3.3735 17.979 4.36906C18.3109 5.36462 18.3211 6.43935 18.0082 7.44103C17.6953 8.44271 17.0751 9.32055 16.2356 9.95019" fill="#2361B5"/>
<path d="M13.2356 8.95019C14.8924 8.95019 16.2356 7.60705 16.2356 5.95019C16.2356 4.29334 14.8924 2.9502 13.2356 2.9502C11.5787 2.9502 10.2356 4.29334 10.2356 5.95019C10.2356 7.60705 11.5787 8.95019 13.2356 8.95019Z" fill="#00DE9A"/>
<path d="M10.2356 5.95002C10.2358 6.50053 10.3882 7.04027 10.6761 7.50952C11.2498 7.86036 11.9249 8.00798 12.5927 7.92863C13.2604 7.84928 13.8821 7.54757 14.3576 7.07206C14.8332 6.59654 15.1349 5.97487 15.2142 5.30708C15.2936 4.6393 15.1459 3.96423 14.7951 3.39052C14.3407 3.11253 13.8204 2.96071 13.2878 2.95072C12.7552 2.94073 12.2296 3.07292 11.765 3.33368C11.3005 3.59443 10.9139 3.97432 10.6451 4.4342C10.3763 4.89408 10.2349 5.41733 10.2356 5.95002Z" fill="#00DE9A"/>
<path d="M21.2356 4.95019V1.9502L24.2356 0.950195V4.95019" fill="#00DE9A"/>
<path d="M16.3779 24.3955L20.3774 20.396L21.0844 21.103L17.0849 25.1025L16.3779 24.3955Z" fill="#2361B5"/>
<path d="M21.3774 24.3965L25.3769 20.397L26.0839 21.104L22.0844 25.1035L21.3774 24.3965Z" fill="#2361B5"/>
<path d="M23.2311 3.55416V1.28516L21.2356 1.95016V4.05416H22.7311C22.8637 4.05416 22.9909 4.00148 23.0847 3.90771C23.1784 3.81394 23.2311 3.68676 23.2311 3.55416Z" fill="#00DE9A"/>
<path d="M23.2311 8.75V5.75H20.7356V9.25H22.7311C22.8637 9.25 22.9909 9.19732 23.0847 9.10355C23.1784 9.00979 23.2311 8.88261 23.2311 8.75Z" fill="#2361B5"/>
<path d="M23.2311 11.4502V9.9502H20.7356V11.9502H22.7311C22.8637 11.9502 22.9909 11.8975 23.0847 11.8037C23.1784 11.71 23.2311 11.5828 23.2311 11.4502Z" fill="#2361B5"/>
</g>
<defs>
<clipPath id="clip0_5646_4356">
<rect width="32" height="32" fill="white" transform="translate(0.235596 0.75)"/>
</clipPath>
</defs>
</svg>
