<svg width="25" height="25" viewBox="0 0 25 25" fill="none" xmlns="http://www.w3.org/2000/svg">
<path d="M19.7119 13.2747L9.11294 20.3407C9.03764 20.3908 8.95017 20.4196 8.85983 20.4239C8.76949 20.4282 8.67967 20.4079 8.59994 20.3653C8.5202 20.3226 8.45354 20.259 8.40705 20.1815C8.36056 20.1039 8.33598 20.0152 8.33594 19.9247V5.79271C8.33598 5.70227 8.36056 5.61353 8.40705 5.53595C8.45354 5.45838 8.5202 5.39486 8.59994 5.35217C8.67967 5.30948 8.76949 5.28922 8.85983 5.29354C8.95017 5.29786 9.03764 5.32661 9.11294 5.37671L19.7119 12.4427C19.7804 12.4884 19.8366 12.5502 19.8754 12.6228C19.9142 12.6954 19.9345 12.7764 19.9345 12.8587C19.9345 12.941 19.9142 13.022 19.8754 13.0946C19.8366 13.1672 19.7804 13.229 19.7119 13.2747Z" fill="#1894FF"/>
</svg>
