<svg width="19" height="22" viewBox="0 0 19 22" fill="none" xmlns="http://www.w3.org/2000/svg">
<path d="M18.6077 13.0864L18.6077 13.0864L17.2079 10.3369L17.2079 10.3368C17.1155 10.1556 16.9293 10.0414 16.7259 10.0414H9.66459H2.6032C2.39975 10.0414 2.21355 10.1556 2.12124 10.3368L2.12123 10.3369L0.721361 13.0864L0.721347 13.0864C0.636025 13.2541 0.643908 13.454 0.742231 13.6145C0.840566 13.7749 1.01521 13.8726 1.20329 13.8726H1.54111V20.6212C1.54111 20.9199 1.78323 21.162 2.08193 21.162H17.246C17.5447 21.162 17.7868 20.9199 17.7868 20.6212V13.8726H18.1257C18.3138 13.8726 18.4885 13.7749 18.5868 13.6145C18.6852 13.4541 18.6931 13.2541 18.6077 13.0864ZM10.5468 11.123H16.3944L17.2436 12.791H11.396L10.5468 11.123ZM2.08557 12.791L2.93477 11.123H8.78235L7.93315 12.791H2.08557ZM16.7052 20.0804H10.2054V18.0644C10.2054 17.7657 9.96329 17.5235 9.66459 17.5235C9.36589 17.5235 9.12377 17.7657 9.12377 18.0644V20.0804H2.62283V13.8726H8.26472C8.46815 13.8726 8.65437 13.7585 8.74669 13.5772L9.12377 12.8365V14.5549C9.12377 14.8535 9.36589 15.0957 9.66459 15.0957C9.96329 15.0957 10.2054 14.8535 10.2054 14.5549V12.8365L10.5825 13.5772C10.6748 13.7585 10.861 13.8726 11.0645 13.8726H16.7052V20.0804Z" fill="#1894FF" stroke="#1894FF" stroke-width="0.3"/>
<path d="M6.32324 17.9398H4.09785C3.79915 17.9398 3.55703 18.182 3.55703 18.4807C3.55703 18.7793 3.79915 19.0215 4.09785 19.0215H6.32324C6.62194 19.0215 6.86406 18.7793 6.86406 18.4807C6.86406 18.182 6.62194 17.9398 6.32324 17.9398Z" fill="#1894FF" stroke="#1894FF" stroke-width="0.3"/>
<path d="M9.66401 9.19179C11.9584 9.19179 13.8246 7.32305 13.8246 5.02621C13.8245 2.72991 11.9584 0.861719 9.66401 0.861719C7.36904 0.861719 5.50234 2.72987 5.50234 5.02621C5.50234 7.32309 7.36896 9.19179 9.66401 9.19179ZM9.66401 1.94336C11.3614 1.94336 12.7429 3.32628 12.7429 5.02621C12.7429 6.72681 11.3614 8.11015 9.66401 8.11015C7.96599 8.11015 6.58398 6.72676 6.58398 5.02621C6.58398 3.32632 7.9659 1.94336 9.66401 1.94336Z" fill="#1894FF" stroke="#1894FF" stroke-width="0.3"/>
<path d="M7.81455 5.7261L7.81454 5.72609C7.58672 5.53293 7.55858 5.19175 7.75174 4.96387L7.81455 5.7261ZM7.81455 5.7261L8.85479 6.60786C8.85479 6.60786 8.85479 6.60786 8.8548 6.60787C8.95286 6.69099 9.07691 6.73614 9.20449 6.73614C9.21981 6.73614 9.23515 6.7355 9.25045 6.73421L9.25071 6.73419C9.39419 6.72186 9.52685 6.65287 9.61929 6.54237C9.6193 6.54237 9.6193 6.54236 9.6193 6.54236L11.5769 4.20271L7.81455 5.7261ZM9.13904 5.43082L8.51402 4.90099L8.51402 4.90098C8.28624 4.70792 7.94494 4.73583 7.7518 4.96381L9.13904 5.43082ZM9.13904 5.43082L10.7474 3.50861C10.9391 3.27949 11.2801 3.2493 11.5092 3.44082L11.5092 3.44087C11.7382 3.63256 11.7686 3.97363 11.5769 4.2027L9.13904 5.43082ZM8.95179 6.49344C9.02264 6.55351 9.1123 6.58614 9.20449 6.58614C9.21559 6.58614 9.22673 6.58567 9.23787 6.58474C9.34159 6.57583 9.43746 6.52596 9.50425 6.44611L8.95179 6.49344Z" fill="#1894FF" stroke="#1894FF" stroke-width="0.3"/>
<path d="M1.98652 5.5664H3.67744C3.97614 5.5664 4.21825 5.32423 4.21825 5.02559C4.21825 4.72694 3.97614 4.48477 3.67744 4.48477H1.98652C1.68782 4.48477 1.4457 4.72694 1.4457 5.02559C1.4457 5.32423 1.68782 5.5664 1.98652 5.5664Z" fill="#1894FF" stroke="#1894FF" stroke-width="0.3"/>
<path d="M4.1559 3.49592L4.1559 3.49592C4.05888 3.67989 3.87091 3.78453 3.67719 3.78453C3.59188 3.78453 3.50545 3.76432 3.42521 3.72199L4.1559 3.49592ZM4.1559 3.49592C4.2952 3.23175 4.19404 2.90461 3.92983 2.76528M4.1559 3.49592L3.92983 2.76528M3.92983 2.76528C3.92983 2.76528 3.92983 2.76528 3.92982 2.76528M3.92983 2.76528L3.92982 2.76528M3.92982 2.76528L2.23889 1.87348L3.92982 2.76528ZM1.7343 2.83019L3.42519 3.72199L1.50822 2.09956C1.36893 2.36372 1.47009 2.69085 1.73429 2.83018C1.7343 2.83019 1.7343 2.83019 1.7343 2.83019ZM2.23888 1.87347C1.97479 1.73417 1.64756 1.83528 1.50822 2.09954L2.23888 1.87347Z" fill="#1894FF" stroke="#1894FF" stroke-width="0.3"/>
<path d="M1.50809 7.95353L1.50808 7.95351C1.36894 7.68928 1.47027 7.3622 1.73452 7.22299L1.73453 7.22298L3.42545 6.33231L3.42546 6.3323C3.68969 6.19315 4.01678 6.29449 4.15599 6.55879M1.50809 7.95353L4.02327 6.6287M1.50809 7.95353C1.60504 8.13757 1.79301 8.24239 1.98691 8.24239C2.07204 8.24239 2.15845 8.22225 2.23863 8.18001M1.50809 7.95353L2.23863 8.18001M4.15599 6.55879L4.02327 6.6287M4.15599 6.55879C4.15599 6.55879 4.15598 6.55879 4.15598 6.55878L4.02327 6.6287M4.15599 6.55879C4.29519 6.82305 4.19378 7.15013 3.92955 7.28932L3.92954 7.28933L2.23864 8.18L2.16872 8.04729M4.02327 6.6287C4.12387 6.81965 4.05059 7.05602 3.85963 7.15661L2.16872 8.04729M2.16872 8.04729L2.23863 8.18001M2.16872 8.04729C2.11064 8.07789 2.04831 8.09239 1.98691 8.09239C1.84649 8.09239 1.7108 8.0165 1.6408 7.88362C1.54024 7.69266 1.61348 7.45629 1.80444 7.3557L3.49535 6.46502L2.23863 8.18001" fill="#1894FF" stroke="#1894FF" stroke-width="0.3"/>
<path d="M15.6506 5.5664H17.3415C17.6402 5.5664 17.8823 5.32423 17.8823 5.02559C17.8823 4.72694 17.6402 4.48477 17.3415 4.48477H15.6506C15.3519 4.48477 15.1098 4.72694 15.1098 5.02559C15.1098 5.32423 15.3519 5.5664 15.6506 5.5664Z" fill="#1894FF" stroke="#1894FF" stroke-width="0.3"/>
<path d="M17.8199 2.09955L17.8199 2.09957C17.9592 2.36374 17.8581 2.69088 17.5938 2.83021L17.8199 2.09955ZM17.8199 2.09955C17.6806 1.83543 17.3535 1.73407 17.0893 1.8735C17.0892 1.8735 17.0892 1.87351 17.0892 1.87352L15.3984 2.7653L17.8199 2.09955ZM15.903 3.72201L17.5938 2.83021L15.3984 2.7653C15.1341 2.90464 15.033 3.23178 15.1723 3.49594L15.1723 3.49595C15.2693 3.67989 15.4572 3.78456 15.651 3.78456C15.7362 3.78456 15.8227 3.76435 15.9029 3.72202C15.9029 3.72201 15.9029 3.72201 15.903 3.72201Z" fill="#1894FF" stroke="#1894FF" stroke-width="0.3"/>
<path d="M15.3986 7.28935L15.3986 7.28935C15.1344 7.15015 15.033 6.82309 15.1722 6.55883L15.3986 7.28935ZM15.3986 7.28935L17.0895 8.18002L17.0895 8.18003M15.3986 7.28935L17.0895 8.18003M17.0895 8.18003C17.1697 8.22225 17.2561 8.24241 17.3412 8.24241M17.0895 8.18003L17.3412 8.24241M17.5936 7.223L17.5936 7.22301C17.8578 7.3622 17.9593 7.68927 17.8201 7.95353L17.5936 7.223ZM17.5936 7.223L15.9027 6.33233L15.9027 6.33233M17.5936 7.223L15.9027 6.33233M15.9027 6.33233C15.6384 6.19313 15.3114 6.29447 15.1722 6.55881L15.9027 6.33233ZM17.3412 8.24241C17.5351 8.24241 17.7231 8.13765 17.8201 7.95355L17.3412 8.24241Z" fill="#1894FF" stroke="#1894FF" stroke-width="0.3"/>
<path d="M9.66426 15.768C9.36555 15.768 9.12344 16.0101 9.12344 16.3088V16.311C9.12344 16.6102 9.3661 16.8507 9.66426 16.8507C9.9635 16.8507 10.2051 16.6069 10.2051 16.3088C10.2051 16.0102 9.96298 15.768 9.66426 15.768Z" fill="#1894FF" stroke="#1894FF" stroke-width="0.3"/>
</svg>
