<svg width="24" height="21" viewBox="0 0 24 21" fill="none" xmlns="http://www.w3.org/2000/svg">
<path d="M22.981 14.8587C22.4895 12.8926 21.5938 11.8105 20.6146 11.2427C20.8813 10.9029 21.0409 10.4753 21.0409 10.0108C21.0409 9.77715 21.0002 9.55285 20.9262 9.34423H21.0409C22.1436 9.34423 23.0407 8.44711 23.0407 7.3444V2.01155C23.0407 0.908838 22.1436 0.0117188 21.0409 0.0117188H15.708C14.6053 0.0117188 13.7082 0.908838 13.7082 2.01155V7.3444C13.7082 7.60466 13.7587 7.85318 13.8495 8.08148C13.0009 8.31285 12.375 9.08993 12.375 10.0109V11.3441C12.375 11.5282 12.4496 11.6949 12.5703 11.8156C13.7177 12.9629 13.7767 14.792 12.7487 16.0104H9.61963V15.3438C9.61963 15.3438 9.61963 15.3437 9.61963 15.3437V8.67773C9.61963 7.92798 9.37061 7.23534 8.95121 6.6779H10.2863C10.6544 6.6779 10.9529 6.37942 10.9529 6.0113C10.9529 5.64314 10.6544 5.34471 10.2863 5.34471H8.28644V4.67811C8.28644 3.5754 7.38932 2.67828 6.2866 2.67828H4.95337C4.5852 2.67828 4.28677 2.97676 4.28677 3.34487V6.0113C4.28677 6.37946 4.58525 6.6779 4.95337 6.6779H5.38806L4.15522 10.7461C1.96113 11.1258 0.287109 13.0429 0.287109 15.3438V16.677C0.287109 18.5494 1.81087 20.0117 3.61502 20.0117C5.22758 20.0117 6.57766 18.9963 6.89049 17.3436C7.11186 17.3436 13.2781 17.3436 13.7753 17.3436C14.085 18.8631 15.4316 20.01 17.0413 20.01C18.651 20.01 19.9976 18.8631 20.3073 17.3436H21.0409C22.3418 17.3436 23.2968 16.1218 22.981 14.8587ZM5.61996 4.01138H6.28656C6.65414 4.01138 6.95316 4.31044 6.95316 4.67798V5.34457C6.47069 5.34457 6.10239 5.34457 5.61992 5.34457V4.01138H5.61996ZM4.63707 18.4306C3.0946 19.1796 1.6203 18.0981 1.6203 16.677C1.6203 15.5743 2.51738 14.6772 3.61995 14.6771C3.62 14.6771 3.62 14.6771 3.62004 14.6771C3.62009 14.6771 3.62009 14.6771 3.62013 14.6771C4.72284 14.6771 5.61996 15.5743 5.61996 16.677C5.61996 17.4523 5.23416 18.1407 4.63707 18.4306ZM8.28644 16.0104H6.88613C6.57646 14.4909 5.2298 13.3439 3.62013 13.3439C3.62009 13.3439 3.62004 13.3439 3.62 13.3439C3.61995 13.3439 3.61991 13.3439 3.61987 13.3439C3.04313 13.344 2.50022 13.4914 2.02664 13.7504C2.59271 12.7148 3.69231 12.0107 4.95337 12.0107C6.79121 12.0107 8.28644 13.5059 8.28644 15.3438V16.0104ZM8.28644 12.0816C7.5718 11.3516 6.62019 10.8544 5.55725 10.7165L6.76374 6.73532C7.63686 6.94984 8.28644 7.73928 8.28644 8.67764V12.0816ZM15.0414 2.01159C15.0414 1.64401 15.3404 1.345 15.708 1.345H21.0408C21.4084 1.345 21.7074 1.64405 21.7074 2.01159V2.67819H15.0414V2.01159ZM15.0414 4.01138H21.7075V7.34445C21.7075 7.71203 21.4084 8.01104 21.0409 8.01104C20.8197 8.01104 15.9626 8.01104 15.708 8.01104C15.3404 8.01104 15.0414 7.71199 15.0414 7.34445V4.01138H15.0414ZM13.7082 10.6775V10.0109C13.7082 9.64329 14.0072 9.34428 14.3748 9.34428C14.8421 9.34428 18.575 9.34428 19.041 9.34428C19.4086 9.34428 19.7076 9.64333 19.7076 10.0109C19.7076 10.3785 19.4086 10.6775 19.041 10.6775C18.5345 10.6775 14.9496 10.6775 14.3748 10.6775H13.7082ZM17.0412 18.6768C16.1722 18.6768 15.4312 18.1105 15.156 17.3347H18.9264C18.6512 18.1105 17.9102 18.6768 17.0412 18.6768ZM21.0409 16.0104H14.3366C14.9682 14.7568 14.9682 13.2643 14.3365 12.0107H14.3748H18.3847C20.0737 12.0107 21.1541 13.0481 21.6875 15.1821C21.7927 15.6027 21.475 16.0104 21.0409 16.0104Z" fill="#00CF53"/>
</svg>
