<svg width="33" height="32" viewBox="0 0 33 32" fill="none" xmlns="http://www.w3.org/2000/svg">
<path d="M25.3516 0H7.06592V32H25.3516V0Z" fill="#2361B5"/>
<path d="M23.3929 4.89746H9.02539V27.4282H23.3929V4.89746Z" fill="white"/>
<path d="M13.5968 21.5508H11.6375V23.5101H13.5968V21.5508Z" fill="#00DE9A"/>
<path d="M20.7803 21.5508H14.9028V23.5101H20.7803V21.5508Z" fill="#00DE9A"/>
<path d="M19.9099 10.9492C19.8779 11.9094 19.4739 12.8195 18.7834 13.4874C18.0929 14.1553 17.1698 14.5287 16.2091 14.5287C15.2484 14.5287 14.3253 14.1553 13.6348 13.4874C12.9442 12.8195 12.5403 11.9094 12.5083 10.9492" fill="#2361B5"/>
<path d="M12.5082 10.9491L13.9902 4.28809H8.06748L5.10702 10.9491C5.08955 11.446 5.17235 11.9414 5.35045 12.4056C5.52856 12.8698 5.79833 13.2934 6.14369 13.6511C6.48904 14.0088 6.9029 14.2933 7.36058 14.4876C7.81826 14.6819 8.31038 14.7821 8.80759 14.7821C9.30481 14.7821 9.79694 14.6819 10.2546 14.4876C10.7123 14.2933 11.1262 14.0088 11.4715 13.6511C11.8169 13.2934 12.0866 12.8698 12.2647 12.4056C12.4428 11.9414 12.5256 11.446 12.5082 10.9491Z" fill="#1894FF"/>
<path d="M12.5081 10.9492H5.10693C5.14064 11.9082 5.54529 12.8166 6.2356 13.483C6.9259 14.1495 7.84797 14.522 8.80751 14.522C9.76704 14.522 10.6891 14.1495 11.3794 13.483C12.0697 12.8166 12.4744 11.9082 12.5081 10.9492Z" fill="#2361B5"/>
<path d="M19.9092 10.9491L18.429 4.28809H24.3499L27.3103 10.9491C27.3278 11.446 27.245 11.9414 27.0669 12.4056C26.8888 12.8698 26.619 13.2934 26.2737 13.6511C25.9283 14.0088 25.5145 14.2933 25.0568 14.4876C24.5991 14.6819 24.107 14.7821 23.6098 14.7821C23.1125 14.7821 22.6204 14.6819 22.1627 14.4876C21.7051 14.2933 21.2912 14.0088 20.9458 13.6511C20.6005 13.2934 20.3307 12.8698 20.1526 12.4056C19.9745 11.9414 19.8917 11.446 19.9092 10.9491Z" fill="#1894FF"/>
<path d="M19.9097 10.9492H27.3104C27.3279 11.4461 27.2451 11.9415 27.067 12.4057C26.8889 12.8699 26.6191 13.2935 26.2738 13.6512C25.9284 14.0089 25.5145 14.2934 25.0569 14.4877C24.5992 14.682 24.1071 14.7822 23.6098 14.7822C23.1126 14.7822 22.6205 14.682 22.1628 14.4877C21.7051 14.2934 21.2913 14.0089 20.9459 13.6512C20.6006 13.2935 20.3308 12.8699 20.1527 12.4057C19.9746 11.9415 19.8918 11.4461 19.9093 10.9492" fill="#2361B5"/>
<path d="M12.5085 10.9491L13.9888 4.28809H18.4295L19.9097 10.9491" fill="white"/>
</svg>
