<svg width="18" height="18" viewBox="0 0 18 18" fill="none" xmlns="http://www.w3.org/2000/svg">
<path d="M9 0.25C7.26942 0.25 5.57769 0.763179 4.13876 1.72464C2.69983 2.6861 1.57832 4.05267 0.916058 5.65152C0.253791 7.25037 0.080512 9.00971 0.418133 10.707C0.755753 12.4044 1.58911 13.9635 2.81282 15.1872C4.03653 16.4109 5.59563 17.2442 7.29296 17.5819C8.9903 17.9195 10.7496 17.7462 12.3485 17.0839C13.9473 16.4217 15.3139 15.3002 16.2754 13.8612C17.2368 12.4223 17.75 10.7306 17.75 9C17.75 6.67936 16.8281 4.45376 15.1872 2.81282C13.5462 1.17187 11.3206 0.25 9 0.25ZM9 16.5C7.51664 16.5 6.0666 16.0601 4.83323 15.236C3.59986 14.4119 2.63856 13.2406 2.07091 11.8701C1.50325 10.4997 1.35473 8.99168 1.64411 7.53682C1.9335 6.08197 2.64781 4.74559 3.6967 3.6967C4.7456 2.64781 6.08197 1.9335 7.53683 1.64411C8.99168 1.35472 10.4997 1.50325 11.8701 2.0709C13.2406 2.63856 14.4119 3.59985 15.236 4.83322C16.0601 6.06659 16.5 7.51664 16.5 9C16.5 10.9891 15.7098 12.8968 14.3033 14.3033C12.8968 15.7098 10.9891 16.5 9 16.5Z" fill="black" fill-opacity="0.4"/>
<path d="M8.79166 6.5C8.6259 6.5 8.46692 6.55268 8.34971 6.64645C8.2325 6.74021 8.16666 6.86739 8.16666 7V13.5C8.16666 13.6326 8.2325 13.7598 8.34971 13.8536C8.46692 13.9473 8.6259 14 8.79166 14C8.95742 14 9.11639 13.9473 9.2336 13.8536C9.35081 13.7598 9.41666 13.6326 9.41666 13.5V7C9.41666 6.86739 9.35081 6.74021 9.2336 6.64645C9.11639 6.55268 8.95742 6.5 8.79166 6.5ZM8.79166 4C8.6259 4 8.46692 4.05268 8.34971 4.14645C8.2325 4.24021 8.16666 4.36739 8.16666 4.5V5C8.16666 5.13261 8.2325 5.25979 8.34971 5.35355C8.46692 5.44732 8.6259 5.5 8.79166 5.5C8.95742 5.5 9.11639 5.44732 9.2336 5.35355C9.35081 5.25979 9.41666 5.13261 9.41666 5V4.5C9.41666 4.36739 9.35081 4.24021 9.2336 4.14645C9.11639 4.05268 8.95742 4 8.79166 4Z" fill="black" fill-opacity="0.4"/>
</svg>
