<svg width="24" height="24" viewBox="0 0 24 24" fill="none" xmlns="http://www.w3.org/2000/svg">
<path d="M22 12C22 13.9739 21.4141 15.8934 20.3057 17.5513C20.1551 17.7767 19.9076 17.8984 19.6555 17.8984C19.5063 17.8984 19.3553 17.8559 19.222 17.7666C18.8633 17.5269 18.767 17.0417 19.0067 16.6829C19.9428 15.2829 20.4375 13.6637 20.4375 12C20.4375 11.2851 20.3481 10.5751 20.1717 9.89001C20.0641 9.47223 20.3157 9.0462 20.7335 8.93863C21.1516 8.83121 21.5773 9.08267 21.6849 9.50046C21.894 10.3128 22 11.1537 22 12ZM16.3646 19.2224C15.0524 20.0173 13.5431 20.4375 12 20.4375C7.3476 20.4375 3.5625 16.6524 3.5625 12C3.5625 7.3476 7.3476 3.5625 12 3.5625C13.7226 3.5625 15.3789 4.07794 16.7902 5.05313C17.1451 5.29834 17.6317 5.20938 17.8771 4.85446C18.1223 4.49954 18.0335 4.01294 17.6784 3.76758C16.0048 2.61127 14.0413 2 12 2C9.32895 2 6.81766 3.04019 4.92892 4.92892C3.04019 6.81766 2 9.32895 2 12C2 14.6711 3.04019 17.1823 4.92892 19.0711C6.81766 20.9598 9.32895 22 12 22C13.8286 22 15.6179 21.5016 17.1743 20.5588C17.5434 20.3353 17.6613 19.8549 17.4378 19.4858C17.2141 19.1167 16.7337 18.9989 16.3646 19.2224ZM12.0754 14.2653C11.9516 14.2702 11.8361 14.2263 11.7464 14.1408L7.65475 10.2613C7.34164 9.96432 6.84711 9.97745 6.55032 10.2906C6.25339 10.6037 6.26651 11.0982 6.57962 11.395L10.6705 15.2739C11.0483 15.6331 11.537 15.8281 12.0549 15.8281C12.0827 15.8281 12.1105 15.8275 12.1382 15.8264C12.6868 15.8043 13.1906 15.5669 13.5569 15.1578C13.5662 15.1476 13.575 15.1371 13.5837 15.1262L21.8276 4.87231C22.098 4.53601 22.0446 4.04422 21.7083 3.77399C21.3721 3.5036 20.8802 3.55701 20.6098 3.89331L12.3821 14.1272C12.3012 14.2116 12.1929 14.2606 12.0754 14.2653Z" fill="#1894FF"/>
</svg>
