<svg width="33" height="32" viewBox="0 0 33 32" fill="none" xmlns="http://www.w3.org/2000/svg">
<g clip-path="url(#clip0_5646_4380)">
<path d="M1.30322 9.69824H31.1701V29.9651H1.30322V9.69824Z" fill="#2361B5"/>
<path d="M1.30322 9.69824H29.5698V29.9651H1.30322V9.69824Z" fill="#1894FF"/>
<path d="M1.30322 24.6318H4.5031V29.9652H1.30322V24.6318Z" fill="#1894FF"/>
<path d="M4.50293 24.6318H7.70281V29.9652H4.50293V24.6318Z" fill="#2361B5"/>
<path d="M7.70288 24.6318H10.9028V29.9652H7.70288V24.6318Z" fill="#1894FF"/>
<path d="M21.5698 24.6318H24.7697V29.9652H21.5698V24.6318Z" fill="#1894FF"/>
<path d="M24.7698 24.6318H27.9697V29.9652H24.7698V24.6318Z" fill="#2361B5"/>
<path d="M27.9697 24.6318H31.1696V29.9652H27.9697V24.6318Z" fill="#1894FF"/>
<path d="M16.2363 20.3652H21.5697V29.9653H16.2363V20.3652Z" fill="#2361B5"/>
<path d="M16.2363 20.3652H19.9698V29.9653H16.2363V20.3652Z" fill="white"/>
<path d="M10.9028 20.3652H16.2362V29.9653H10.9028V20.3652Z" fill="#2361B5"/>
<path d="M10.9028 20.3652H14.6363V29.9653H10.9028V20.3652Z" fill="white"/>
<path d="M16.2363 11.832H25.3032V17.1654H16.2363V11.832Z" fill="white"/>
<path d="M5.56934 11.832H16.2361V17.1654H5.56934V11.832Z" fill="#2361B5"/>
<path d="M5.56934 11.832H14.6362V17.1654H5.56934V11.832Z" fill="white"/>
<path d="M0.236328 2.40039H32.2363V9.86691H0.236328V2.40039Z" fill="#2361B5"/>
<path d="M0.236328 2.40039H30.1032V9.86691H0.236328V2.40039Z" fill="#1894FF"/>
<path d="M13.9476 6.29257L16.3934 3.84678C16.6349 3.60536 16.9624 3.46973 17.3038 3.46973C17.6453 3.46973 17.9728 3.60536 18.2143 3.84678L18.5269 4.15945C18.7683 4.40092 18.904 4.72841 18.904 5.06987C18.904 5.41134 18.7683 5.73882 18.5269 5.9803L16.0811 8.42609C15.8397 8.66752 15.5122 8.80314 15.1707 8.80314C14.8292 8.80314 14.5018 8.66752 14.2603 8.42609L13.9476 8.11342C13.7062 7.87195 13.5706 7.54446 13.5706 7.203C13.5706 6.86153 13.7062 6.53405 13.9476 6.29257V6.29257Z" fill="#2361B5"/>
<path d="M17.3032 7.20285L16.0802 8.42594C15.8387 8.66737 15.5112 8.803 15.1697 8.803C14.8283 8.803 14.5008 8.66737 14.2593 8.42594L13.9466 8.11328C13.7052 7.8718 13.5696 7.54432 13.5696 7.20285C13.5696 6.86139 13.7052 6.5339 13.9466 6.29243L15.1697 5.06934L17.3032 7.20285Z" fill="white"/>
<path d="M12.7075 24.0986H13.7743V26.2322H12.7075V24.0986Z" fill="#00DE9A"/>
<path d="M17.0376 24.0986H18.1044V26.2322H17.0376V24.0986Z" fill="#00DE9A"/>
<path d="M6.36816 15.1875L8.50162 13.054L9.25594 13.8084L7.12248 15.9418L6.36816 15.1875Z" fill="#00DE9A"/>
<path d="M10.7056 15.1875L12.839 13.054L13.5933 13.8084L11.4599 15.9418L10.7056 15.1875Z" fill="#00DE9A"/>
<path d="M17.2114 15.1885L19.3449 13.055L20.0992 13.8093L17.9657 15.9428L17.2114 15.1885Z" fill="#00DE9A"/>
<path d="M21.5496 15.1885L23.683 13.055L24.4373 13.8093L22.3039 15.9428L21.5496 15.1885Z" fill="#00DE9A"/>
</g>
<defs>
<clipPath id="clip0_5646_4380">
<rect width="32" height="32" fill="white" transform="translate(0.236328)"/>
</clipPath>
</defs>
</svg>
