<svg width="25" height="25" viewBox="0 0 25 25" fill="none" xmlns="http://www.w3.org/2000/svg">
<path d="M17.3359 9.84254L22.5489 6.18571C22.6239 6.13307 22.7118 6.10205 22.8032 6.09605C22.8945 6.09004 22.9858 6.10927 23.067 6.15164C23.1481 6.19402 23.2162 6.25791 23.2636 6.33635C23.311 6.41479 23.336 6.50477 23.3359 6.59648V18.6991C23.336 18.7908 23.311 18.8808 23.2636 18.9592C23.2162 19.0377 23.1481 19.1016 23.067 19.1439C22.9858 19.1863 22.8945 19.2055 22.8032 19.1995C22.7118 19.1935 22.6239 19.1625 22.5489 19.1099L17.3359 15.453V19.6609C17.3359 19.9266 17.2306 20.1814 17.043 20.3693C16.8555 20.5572 16.6012 20.6628 16.3359 20.6628H2.33594C2.07072 20.6628 1.81637 20.5572 1.62883 20.3693C1.44129 20.1814 1.33594 19.9266 1.33594 19.6609V5.63468C1.33594 5.36897 1.44129 5.11414 1.62883 4.92625C1.81637 4.73837 2.07072 4.63281 2.33594 4.63281H16.3359C16.6012 4.63281 16.8555 4.73837 17.043 4.92625C17.2306 5.11414 17.3359 5.36897 17.3359 5.63468V9.84254ZM17.3359 13.0075L21.3359 15.8127V9.48187L17.3359 12.2871V13.0065V13.0075ZM3.33594 6.63656V18.659H15.3359V6.63656H3.33594ZM5.33594 8.6403H7.33594V10.644H5.33594V8.6403Z" fill="#1894FF"/>
</svg>
