<svg width="33" height="33" viewBox="0 0 33 33" fill="none" xmlns="http://www.w3.org/2000/svg">
<g opacity="0.3">
<path opacity="0.4" d="M19.9568 0.75L14.4254 11.8128H11.8855L6.35547 0.75H8.45375L13.1582 10.1594L17.8613 0.75H19.9568Z" fill="#00DE9A"/>
<path opacity="0.4" d="M19.9585 0.75L14.4271 11.8128H13.1562V10.1589L17.8612 0.75H19.9585Z" fill="#00DE9A"/>
<path opacity="0.4" d="M0.304688 11.417H32.3047V32.75H0.304688V11.417Z" fill="#1894FF"/>
<path opacity="0.4" d="M13.1562 11.417H32.305V32.75H13.1562V11.417Z" fill="#2361B5"/>
<path opacity="0.4" d="M4.05469 15.5205H21.907V28.6455H4.05469V15.5205Z" fill="white"/>
<path opacity="0.4" d="M13.1562 15.5205H21.9082V28.6455H13.1562V15.5205Z" fill="white"/>
<g opacity="0.4">
<path opacity="0.4" d="M28.5548 23.0234H23.7827V24.8977H28.5548V23.0234Z" fill="white"/>
<path opacity="0.4" d="M28.5548 19.2725H23.7827V21.1467H28.5548V19.2725Z" fill="white"/>
<path opacity="0.4" d="M28.5546 15.5205H23.7825V17.3948H28.5546V15.5205Z" fill="white"/>
<path opacity="0.4" d="M28.5548 26.7754H23.7827V28.6497H28.5548V26.7754Z" fill="white"/>
</g>
</g>
</svg>
