<svg width="16" height="16" viewBox="0 0 16 16" fill="none" xmlns="http://www.w3.org/2000/svg">
<path d="M8.46824 14.8636C8.92581 14.8636 9.31066 14.8288 9.62278 14.7591C9.9349 14.6894 10.1819 14.5818 10.3637 14.4364C10.5213 14.3091 10.6364 14.147 10.7091 13.95C10.7849 13.753 10.8228 13.5076 10.8228 13.2136H9.98642C9.7743 13.2136 9.55914 13.1818 9.34096 13.1182C9.12278 13.0545 8.9243 12.95 8.74551 12.8045C8.56975 12.6591 8.42581 12.4697 8.31369 12.2364C8.20157 12 8.14551 11.7121 8.14551 11.3727C8.14551 11.1727 8.16217 10.9924 8.19551 10.8318C8.23187 10.6682 8.27581 10.5227 8.32733 10.3955C8.38187 10.2682 8.44096 10.1576 8.5046 10.0636C8.56824 9.9697 8.63036 9.88939 8.69096 9.82273C8.85763 9.65606 9.04854 9.52727 9.26369 9.43636C9.47884 9.34545 9.70914 9.3 9.9546 9.3C10.1698 9.3 10.3713 9.33333 10.5591 9.4C10.747 9.46666 10.9152 9.56666 11.0637 9.7C11.4728 10.0818 11.6773 10.6803 11.6773 11.4955V12.3545H12.3591V13.2136H11.6773C11.6773 13.6439 11.6137 14.0136 11.4864 14.3227C11.3622 14.6348 11.1682 14.8955 10.9046 15.1045C10.6379 15.3136 10.3061 15.4682 9.90914 15.5682C9.5152 15.6712 9.0349 15.7227 8.46824 15.7227V14.8636ZM9.90914 10.1591C9.60914 10.1591 9.37581 10.2651 9.20914 10.4773C9.04248 10.6894 8.95914 10.9879 8.95914 11.3727C8.95914 11.7636 9.07733 12.0348 9.31369 12.1864C9.37127 12.2227 9.43036 12.253 9.49096 12.2773C9.55157 12.2985 9.61066 12.3151 9.66824 12.3273C9.72581 12.3364 9.77733 12.3439 9.82278 12.35C9.87127 12.353 9.91066 12.3545 9.94096 12.3545H10.7773V11.4955C10.7773 11.2742 10.7607 11.0879 10.7273 10.9364C10.694 10.7818 10.6516 10.6545 10.6001 10.5545C10.5485 10.4545 10.4894 10.3788 10.4228 10.3273C10.3591 10.2727 10.2955 10.2333 10.2319 10.2091C10.1682 10.1848 10.1076 10.1712 10.0501 10.1682C9.99248 10.1621 9.94551 10.1591 9.90914 10.1591Z" fill="black"/>
<path d="M15.3357 9.51363C15.3418 9.53182 15.3539 9.5803 15.3721 9.65909C15.3903 9.73788 15.4099 9.83636 15.4312 9.95454C15.4554 10.0697 15.4812 10.1985 15.5084 10.3409C15.5357 10.4803 15.5599 10.6227 15.5812 10.7682C15.6024 10.9106 15.6206 11.0485 15.6357 11.1818C15.6509 11.3151 15.6584 11.4318 15.6584 11.5318C15.6584 11.8227 15.6099 12.0742 15.513 12.2864C15.419 12.4955 15.2948 12.6697 15.1403 12.8091C14.9887 12.9455 14.8175 13.047 14.6266 13.1136C14.4357 13.1803 14.2433 13.2136 14.0493 13.2136H12.1675V12.3545H14.0493C14.0948 12.3545 14.1584 12.3485 14.2403 12.3364C14.3251 12.3212 14.4084 12.2864 14.4903 12.2318C14.5751 12.1773 14.6478 12.0955 14.7084 11.9864C14.7721 11.8773 14.8039 11.7258 14.8039 11.5318C14.8039 11.4651 14.7978 11.3818 14.7857 11.2818C14.7766 11.1788 14.763 11.0697 14.7448 10.9545C14.7296 10.8364 14.7115 10.7167 14.6903 10.5955C14.669 10.4712 14.6478 10.3545 14.6266 10.2455C14.6054 10.1364 14.5857 10.0394 14.5675 9.95454C14.5493 9.86969 14.5342 9.80606 14.5221 9.76363L15.3357 9.51363ZM15.2539 8.55L14.5357 7.82273L15.2448 7.08636L15.9812 7.82273L15.2539 8.55ZM13.513 8.54091L12.7948 7.81363L13.5039 7.07727L14.2403 7.81363L13.513 8.54091Z" fill="black"/>
<path d="M2.43201 14.2136C2.11383 14.2106 1.8502 14.1894 1.6411 14.15C1.43504 14.1076 1.25929 14.0485 1.11383 13.9727C0.971407 13.8939 0.856256 13.797 0.768377 13.6818C0.683529 13.5636 0.616862 13.4273 0.568377 13.2727C0.519892 13.1151 0.488074 12.9394 0.472923 12.7454C0.457771 12.5515 0.450195 12.3364 0.450195 12.1V7.72726H1.30929V12.1C1.30929 12.3636 1.31686 12.5773 1.33201 12.7409C1.3502 12.9045 1.39413 13.0318 1.46383 13.1227C1.53656 13.2106 1.64413 13.2712 1.78656 13.3045C1.93201 13.3348 2.14716 13.3515 2.43201 13.3545V14.2136Z" fill="black"/>
<path d="M5.54838 13.5727C5.5696 13.5727 5.59838 13.5712 5.63475 13.5682C5.67414 13.5651 5.71505 13.553 5.75747 13.5318C5.80293 13.5106 5.84687 13.4788 5.88929 13.4364C5.93475 13.3909 5.97414 13.3288 6.00747 13.25C6.04384 13.1682 6.07263 13.0651 6.09384 12.9409C6.11808 12.8136 6.1302 12.6591 6.1302 12.4773C6.1302 12.4439 6.12717 12.3909 6.12111 12.3182C6.11505 12.2454 6.10141 12.1651 6.0802 12.0773C6.05899 11.9864 6.02717 11.8939 5.98475 11.8C5.94535 11.7061 5.89081 11.6197 5.82111 11.5409C5.75141 11.4621 5.66657 11.3985 5.56657 11.35C5.46657 11.2985 5.34535 11.2727 5.20293 11.2727C5.0696 11.2727 4.95596 11.297 4.86202 11.3454C4.77111 11.3909 4.69384 11.4545 4.6302 11.5364C4.56657 11.6182 4.51354 11.7151 4.47111 11.8273C4.42869 11.9364 4.38929 12.0561 4.35293 12.1864C4.31657 12.3136 4.2802 12.4485 4.24384 12.5909C4.20748 12.7303 4.16505 12.8697 4.11657 13.0091C4.27414 13.0879 4.4196 13.1621 4.55293 13.2318C4.68626 13.3015 4.81051 13.3621 4.92566 13.4136C5.04081 13.4621 5.14838 13.5015 5.24838 13.5318C5.35141 13.5591 5.45141 13.5727 5.54838 13.5727ZM5.20293 10.4182C5.4999 10.4182 5.75748 10.4757 5.97566 10.5909C6.19687 10.703 6.3802 10.8545 6.52566 11.0454C6.67111 11.2364 6.77869 11.4561 6.84838 11.7045C6.92111 11.953 6.95748 12.2106 6.95748 12.4773C6.95748 12.7712 6.93172 13.0242 6.8802 13.2364C6.83172 13.4485 6.76657 13.6273 6.68475 13.7727C6.60293 13.9151 6.51051 14.0303 6.40747 14.1182C6.30748 14.2061 6.20444 14.2727 6.09838 14.3182C5.99535 14.3636 5.89535 14.3939 5.79838 14.4091C5.70141 14.4242 5.61808 14.4318 5.54838 14.4318C5.3999 14.4318 5.25747 14.4167 5.12111 14.3864C4.98475 14.3561 4.84535 14.3121 4.70293 14.2545C4.56051 14.2 4.41051 14.1318 4.25293 14.05C4.09838 13.9682 3.92717 13.8757 3.73929 13.7727C3.49081 14.0667 3.17111 14.2136 2.7802 14.2136H2.25748V13.3545H2.7802C2.89535 13.3545 2.98929 13.3121 3.06202 13.2273C3.13778 13.1424 3.20293 13.0318 3.25748 12.8954C3.31202 12.7591 3.36202 12.603 3.40747 12.4273C3.45293 12.2515 3.50444 12.0712 3.56202 11.8864C3.62263 11.7015 3.69384 11.5212 3.77566 11.3454C3.85747 11.1697 3.96051 11.0136 4.08475 10.8773C4.21202 10.7409 4.36505 10.6303 4.54384 10.5454C4.72566 10.4606 4.94535 10.4182 5.20293 10.4182Z" fill="black"/>
<path d="M2.64091 6.73182C2.17121 6.73182 1.74545 6.62879 1.36364 6.42273C0.981818 6.2197 0.672727 5.92879 0.436364 5.55C0.272727 5.29242 0.156061 5.00606 0.0863636 4.69091C0.0287879 4.44848 0 4.19394 0 3.92727C0 3.84848 0.0060606 3.7 0.0181818 3.48182C0.0333333 3.26061 0.0969697 2.95455 0.209091 2.56364C0.321212 2.1697 0.477273 1.76364 0.677273 1.34545L1.45 1.71364C1.2803 2.06515 1.14545 2.40303 1.04545 2.72727C0.948485 3.04848 0.887879 3.35303 0.863636 3.64091C0.854545 3.73788 0.85 3.83182 0.85 3.92273C0.85 4.10455 0.869697 4.29697 0.909091 4.5C0.951515 4.70606 1.03485 4.90606 1.15909 5.1C1.31667 5.34546 1.52273 5.53485 1.77727 5.66818C2.03182 5.80455 2.3197 5.87273 2.64091 5.87273H3.70909C4.05758 5.87273 4.34091 5.83485 4.55909 5.75909C4.7803 5.68636 4.95152 5.58333 5.07273 5.45C5.19697 5.31667 5.2803 5.15455 5.32273 4.96364C5.36818 4.77576 5.39091 4.56667 5.39091 4.33636V1.14091H6.25V4.33636C6.25 5.13636 6.03788 5.73485 5.61364 6.13182C5.18939 6.53182 4.55455 6.73182 3.70909 6.73182H2.64091ZM2.67727 0.781818L3.45 0L4.24091 0.790909L3.45909 1.57273L2.67727 0.781818Z" fill="black"/>
</svg>
