<svg width="109" height="109" viewBox="0 0 109 109" fill="none" xmlns="http://www.w3.org/2000/svg">
<g opacity="0.2">
<path fill-rule="evenodd" clip-rule="evenodd" d="M71.7116 77.0789L93.6007 98.968C94.3242 99.6153 95.2685 99.9603 96.2388 99.9318C97.2092 99.9033 98.1317 99.5035 98.8159 98.8148C99.5002 98.1262 99.8941 97.2012 99.9163 96.2306C99.9386 95.2601 99.5875 94.318 98.9356 93.5987L77.0809 71.7096C83.3146 64.0979 86.3834 54.381 85.6521 44.5696C84.9208 34.7582 80.4455 25.6035 73.1522 19.0001C65.8589 12.3966 56.306 8.84987 46.4705 9.09383C36.6349 9.33779 27.2696 13.3538 20.3127 20.3107C13.3557 27.2676 9.33975 36.6329 9.09578 46.4685C8.85182 56.3041 12.3986 65.8569 19.002 73.1502C25.6055 80.4435 34.7602 84.9189 44.5716 85.6502C54.3829 86.3814 64.0999 83.3127 71.7116 77.0789ZM72.9373 30.3266C76.3168 35.3811 78.1216 41.3242 78.1235 47.4044H78.1079C78.1021 55.5525 74.8651 63.3657 69.1067 69.1305C63.3484 74.8952 55.5388 78.141 47.3908 78.1559C41.3106 78.1577 35.3663 76.3565 30.3098 72.9801C25.2533 69.6037 21.3115 64.8036 18.983 59.1869C16.6545 53.5702 16.0438 47.3892 17.2282 41.4255C18.4126 35.4617 21.3388 29.9831 25.6368 25.6825C29.9349 21.3818 35.4117 18.4522 41.3747 17.2642C47.3378 16.0762 53.5191 16.6831 59.1372 19.0082C64.7553 21.3333 69.5578 25.2721 72.9373 30.3266ZM64.7194 47.6951C64.7194 57.1012 57.0943 64.7263 47.6882 64.7263C38.2821 64.7263 30.6569 57.1012 30.6569 47.6951C30.6569 38.289 38.2821 30.6638 47.6882 30.6638C57.0943 30.6638 64.7194 38.289 64.7194 47.6951ZM55.7248 53.0992L53.0907 55.7351L47.6901 50.331L42.286 55.7386L39.6519 53.1028L45.056 47.6952L39.6519 42.2875L42.286 39.6517L47.6901 45.0594L53.0907 39.6553L55.7248 42.2911L50.3242 47.6952L55.7248 53.0992Z" fill="black"/>
</g>
</svg>
