<svg width="34" height="33" viewBox="0 0 34 33" fill="none" xmlns="http://www.w3.org/2000/svg">
<g opacity="0.4">
<path d="M0.586426 6.0166H27.4547V27.1327H0.586426V6.0166Z" fill="#1894FF"/>
</g>
<g opacity="0.4">
<path d="M14.0305 6.0166H27.4547V27.1327H14.0305V6.0166Z" fill="#2361B5"/>
</g>
<g opacity="0.4">
<path d="M0.586426 2.76465H14.051V7.61835H0.586426V2.76465Z" fill="#1894FF"/>
</g>
<path d="M14.0305 2.76465H27.4547V7.61835H14.0305V2.76465Z" fill="#2361B5"/>
<g opacity="0.4">
<g opacity="0.4">
<path d="M3.62042 9.71387H7.32202V13.417H3.6189L3.62042 9.71387Z" fill="white"/>
</g>
</g>
<g opacity="0.4">
<g opacity="0.4">
<path d="M3.62066 20.6709H7.32227V24.374H3.61914L3.62066 20.6709Z" fill="white"/>
</g>
</g>
<g opacity="0.4">
<g opacity="0.4">
<path d="M3.62066 15.1924H7.32227V18.8955H3.61914L3.62066 15.1924Z" fill="white"/>
</g>
</g>
<g opacity="0.4">
<g opacity="0.4">
<path d="M9.32031 9.71387H13.0234V13.417H9.32031V9.71387Z" fill="white"/>
</g>
</g>
<g opacity="0.4">
<g opacity="0.4">
<path d="M9.31934 20.6709H13.0225V24.374H9.31934V20.6709Z" fill="white"/>
</g>
</g>
<g opacity="0.4">
<g opacity="0.4">
<path d="M9.31934 15.1924H13.0225V18.8955H9.31934V15.1924Z" fill="white"/>
</g>
</g>
<g opacity="0.4">
<g opacity="0.4">
<path d="M15.0195 9.71387H18.7227V13.417H15.0195V9.71387Z" fill="white"/>
</g>
</g>
<g opacity="0.4">
<g opacity="0.4">
<path d="M15.0188 20.6709H18.7219V24.374H15.0188V20.6709Z" fill="white"/>
</g>
</g>
<g opacity="0.4">
<g opacity="0.4">
<path d="M15.0188 15.1924H18.7219V18.8955H15.0188V15.1924Z" fill="white"/>
</g>
</g>
<g opacity="0.4">
<g opacity="0.4">
<path d="M20.7168 9.71387H24.4199V13.417H20.7168V9.71387Z" fill="white"/>
</g>
</g>
<g opacity="0.4">
<g opacity="0.4">
<path d="M20.717 20.6709H24.4202V24.374H20.717V20.6709Z" fill="white"/>
</g>
</g>
<g opacity="0.4">
<g opacity="0.4">
<path d="M20.717 15.1924H24.4202V18.8955H20.717V15.1924Z" fill="white"/>
</g>
</g>
<g opacity="0.4">
<path d="M3.62036 0.611328H6.7929V5.19117H3.62036V0.611328Z" fill="#2361B5"/>
</g>
<g opacity="0.4">
<path d="M21.2478 0.611328H24.4203V5.19117H21.2478V0.611328Z" fill="#1894FF"/>
</g>
<g opacity="0.4">
<path d="M12.4353 0.611328H15.6078V5.19117H12.4353V0.611328Z" fill="#2361B5"/>
</g>
<g opacity="0.4">
<g opacity="0.4">
<path d="M14.0305 0.611328H15.6071V5.19117H14.0305V0.611328Z" fill="#1894FF"/>
</g>
</g>
<path d="M27.3356 20.8203L24.3875 26.7158L27.3356 32.6113C28.8992 32.6113 30.3987 31.9902 31.5043 30.8845C32.6099 29.7789 33.2311 28.2794 33.2311 26.7158C33.2311 25.1522 32.6099 23.6527 31.5043 22.5471C30.3987 21.4414 28.8992 20.8203 27.3356 20.8203V20.8203Z" fill="#2361B5"/>
<path d="M21.4392 26.7158C21.4392 28.2794 22.0603 29.7789 23.166 30.8845C24.2716 31.9902 25.7711 32.6113 27.3347 32.6113V20.8203C25.7711 20.8203 24.2716 21.4414 23.166 22.5471C22.0603 23.6527 21.4392 25.1522 21.4392 26.7158V26.7158Z" fill="#1894FF"/>
<path d="M27.3359 22.2021L25.0789 26.7166L27.3359 31.231C28.5332 31.231 29.6814 30.7554 30.5281 29.9088C31.3747 29.0621 31.8503 27.9139 31.8503 26.7166C31.8503 25.5193 31.3747 24.371 30.5281 23.5244C29.6814 22.6778 28.5332 22.2021 27.3359 22.2021Z" fill="white"/>
<path d="M22.821 26.7166C22.821 27.9139 23.2967 29.0621 24.1433 29.9088C24.9899 30.7554 26.1382 31.231 27.3355 31.231V22.2021C26.1382 22.2021 24.9899 22.6778 24.1433 23.5244C23.2967 24.371 22.821 25.5193 22.821 26.7166Z" fill="white"/>
<path opacity="0.4" d="M28.3123 27.2056L27.3351 26.2285H26.8745L27.3351 27.2056L27.8239 27.6944L28.3123 27.2056Z" fill="#00DE9A"/>
<path opacity="0.4" d="M25.3735 24.2656L24.8848 24.7544L27.3358 27.2054V26.2283L25.3735 24.2656Z" fill="#00DE9A"/>
<path opacity="0.4" d="M29.2993 24.2656L27.334 26.2309L26.8745 27.2054H27.334L29.7865 24.7529L29.2993 24.2656Z" fill="#00DE9A"/>
<path opacity="0.4" d="M26.3589 27.2056L26.8476 27.6944L27.3364 27.2056V26.2285L26.3589 27.2056Z" fill="#00DE9A"/>
<path opacity="0.4" d="M27.6808 22.8936H27.3355L27.105 23.2389L27.3355 23.5843H27.6808V22.8936Z" fill="white"/>
<path opacity="0.4" d="M26.9902 22.8936H27.3356V23.5847H26.9902V22.8936Z" fill="white"/>
<path opacity="0.4" d="M27.6808 29.8496H27.3355L27.105 30.195L27.3355 30.5403H27.6808V29.8496Z" fill="white"/>
<path opacity="0.4" d="M26.9902 29.8496H27.3356V30.5407H26.9902V29.8496Z" fill="white"/>
<path opacity="0.4" d="M23.5125 27.0625V26.3714H24.2036V27.0625H23.5125Z" fill="white"/>
<path opacity="0.4" d="M30.4683 27.0625V26.3714H31.1594V27.0625H30.4683Z" fill="white"/>
</svg>
