<svg width="21" height="21" viewBox="0 0 21 21" fill="none" xmlns="http://www.w3.org/2000/svg">
<path d="M17.6641 20.998H3.66406C3.39885 20.998 3.14449 20.8927 2.95696 20.7052C2.76942 20.5176 2.66406 20.2633 2.66406 19.998V11.998H1.66406C1.39885 11.998 1.14449 11.8927 0.956956 11.7052C0.769419 11.5176 0.664063 11.2633 0.664062 10.998V6.99805C0.664062 6.73283 0.769419 6.47848 0.956956 6.29094C1.14449 6.1034 1.39885 5.99805 1.66406 5.99805H3.76656C3.53738 5.53105 3.41687 5.01824 3.41406 4.49805C3.41506 3.57009 3.78412 2.68043 4.44028 2.02427C5.09645 1.36811 5.98611 0.99904 6.91406 0.998047C7.72235 1.00023 8.51392 1.22842 9.19933 1.65683C9.88475 2.08525 10.4367 2.69681 10.7928 3.42242C11.1256 2.97588 11.5591 2.61417 12.058 2.36667C12.5569 2.11917 13.1072 1.99288 13.6641 1.99805C14.4594 1.99904 15.2219 2.31543 15.7843 2.87782C16.3467 3.44022 16.6631 4.2027 16.6641 4.99805C16.6608 5.3398 16.5973 5.67831 16.4766 5.99805H19.6641C19.9293 5.99805 20.1836 6.1034 20.3712 6.29094C20.5587 6.47848 20.6641 6.73283 20.6641 6.99805V10.998C20.6641 11.2633 20.5587 11.5176 20.3712 11.7052C20.1836 11.8927 19.9293 11.998 19.6641 11.998H18.6641V19.998C18.6641 20.2633 18.5587 20.5176 18.3712 20.7052C18.1836 20.8927 17.9293 20.998 17.6641 20.998ZM11.6641 11.998V18.998H16.6641V11.998H11.6641ZM4.66406 11.998V18.998H9.66406V11.998H4.66406ZM11.6641 7.99805V9.99805H18.6641V7.99805H11.6641ZM2.66406 7.99805V9.99805H9.66406V7.99805H2.66406ZM13.6641 3.99805C12.3959 3.99805 11.9378 5.2518 11.7778 5.99805H13.6641C13.9293 5.99805 14.1836 5.89269 14.3712 5.70515C14.5587 5.51762 14.6641 5.26326 14.6641 4.99805C14.6641 4.73283 14.5587 4.47848 14.3712 4.29094C14.1836 4.1034 13.9293 3.99805 13.6641 3.99805ZM6.91406 2.99805C6.51624 2.99805 6.13471 3.15608 5.8534 3.43739C5.5721 3.71869 5.41406 4.10022 5.41406 4.49805C5.41406 4.89587 5.5721 5.2774 5.8534 5.55871C6.13471 5.84001 6.51624 5.99805 6.91406 5.99805H9.57656C9.27719 4.12305 8.28281 2.99805 6.91406 2.99805Z" fill="white"/>
</svg>
