<svg width="20" height="20" viewBox="0 0 20 20" fill="none" xmlns="http://www.w3.org/2000/svg">
<path d="M12.5777 0C8.48505 0 5.15546 3.3296 5.15546 7.42228C5.15546 8.83419 5.55185 10.1552 6.23899 11.2801C2.34362 14.3418 1.91325 14.772 1.76812 14.9171L0.685409 15.9998C-0.228469 16.9137 -0.228469 18.4007 0.685409 19.3146C1.14235 19.7715 1.74258 20 2.34276 20C2.94295 20 3.54318 19.7715 4.00012 19.3146L5.08284 18.2319C5.22714 18.0876 5.65857 17.656 8.70214 13.7499C9.83091 14.4438 11.1583 14.8446 12.5777 14.8446C13.693 14.8446 14.7654 14.6031 15.7654 14.1269C16.155 13.9414 16.3204 13.4752 16.1348 13.0856C15.9493 12.696 15.4831 12.5305 15.0935 12.7162C14.3051 13.0916 13.4587 13.282 12.5777 13.282C9.3467 13.282 6.71804 10.6533 6.71804 7.42228C6.71804 4.19125 9.3467 1.56259 12.5777 1.56259C15.8088 1.56259 18.4374 4.19125 18.4374 7.42228C18.4374 8.48058 18.1525 9.51736 17.6135 10.4205C17.3923 10.791 17.5134 11.2707 17.884 11.4918C18.2545 11.7129 18.7341 11.5918 18.9553 11.2213C19.6388 10.0761 20.0001 8.76247 20.0001 7.42228C20 3.3296 16.6704 0 12.5777 0ZM3.97797 17.127L2.89526 18.2097C2.59063 18.5143 2.09498 18.5143 1.79035 18.2097C1.48573 17.905 1.48573 17.4094 1.79035 17.1048L2.87307 16.0221C3.06667 15.8285 3.89031 15.1139 7.18893 12.5209C7.27819 12.6152 7.3698 12.7073 7.46383 12.7969C4.87943 16.1135 4.16986 16.9351 3.97797 17.127ZM16.5213 5.71305C16.693 6.10889 16.5114 6.56899 16.1155 6.7408C16.0143 6.78475 15.9087 6.80553 15.8049 6.80553C15.5031 6.80553 15.2157 6.62958 15.0878 6.33503C14.6536 5.33435 13.6683 4.68776 12.5777 4.68776C12.1462 4.68776 11.7964 4.33797 11.7964 3.90646C11.7964 3.47496 12.1462 3.12517 12.5777 3.12517C14.2912 3.12517 15.8391 4.14097 16.5213 5.71305Z" fill="#FADB14"/>
</svg>
