<svg width="21" height="21" viewBox="0 0 21 21" fill="none" xmlns="http://www.w3.org/2000/svg">
<path d="M9.66435 20.998H8.26373C7.87916 20.9963 7.50357 20.8816 7.18359 20.6683C6.8636 20.4549 6.61329 20.1523 6.46373 19.798L3.96373 14.798C3.01154 14.5546 2.16871 13.9984 1.57042 13.2186C0.972125 12.4389 0.653045 11.4808 0.664353 10.498C0.661872 9.9064 0.776575 9.32013 1.00184 8.77304C1.22711 8.22596 1.55848 7.72889 1.97684 7.31054C2.3952 6.89218 2.89226 6.5608 3.43935 6.33554C3.98643 6.11027 4.57271 5.99557 5.16435 5.99805H10.6644C12.4257 5.91848 14.1542 5.49377 15.7519 4.74805C17.6019 3.89992 18.6644 2.89805 18.6644 1.99805C18.6644 1.73283 18.7697 1.47848 18.9572 1.29094C19.1448 1.1034 19.3991 0.998047 19.6644 0.998047C19.9296 0.998047 20.1839 1.1034 20.3715 1.29094C20.559 1.47848 20.6644 1.73283 20.6644 1.99805V18.998C20.6484 19.258 20.5379 19.5032 20.3537 19.6874C20.1695 19.8716 19.9243 19.9821 19.6644 19.998C19.4055 19.9788 19.1622 19.8673 18.9786 19.6838C18.7951 19.5002 18.6836 19.2569 18.6644 18.998C18.6644 18.1718 17.8212 17.2799 16.2894 16.4862C14.8433 15.7501 13.2767 15.2799 11.6644 15.098V18.998C11.6644 19.5285 11.4536 20.0372 11.0786 20.4123C10.7035 20.7873 10.1948 20.998 9.66435 20.998ZM6.26435 14.998L8.3156 18.998H9.66435V14.998H6.26435ZM18.6644 5.29805C16.5851 6.73658 14.1784 7.63092 11.6644 7.8993V12.998C12.6887 13.1449 16.2269 13.7687 18.6644 15.598V5.29805ZM5.16435 7.99805C4.50131 7.99805 3.86543 8.26144 3.39659 8.73028C2.92775 9.19912 2.66435 9.83501 2.66435 10.498C2.66435 11.1611 2.92775 11.797 3.39659 12.2658C3.86543 12.7347 4.50131 12.998 5.16435 12.998H9.66435V7.99805H5.16435Z" fill="white"/>
</svg>
