<svg width="24" height="24" viewBox="0 0 24 24" fill="none" xmlns="http://www.w3.org/2000/svg">
<path d="M15.5441 3.70703V5.34367C17.1837 6.11832 18.509 7.43036 19.3002 9.06203C20.0914 10.6937 20.3008 12.5469 19.8936 14.3139C19.4602 16.0802 18.4469 17.6501 17.0158 18.7725C15.5848 19.8948 13.8186 20.5048 11.9999 20.5048C10.1812 20.5048 8.41508 19.8948 6.98401 18.7725C5.55295 17.6501 4.53965 16.0802 4.10622 14.3139C3.69912 12.5468 3.9086 10.6936 4.69988 9.0619C5.49117 7.43022 6.81667 6.11822 8.45636 5.34367V3.70703C6.38697 4.50041 4.66202 5.9955 3.58273 7.93121C2.50344 9.86692 2.1384 12.1202 2.55135 14.2977C2.98805 16.4784 4.16958 18.4393 5.89347 19.8444C7.61735 21.2495 9.77626 22.0113 12.0002 21.9993C14.2242 22.0113 16.3831 21.2495 18.107 19.8444C19.8309 18.4393 21.0124 16.4784 21.4491 14.2977C21.862 12.1202 21.497 9.86692 20.4177 7.93121C19.3384 5.9955 17.6135 4.50041 15.5441 3.70703V3.70703Z" fill="#FE5656"/>
<path d="M11.3472 3.12436V12.8949C11.3472 13.4962 11.6237 14.0253 12.2491 14.0253C12.8744 14.0253 13.151 13.5202 13.151 12.9009V3.12436C13.151 2.5231 12.8744 2 12.2491 2C11.6237 2 11.3472 2.49905 11.3472 3.12436Z" fill="#FE5656"/>
</svg>
