<svg width="20" height="20" viewBox="0 0 20 20" fill="none" xmlns="http://www.w3.org/2000/svg">
<path d="M6.52344 8.82812H2.92969C2.60609 8.82812 2.34375 9.09047 2.34375 9.41406C2.34375 9.73766 2.60609 10 2.92969 10H6.52344C6.84703 10 7.10938 9.73766 7.10938 9.41406C7.10938 9.09047 6.84703 8.82812 6.52344 8.82812Z" fill="#20D569"/>
<path d="M6.52344 11.1719H2.92969C2.60609 11.1719 2.34375 11.4342 2.34375 11.7578C2.34375 12.0814 2.60609 12.3438 2.92969 12.3438H6.52344C6.84703 12.3438 7.10938 12.0814 7.10938 11.7578C7.10938 11.4342 6.84703 11.1719 6.52344 11.1719Z" fill="#20D569"/>
<path d="M17.6562 8.83109C17.6562 8.62191 17.6562 2.72387 17.6562 2.38281C17.6562 1.41355 16.8677 0.625 15.8984 0.625H1.75781C0.788555 0.625 0 1.41355 0 2.38281C0 2.80215 0 12.4742 0 12.9297C0 13.8989 0.788555 14.6875 1.75781 14.6875H8.39906C8.94344 17.3587 11.311 19.375 14.1406 19.375C17.3715 19.375 20 16.7465 20 13.5156C20 11.6027 19.0785 9.90117 17.6562 8.83109ZM1.17188 2.38281C1.17188 2.05973 1.43473 1.79688 1.75781 1.79688H15.8984C16.2215 1.79688 16.4844 2.05973 16.4844 2.38281V2.96875H1.17188V2.38281ZM1.17188 4.14062H16.4844V5.3125H1.17188V4.14062ZM8.28125 13.5156H1.75781C1.43473 13.5156 1.17188 13.2528 1.17188 12.9297V6.48438H16.4844V8.14602C15.7662 7.83133 14.9736 7.65625 14.1406 7.65625C10.9098 7.65625 8.28125 10.2848 8.28125 13.5156ZM14.1406 18.2031C11.5559 18.2031 9.45312 16.1003 9.45312 13.5156C9.45312 10.9309 11.5559 8.82812 14.1406 8.82812C16.7253 8.82812 18.8281 10.9309 18.8281 13.5156C18.8281 16.1003 16.7253 18.2031 14.1406 18.2031Z" fill="#20D569"/>
<path d="M16.8987 11.9294C16.6699 11.7006 16.2989 11.7006 16.0701 11.9295L13.5547 14.4448L12.2112 13.1013C11.9824 12.8725 11.6114 12.8725 11.3826 13.1013C11.1537 13.3302 11.1537 13.7011 11.3826 13.93L13.1404 15.6878C13.2548 15.8022 13.4047 15.8594 13.5547 15.8594C13.7047 15.8594 13.8546 15.8022 13.969 15.6877L16.8987 12.7581C17.1275 12.5292 17.1275 12.1583 16.8987 11.9294Z" fill="#20D569"/>
</svg>
