<svg width="20" height="20" viewBox="0 0 20 20" fill="none" xmlns="http://www.w3.org/2000/svg">
<path d="M16.3054 0H3.69629C3.05176 0 2.52734 0.524375 2.52734 1.16895V9.06992C2.52734 9.23172 2.65852 9.36289 2.82031 9.36289C2.98211 9.36289 3.11328 9.23172 3.11328 9.06992V1.16895C3.11328 0.847461 3.3748 0.585938 3.69629 0.585938H16.3054C16.6269 0.585938 16.8884 0.847461 16.8884 1.16895V15.2911C16.8884 15.3232 16.8868 15.3551 16.8842 15.3867H13.8541C13.1858 15.3867 12.642 15.9304 12.642 16.5988V19.4099C12.6104 19.4125 12.5786 19.4141 12.5464 19.4141H3.69629C3.37484 19.4141 3.11328 19.1526 3.11328 18.8311V10.2418C3.11328 10.08 2.98211 9.94883 2.82031 9.94883C2.65852 9.94883 2.52734 10.08 2.52734 10.2418V18.8311C2.52734 19.4756 3.05172 20 3.69629 20H12.5465C13.0073 20 13.4407 19.8212 13.7673 19.4965L16.9596 16.5229C16.9622 16.5205 16.9647 16.5181 16.9671 16.5157C17.2942 16.1886 17.4744 15.7536 17.4744 15.291V1.16895C17.4744 0.524375 16.95 0 16.3054 0V0ZM13.3643 19.0712C13.3617 19.0736 13.3592 19.076 13.3568 19.0784C13.3162 19.119 13.2732 19.1561 13.228 19.1897V16.5988C13.228 16.2535 13.5089 15.9727 13.8541 15.9727H16.6639C16.6313 16.0166 16.5954 16.0584 16.5562 16.098L13.3643 19.0712Z" fill="#FE5656"/>
<path d="M14.6038 11.1943C14.8744 10.7255 14.8744 10.1657 14.6038 9.69688L11.2959 3.96746C11.0252 3.49867 10.5404 3.21875 9.99909 3.21875C9.45776 3.21875 8.97296 3.49867 8.7023 3.96746L5.3944 9.69688C5.12374 10.1657 5.12374 10.7255 5.3944 11.1943C5.66507 11.6631 6.14983 11.943 6.6912 11.943H8.00167C8.16347 11.943 8.29464 11.8118 8.29464 11.65C8.29464 11.4882 8.16347 11.3571 8.00167 11.3571H6.6912C6.36167 11.3571 6.06659 11.1867 5.90183 10.9013C5.73706 10.6159 5.73706 10.2752 5.90183 9.98984L9.20972 4.26043C9.37448 3.97508 9.66956 3.80469 9.99909 3.80469C10.3286 3.80469 10.6237 3.97508 10.7885 4.26043L14.0964 9.98984C14.2611 10.2752 14.2611 10.6159 14.0964 10.9013C13.9316 11.1867 13.6365 11.3571 13.307 11.3571H9.35167C9.18987 11.3571 9.0587 11.4882 9.0587 11.65C9.0587 11.8118 9.18987 11.943 9.35167 11.943H13.307C13.8483 11.943 14.3331 11.6631 14.6038 11.1943Z" fill="#FE5656"/>
<path d="M10.0628 10.7818C10.6154 10.7818 11.065 10.3322 11.065 9.77957C11.065 9.22695 10.6154 8.77734 10.0628 8.77734C9.51015 8.77734 9.06055 9.22695 9.06055 9.77957C9.06055 10.3322 9.51015 10.7818 10.0628 10.7818ZM10.0628 9.36328C10.2923 9.36328 10.4791 9.55004 10.4791 9.77957C10.4791 10.0091 10.2923 10.1959 10.0628 10.1959C9.83324 10.1959 9.64648 10.0091 9.64648 9.77957C9.64648 9.55004 9.83324 9.36328 10.0628 9.36328Z" fill="#FE5656"/>
<path d="M9.92867 8.37707H10.1982C10.5821 8.37707 10.8944 8.06473 10.8944 7.68078V6.18844C10.8944 5.80453 10.5821 5.49219 10.1982 5.49219H9.92867C9.54476 5.49219 9.23242 5.80453 9.23242 6.18844V7.68078C9.23238 8.06473 9.54472 8.37707 9.92867 8.37707ZM9.81831 6.18844C9.81831 6.12762 9.86781 6.07813 9.92863 6.07813H10.1981C10.2589 6.07813 10.3084 6.12762 10.3084 6.18844V7.68078C10.3084 7.74164 10.2589 7.79113 10.1981 7.79113H9.92863C9.86781 7.79113 9.81831 7.74164 9.81831 7.68078V6.18844Z" fill="#FE5656"/>
<path d="M13.9103 13.4902C13.9103 13.3284 13.7792 13.1973 13.6174 13.1973H6.38281C6.22102 13.1973 6.08984 13.3284 6.08984 13.4902C6.08984 13.652 6.22102 13.7832 6.38281 13.7832H13.6174C13.7792 13.7832 13.9103 13.652 13.9103 13.4902Z" fill="#FE5656"/>
<path d="M6.38281 14.4473C6.22102 14.4473 6.08984 14.5784 6.08984 14.7402C6.08984 14.902 6.22102 15.0332 6.38281 15.0332H9.52383C9.68563 15.0332 9.8168 14.902 9.8168 14.7402C9.8168 14.5784 9.68563 14.4473 9.52383 14.4473H6.38281Z" fill="#FE5656"/>
</svg>
