<svg width="25" height="25" viewBox="0 0 25 25" fill="none" xmlns="http://www.w3.org/2000/svg">
<path d="M12.3356 3.85938C11.54 3.85938 10.7769 4.17545 10.2143 4.73805C9.65169 5.30066 9.33562 6.06373 9.33562 6.85938V10.8594C9.33562 11.655 9.65169 12.4181 10.2143 12.9807C10.7769 13.5433 11.54 13.8594 12.3356 13.8594C13.1313 13.8594 13.8943 13.5433 14.4569 12.9807C15.0196 12.4181 15.3356 11.655 15.3356 10.8594V6.85938C15.3356 6.06373 15.0196 5.30066 14.4569 4.73805C13.8943 4.17545 13.1313 3.85938 12.3356 3.85938ZM12.3356 1.85938C12.9922 1.85938 13.6424 1.9887 14.249 2.23998C14.8557 2.49125 15.4069 2.85955 15.8712 3.32384C16.3355 3.78813 16.7037 4.33933 16.955 4.94596C17.2063 5.55259 17.3356 6.20277 17.3356 6.85938V10.8594C17.3356 12.1855 16.8088 13.4572 15.8712 14.3949C14.9335 15.3326 13.6617 15.8594 12.3356 15.8594C11.0095 15.8594 9.73777 15.3326 8.80009 14.3949C7.86241 13.4572 7.33562 12.1855 7.33562 10.8594V6.85938C7.33562 5.53329 7.86241 4.26152 8.80009 3.32384C9.73777 2.38616 11.0095 1.85938 12.3356 1.85938ZM3.39062 11.8594H5.40563C5.64792 13.5242 6.48149 15.0461 7.75386 16.1466C9.02622 17.2472 10.6523 17.8529 12.3346 17.8529C14.0169 17.8529 15.643 17.2472 16.9154 16.1466C18.1878 15.0461 19.0213 13.5242 19.2636 11.8594H21.2796C21.0523 13.8881 20.1422 15.7793 18.6988 17.2229C17.2554 18.6665 15.3643 19.5767 13.3356 19.8044V23.8594H11.3356V19.8044C9.30676 19.577 7.41541 18.6668 5.9718 17.2232C4.52819 15.7796 3.61804 13.8882 3.39062 11.8594Z" fill="#1894FF"/>
</svg>
