<svg width="48" height="48" viewBox="0 0 48 48" fill="none" xmlns="http://www.w3.org/2000/svg">
<path d="M11.1107 30.5501L8.5876 46.0348C8.54294 46.3117 8.57699 46.5955 8.68587 46.854C8.79475 47.1125 8.97408 47.3351 9.20339 47.4966C9.43271 47.6581 9.7028 47.7519 9.98284 47.7672C10.2629 47.7826 10.5416 47.719 10.7872 47.5836L23.9222 40.3229L37.0605 47.5855C37.3061 47.7209 37.5848 47.7845 37.8648 47.7692C38.1449 47.7538 38.415 47.66 38.6443 47.4986C38.8736 47.3371 39.0529 47.1144 39.1618 46.856C39.2707 46.5975 39.3047 46.3136 39.2601 46.0367L36.737 30.552L47.4194 19.5985C47.6114 19.402 47.7455 19.1563 47.807 18.8885C47.8685 18.6208 47.8551 18.3412 47.7682 18.0805C47.6814 17.8199 47.5243 17.5882 47.3145 17.4109C47.1046 17.2336 46.8499 17.1175 46.5784 17.0754L31.8668 14.8299L25.2737 0.786566C25.1377 0.547698 24.9409 0.34909 24.7033 0.210934C24.4657 0.0727775 24.1958 0 23.9209 0C23.6461 0 23.3761 0.0727775 23.1385 0.210934C22.9009 0.34909 22.7041 0.547698 22.5682 0.786566L15.9777 14.8279L1.26802 17.0748C0.996249 17.1165 0.741236 17.2323 0.531046 17.4095C0.320855 17.5868 0.163637 17.8186 0.0766905 18.0794C-0.0102556 18.3402 -0.0235585 18.62 0.0382458 18.8879C0.10005 19.1558 0.234566 19.4015 0.426989 19.5979L11.1107 30.5501Z" fill="#FADB14"/>
</svg>
