<svg width="33" height="33" viewBox="0 0 33 33" fill="none" xmlns="http://www.w3.org/2000/svg">
<g opacity="0.3" clip-path="url(#clip0_5646_4413)">
<path d="M6.33505 25.6887L5.74272 25.5439L0.237549 31.076L0.904381 31.746V31.7461L4.32047 28.9451L6.40955 26.214L6.33505 25.6887Z" fill="#1894FF"/>
<path d="M0.904297 31.746L1.57113 32.4161L7.0763 26.8841L6.99513 26.1309L6.40947 26.2139L0.904297 31.746Z" fill="#2361B5"/>
<path d="M22.8312 9.00147L23.7475 7.45091L21.0802 4.77051L17.7458 8.12112L18.4553 10.0977L20.4135 10.8018L22.8312 9.00147Z" fill="#1894FF"/>
<path d="M21.7471 12.1416L22.4521 14.1137L24.4147 14.8222L27.749 11.4717L25.0814 8.79102L23.2242 10.0596L21.7471 12.1416Z" fill="#1894FF"/>
<path d="M27.0818 4.10059L20.4132 10.8018L20.053 11.7035L21.08 11.472L25.0472 8.11717L27.7487 4.77073L27.5032 4.22764L27.0818 4.10059Z" fill="#596C76"/>
<path d="M21.0807 11.4717L20.7976 12.4508L21.7476 12.1418L28.4163 5.44053L28.2938 4.93162L27.7494 4.77051L21.0807 11.4717Z" fill="#3E4F55"/>
<path d="M21.0802 11.4716L17.746 8.12109L15.0783 10.8018L15.0403 12.1036L13.7448 12.1419L12.4106 13.4819L12.3726 14.7837L11.0771 14.8219L8.2522 17.6607L9.43861 20.1164L11.5867 21.0114L16.7063 16.4985L21.0802 11.4716Z" fill="#2361B5"/>
<path d="M11.5869 21.0115L12.4322 23.1246L14.9214 24.3622L24.4146 14.822L21.0804 11.4717L11.5869 21.0115Z" fill="#2361B5"/>
<path d="M11.5874 21.0119L8.25288 17.6611L6.91934 21.6818L5.74292 22.864L6.19315 24.5801L7.74354 24.8744L9.93769 23.3014L11.5874 21.0119Z" fill="#77D4F5"/>
<path d="M7.74292 24.8743L8.03578 26.4322L9.74348 26.8847L10.92 25.7025L14.9212 24.3625L11.5867 21.0117L7.74292 24.8743Z" fill="#69B4F4"/>
<path d="M7.74328 24.8746L5.74266 22.8643L4.40918 24.2042L6.4098 26.2146L7.27575 25.9762L7.74328 24.8746Z" fill="#69B4F4"/>
<path d="M6.40649 26.2119L7.73972 24.8722L9.74003 26.8822L8.4068 28.222L6.40649 26.2119Z" fill="#6989F4"/>
<path d="M26.4155 0.75L25.0818 2.09023L27.7492 4.77076L29.0896 4.68736L29.083 3.43053L26.4155 0.75Z" fill="#00DE9A"/>
<path d="M27.7458 4.77344L29.0794 3.4334L31.7465 6.11348L30.4129 7.45352L27.7458 4.77344Z" fill="#00DE9A"/>
<path d="M22.5849 22.4931C22.4449 23.9462 20.9717 24.3414 20.7092 24.5267V27.9555L23.3813 28.5873L25.4247 27.9555L26.0534 24.9084L25.4247 22.4931L23.9 21.8613L22.5849 22.4931Z" fill="#1894FF"/>
<path d="M25.4246 22.4931V27.9556L27.5937 28.5874L30.14 27.9556V24.5268C29.8811 24.344 28.4044 23.9468 28.2644 22.4931L26.8706 21.8613L25.4246 22.4931Z" fill="#2361B5"/>
<path d="M20.7092 20.5977V22.493H25.4247L26.0534 21.5454L25.4247 20.5977H20.7092Z" fill="#596C76"/>
<path d="M25.4246 20.5977H30.14V22.493H25.4246V20.5977Z" fill="#3E4F55"/>
<path d="M25.4247 27.9551H20.7092V30.7982L23.3813 31.43L25.4247 30.7982L26.0534 29.3766L25.4247 27.9551Z" fill="#00DE9A"/>
<path d="M25.4246 27.9551V30.7982L27.7823 31.43L30.14 30.7982V27.9551H25.4246Z" fill="#00DE9A"/>
<path d="M20.7092 30.7988V32.6942H25.4247L26.0534 31.7465L25.4247 30.7988H20.7092Z" fill="#00DE9A"/>
<path d="M25.4246 30.7988H30.14V32.6942H25.4246V30.7988Z" fill="#00DE9A"/>
<path d="M13.7424 12.1426L15.0758 10.8027L17.7427 13.4826L16.4093 14.8225L13.7424 12.1426Z" fill="white"/>
<path d="M12.4104 13.4824L11.0769 14.8225L13.7443 17.5034L15.0783 16.1628L12.4104 13.4824Z" fill="white"/>
</g>
<defs>
<clipPath id="clip0_5646_4413">
<rect width="31.5429" height="32" fill="white" transform="translate(0.603516 0.75)"/>
</clipPath>
</defs>
</svg>
