<svg width="110" height="161" viewBox="0 0 110 161" fill="none" xmlns="http://www.w3.org/2000/svg">
<path d="M30.698 28.3438C30.698 28.3438 2.58439 32.3005 0.560059 63.8633L19.9815 68.4796L30.698 28.3438Z" fill="#1894FF"/>
<path d="M31.0722 28.2723C31.0722 28.2723 2.66705 31.8228 0.0798143 63.9329L19.5755 68.9677L31.0722 28.2723Z" fill="#E6F3FF"/>
<path d="M2.21579 64.2715C2.21579 64.2715 -6.4101 96.3285 13.1501 96.3881L19.5801 79.8996L16.3548 67.6462L2.21579 64.2715Z" fill="#F4A28C"/>
<path opacity="0.31" d="M2.21579 64.2715C2.21579 64.2715 -6.4101 96.3285 13.1501 96.3881L19.5801 79.8996L16.3548 67.6462L2.21579 64.2715Z" fill="#CE8172"/>
<path d="M37.8534 154.23C37.8534 154.23 36.8312 157.107 34.2393 157.33C31.6473 157.553 30.9421 160.1 33.3095 160.752C35.677 161.405 41.6452 158.385 41.6452 158.385L41.467 154.646L37.8534 154.23Z" fill="#1894FF"/>
<path d="M75.8486 153.788C75.8486 153.788 76.8707 156.665 79.4627 156.894C82.0546 157.124 82.727 159.657 80.3924 160.31C78.0578 160.963 72.05 157.947 72.05 157.947L72.2344 154.202L75.8486 153.788Z" fill="#1894FF"/>
<path d="M56.7277 11.3159L55.0989 9.71331C54.822 7.99871 54.4856 6.70635 54.4856 6.70635C53.8923 3.798 49.3217 2.38698 46.9409 4.78731C46.2622 5.38796 45.7876 6.18524 45.5831 7.06822C45.3786 7.9512 45.4545 8.87596 45.8001 9.71382L47.9369 13.669C48.8933 16.1089 51.1026 16.808 52.7653 16.9662C53.0849 16.9933 53.4067 16.9571 53.7123 16.8597C54.0179 16.7624 54.3013 16.6057 54.5462 16.3987C54.7912 16.1917 54.993 15.9384 55.14 15.6533C55.287 15.3683 55.3763 15.057 55.403 14.7374C55.4395 14.162 55.4395 13.5849 55.403 13.0095L56.4185 12.6335C56.5506 12.5947 56.6702 12.5215 56.7648 12.4214C56.8595 12.3213 56.9258 12.1979 56.9572 12.0638C56.9885 11.9297 56.9837 11.7896 56.9432 11.6579C56.9027 11.5263 56.828 11.4077 56.7267 11.3144L56.7277 11.3159Z" fill="#F4A28C"/>
<path d="M46.0706 11.4805L44.7449 27.3526L53.5423 27.4579L51.0362 16.1543L46.0706 11.4805Z" fill="#F4A28C"/>
<path d="M43.0369 7.00229C44.6806 7.83339 44.9097 9.8644 45.3386 11.6186L45.8594 13.8016C46.6119 13.9559 47.3945 13.8426 48.0724 13.4814C48.7502 13.1201 49.2807 12.5336 49.5722 11.823C49.9497 10.996 50.0267 10.0631 49.79 9.18535C49.7316 8.98536 49.7184 8.77489 49.7514 8.56919C49.7844 8.36348 49.8628 8.16769 49.9808 7.996C50.0988 7.82431 50.2535 7.68101 50.4337 7.57648C50.6139 7.47196 50.8151 7.40882 51.0227 7.39165L51.748 7.31922C52.6881 7.20346 53.5899 6.87648 54.3857 6.36279V6.36279L54.1288 2.93359" fill="black"/>
<path d="M50.0602 11.6523C50.0602 11.6523 49.717 9.81237 48.3522 10.1884C46.9874 10.5644 47.4749 13.222 49.4006 13.1558L50.0602 11.6523Z" fill="#F4A28C"/>
<path opacity="0.31" d="M51.142 16.4794C50.0818 16.2768 49.0969 15.789 48.2933 15.0684C48.2933 15.0684 47.68 18.5042 51.8612 19.6846L51.142 16.4794Z" fill="#CE8172"/>
<path d="M32.0166 28.0336C32.0166 28.0336 54.8082 21.1881 78.0359 30.8495C101.264 40.5109 65.9742 102.613 65.9742 102.613H30.3878C30.3878 102.613 -2.59891 35.023 32.0166 28.0336Z" fill="#E6F3FF"/>
<path d="M53.0802 11.4807H57.1951L55.4559 17.3169L48.3535 13.3617V12.8388L50.5561 14.0059C50.6864 14.0767 50.833 14.1119 50.9812 14.108C51.1295 14.1042 51.2741 14.0613 51.4005 13.9837C51.5268 13.9062 51.6306 13.7967 51.7012 13.6663C51.7718 13.5359 51.8068 13.3893 51.8027 13.241V13.241C51.7848 12.8417 51.6587 12.4547 51.4381 12.1214C51.2175 11.788 50.9105 11.5208 50.5499 11.3482L49.8904 11.0184L49.3367 10.3193L50.7282 10.9789C51.4683 11.3093 52.2697 11.4803 53.0802 11.4807V11.4807Z" fill="#1894FF"/>
<path opacity="0.08" d="M36.2375 43.5439H44.6857L48.7148 68.1554H37.781C37.781 68.1554 33.2177 88.4209 48.9922 102.613H30.3879C30.3879 102.613 20.6541 78.9577 18.8275 70.5229L17.9702 52.2489L36.2375 43.5439Z" fill="#2361B5"/>
<path d="M44.8633 25.9152L49.1431 33.8287L53.1527 25.7169C50.4065 25.198 47.5816 25.2654 44.8633 25.9147V25.9152Z" fill="#F4A28C"/>
<path d="M13.8555 37.293H34.7013L37.7833 61.456H17.2318L13.8555 37.293Z" fill="#1894FF"/>
<path opacity="0.08" d="M20.483 51.0625C21.6667 51.2804 22.7643 51.83 23.6481 52.6472C24.5318 53.4644 25.1654 54.5156 25.4752 55.6788C26.7414 59.8795 37.293 57.4529 37.293 57.4529L37.801 61.4559L18.9204 61.3963L20.483 51.0625Z" fill="black"/>
<path d="M19.7642 35.4658L20.6887 39.1128H28.3176L27.6185 35.4658H19.7642Z" fill="#2361B5"/>
<path d="M15.6824 58.712C15.6824 58.712 12.4977 52.5789 17.153 50.3697C21.8083 48.1604 22.8176 56.4499 18.8994 61.3959L15.6824 58.712Z" fill="#F4A28C"/>
<path d="M45.3384 11.6521C45.3384 11.6521 48.1938 8.01846 54.5709 7.12829C54.5709 7.12829 57.0503 3.54089 53.8584 1.01574C50.6666 -1.50942 43.0829 1.05529 41.3282 4.53071C40.3461 6.4821 39.6804 11.6916 45.3384 11.6521Z" fill="#1894FF"/>
<path d="M15.7282 57.4727C15.7282 57.4727 -1.34683 92.4246 10.5516 96.2694C22.45 100.114 19.6721 60.7698 19.6721 60.7698L15.7282 57.4727Z" fill="#F4A28C"/>
<path d="M66.6855 38.2896C69.864 31.6948 78.5562 30.0793 84.1499 34.8276C91.9976 41.5278 106.454 60.1248 109.091 77.8979C113.272 106.038 73.2619 108.675 73.2619 108.675L71.9428 102.522C71.9428 102.522 98.1908 95.9274 90.6719 77.4624C84.6559 62.6885 61.2972 49.4597 66.6855 38.2896Z" fill="#F4A28C"/>
<path d="M66.5537 36.1323C66.5537 36.1323 73.4784 27.6713 82.2753 32.7226C91.0723 37.7739 102.581 56.3602 102.581 56.3602L83.1542 70.3831C83.1542 70.3831 54.9075 46.2411 66.5537 36.1323Z" fill="#1894FF"/>
<path d="M66.0074 35.6508C66.0074 35.6508 73.1596 26.9114 82.2463 32.1292C91.3329 37.3469 103.219 56.5419 103.219 56.5419L83.1524 71.0302C83.1524 71.0302 53.9785 46.093 66.0074 35.6508Z" fill="#E6F3FF"/>
<path d="M65.9537 102.613H30.3884L36.3315 155.055H43.0383L48.9454 112.572L71.0641 155.055H77.659L65.9537 102.613Z" fill="#E6F3FF"/>
<path d="M71.9416 102.521C71.9416 102.521 60.2887 105.12 63.738 109.736C67.1872 114.353 73.2607 108.675 73.2607 108.675L71.9416 102.521Z" fill="#F4A28C"/>
<path d="M40.3488 37.345C40.2892 36.9561 39.0297 27.776 44.965 25.0654V25.9094C39.5202 28.4088 41.0099 37.1205 41.0099 37.2392L40.3488 37.345Z" fill="#1894FF"/>
<path d="M56.6549 45.3247L55.9953 45.186C59.4369 28.4289 53.0803 25.7183 53.0161 25.6921V24.9668C53.3181 25.0721 60.2161 28.0071 56.6549 45.3247Z" fill="#1894FF"/>
<path d="M60.4406 54.8802L59.1564 54.5638C59.1564 54.5176 60.251 49.9475 58.6089 47.6807C58.3403 47.3157 57.9911 47.0175 57.5885 46.8093C57.186 46.6011 56.7408 46.4885 56.2877 46.4803C55.8351 46.4237 55.3757 46.468 54.9424 46.6101C54.509 46.7522 54.1126 46.9886 53.7815 47.3022C51.7109 49.2808 51.902 54.0419 51.902 54.0881L50.5829 54.1477C50.5829 53.9299 50.3652 48.7861 52.8579 46.3591C53.3268 45.9095 53.889 45.5688 54.5045 45.3613C55.1201 45.1538 55.7738 45.0846 56.4191 45.1587C57.0646 45.1804 57.6968 45.3483 58.2679 45.6499C58.8391 45.9514 59.3343 46.3787 59.7163 46.8995C61.6934 49.6506 60.4868 54.6624 60.4406 54.8802Z" fill="#1894FF"/>
<path d="M56.4968 46.9809C57.1816 46.9809 57.7368 46.4258 57.7368 45.741C57.7368 45.0561 57.1816 44.501 56.4968 44.501C55.812 44.501 55.2568 45.0561 55.2568 45.741C55.2568 46.4258 55.812 46.9809 56.4968 46.9809Z" fill="#2361B5"/>
<path d="M40.7947 40.0894C42.1133 40.0894 43.1822 39.0205 43.1822 37.7019C43.1822 36.3834 42.1133 35.3145 40.7947 35.3145C39.4761 35.3145 38.4072 36.3834 38.4072 37.7019C38.4072 39.0205 39.4761 40.0894 40.7947 40.0894Z" fill="#1894FF"/>
<path d="M40.7947 39.06C41.545 39.06 42.1533 38.4518 42.1533 37.7014C42.1533 36.9511 41.545 36.3428 40.7947 36.3428C40.0443 36.3428 39.436 36.9511 39.436 37.7014C39.436 38.4518 40.0443 39.06 40.7947 39.06Z" fill="#2361B5"/>
<path d="M53.2452 60.7305C50.4426 59.3323 50.8577 52.9357 50.8777 52.666L51.5373 52.7122C51.5373 52.778 51.1263 58.9378 53.5159 60.1444L53.2452 60.7305Z" fill="#1894FF"/>
<path d="M53.628 61.3898C54.2399 61.3898 54.7359 60.8937 54.7359 60.2818C54.7359 59.6699 54.2399 59.1738 53.628 59.1738C53.0161 59.1738 52.52 59.6699 52.52 60.2818C52.52 60.8937 53.0161 61.3898 53.628 61.3898Z" fill="#2361B5"/>
<path d="M56.8659 60.6171L56.6548 59.9971C59.2133 59.1465 59.6951 52.9866 59.7013 52.9209L60.3608 52.9723C60.3346 53.2389 59.84 59.636 56.8659 60.6171Z" fill="#1894FF"/>
<path d="M56.5562 61.2316C57.1681 61.2316 57.6642 60.7355 57.6642 60.1236C57.6642 59.5117 57.1681 59.0156 56.5562 59.0156C55.9443 59.0156 55.4482 59.5117 55.4482 60.1236C55.4482 60.7355 55.9443 61.2316 56.5562 61.2316Z" fill="#2361B5"/>
</svg>
