<svg width="65" height="64" viewBox="0 0 65 64" fill="none" xmlns="http://www.w3.org/2000/svg">
<g clip-path="url(#clip0_6141_16674)">
<path d="M7.07568 25.9414H22.1799V53.0247H7.07568V25.9414Z" fill="#1894FF"/>
<path d="M5.66943 24.3789H22.1799V27.5039H5.66943V24.3789Z" fill="#00DE9A"/>
<path d="M20.6172 18.459H57.5964V53.0246H20.6172V18.459Z" fill="#F0F7FF"/>
<path d="M39.1069 18.459H57.5965V53.0246H39.1069V18.459Z" fill="#D7E9FC"/>
<path d="M19.2109 16.8965H59.0026V20.0215H19.2109V16.8965Z" fill="#00DE9A"/>
<path d="M39.1069 16.8965H59.0028V20.0215H39.1069V16.8965Z" fill="#00DE9A"/>
<path d="M13.8467 31.1504H16.9717V34.2754H13.8467V31.1504Z" fill="#F0F7FF"/>
<path d="M13.8467 37.9219H16.9717V41.0469H13.8467V37.9219Z" fill="#F0F7FF"/>
<path d="M13.8467 44.6914H16.9717V47.8164H13.8467V44.6914Z" fill="#F0F7FF"/>
<path d="M40.9297 37.9219H44.0547V41.0469H40.9297V37.9219Z" fill="#7EBCF2"/>
<path d="M47.7007 37.9219H50.8257V41.0469H47.7007V37.9219Z" fill="#7EBCF2"/>
<path d="M34.1592 37.9219H37.2842V41.0469H34.1592V37.9219Z" fill="#1894FF"/>
<path d="M27.3882 37.9219H30.5132V41.0469H27.3882V37.9219Z" fill="#1894FF"/>
<path d="M47.7007 31.1504H50.8257V34.2754H47.7007V31.1504Z" fill="#7EBCF2"/>
<path d="M40.9297 31.1504H44.0547V34.2754H40.9297V31.1504Z" fill="#7EBCF2"/>
<path d="M29.3467 9.41406V27.5047H48.8675V9.41406H29.3467Z" fill="#7EBCF2"/>
<path d="M39.1069 9.41406H48.8674V27.5047H39.1069V9.41406Z" fill="#1894FF"/>
<path d="M43.6974 16.8973V20.0223H40.6692V23.0504H37.5442V20.0223H34.5161V16.8973H37.5442V13.8691H40.6692V16.8973H43.6974Z" fill="#F0F7FF"/>
<path d="M43.6976 16.8973V20.0223H40.6694V23.0504H39.1069V13.8691H40.6694V16.8973H43.6976Z" fill="#D7E9FC"/>
<path d="M34.1592 31.1504H37.2842V34.2754H34.1592V31.1504Z" fill="#1894FF"/>
<path d="M27.3882 31.1504H30.5132V34.2754H27.3882V31.1504Z" fill="#1894FF"/>
<path d="M32.4663 44.6914H45.7476V53.0247H32.4663V44.6914Z" fill="#1894FF"/>
<path d="M39.1069 44.6914H45.7476V53.0247H39.1069V44.6914Z" fill="#7EBCF2"/>
<path d="M5.66943 51.4629H59.0028V54.5879H5.66943V51.4629Z" fill="#00DE9A"/>
<path d="M32.3359 51.4629H59.0026V54.5879H32.3359V51.4629Z" fill="#00DE9A"/>
</g>
<defs>
<clipPath id="clip0_6141_16674">
<rect width="53.3333" height="53.3333" fill="white" transform="translate(5.66943 5.33398)"/>
</clipPath>
</defs>
</svg>
