<svg width="201" height="201" viewBox="0 0 201 201" fill="none" xmlns="http://www.w3.org/2000/svg">
<g clip-path="url(#clip0_6188_4452)">
<path d="M21.3965 81.5659H68.597V166.201H21.3965V81.5659Z" fill="#1894FF"/>
<path d="M17.002 76.6831H68.597V86.4487H17.002V76.6831Z" fill="#00DE9A"/>
<path d="M63.7148 58.1836H179.275V166.201H63.7148V58.1836Z" fill="#F0F7FF"/>
<path d="M121.494 58.1836H179.274V166.201H121.494V58.1836Z" fill="#D7E9FC"/>
<path d="M59.3203 53.3008H183.669V63.0664H59.3203V53.3008Z" fill="#00DE9A"/>
<path d="M121.494 53.3008H183.669V63.0664H121.494V53.3008Z" fill="#00DE9A"/>
<path d="M42.5547 97.8418H52.3203V107.608H42.5547V97.8418Z" fill="#F0F7FF"/>
<path d="M42.5547 119.001H52.3203V128.767H42.5547V119.001Z" fill="#F0F7FF"/>
<path d="M42.5547 140.16H52.3203V149.925H42.5547V140.16Z" fill="#F0F7FF"/>
<path d="M127.191 119.001H136.957V128.767H127.191V119.001Z" fill="#7EBCF2"/>
<path d="M148.35 119.001H158.115V128.767H148.35V119.001Z" fill="#7EBCF2"/>
<path d="M106.031 119.001H115.797V128.767H106.031V119.001Z" fill="#1894FF"/>
<path d="M84.873 119.001H94.6387V128.767H84.873V119.001Z" fill="#1894FF"/>
<path d="M148.35 97.8418H158.115V107.608H148.35V97.8418Z" fill="#7EBCF2"/>
<path d="M127.191 97.8418H136.957V107.608H127.191V97.8418Z" fill="#7EBCF2"/>
<path d="M90.9922 29.9155V86.4487H151.995V29.9155H90.9922Z" fill="#7EBCF2"/>
<path d="M121.494 29.9155H151.995V86.4487H121.494V29.9155Z" fill="#1894FF"/>
<path d="M135.84 53.3008V63.0664H126.377V72.5293H116.611V63.0664H107.148V53.3008H116.611V43.8379H126.377V53.3008H135.84Z" fill="#F0F7FF"/>
<path d="M135.84 53.3008V63.0664H126.377V72.5293H121.494V43.8379H126.377V53.3008H135.84Z" fill="#D7E9FC"/>
<path d="M106.031 97.8418H115.797V107.608H106.031V97.8418Z" fill="#1894FF"/>
<path d="M84.873 97.8418H94.6387V107.608H84.873V97.8418Z" fill="#1894FF"/>
<path d="M100.742 140.16H142.246V166.201H100.742V140.16Z" fill="#1894FF"/>
<path d="M121.494 140.16H142.246V166.201H121.494V140.16Z" fill="#7EBCF2"/>
<path d="M17.002 161.318H183.669V171.084H17.002V161.318Z" fill="#00DE9A"/>
<path d="M100.336 161.318H183.669V171.084H100.336V161.318Z" fill="#00DE9A"/>
</g>
<defs>
<clipPath id="clip0_6188_4452">
<rect width="166.667" height="166.667" fill="white" transform="translate(17.002 17.1665)"/>
</clipPath>
</defs>
</svg>
