<svg width="201" height="201" viewBox="0 0 201 201" fill="none" xmlns="http://www.w3.org/2000/svg">
<g clip-path="url(#clip0_6188_4497)">
<path d="M100.336 17.1665L27.0938 48.1228V75.2389C27.0938 122.212 55.1216 164.496 98.3828 183.051L100.336 183.833L102.289 183.051C145.55 164.496 173.578 122.212 173.578 75.2389V48.1228L100.336 17.1665ZM100.336 139.888C78.7537 139.888 61.2734 122.408 61.2734 100.825C61.2734 79.2431 78.7537 61.7629 100.336 61.7629C121.918 61.7629 139.398 79.2431 139.398 100.825C139.398 122.408 121.918 139.888 100.336 139.888Z" fill="#7EBCF2"/>
<path d="M173.578 48.1228V75.2389C173.578 122.212 145.55 164.496 102.289 183.051L100.336 183.833V139.888C121.918 139.888 139.398 122.408 139.398 100.825C139.398 79.2431 121.918 61.7629 100.336 61.7629V17.1665L173.578 48.1228Z" fill="#1894FF"/>
<path d="M100.336 56.8799C76.1177 56.8799 56.3906 76.6057 56.3906 100.825C56.3906 125.043 76.1177 144.771 100.336 144.771C124.554 144.771 144.281 125.043 144.281 100.825C144.281 76.6057 124.554 56.8799 100.336 56.8799Z" fill="#E0F4FF"/>
<path d="M144.281 100.825C144.281 125.043 124.554 144.771 100.336 144.771V56.8799C124.554 56.8799 144.281 76.6057 144.281 100.825Z" fill="#BBDCFF"/>
<path d="M123.285 94.4775L100.336 117.525L95.4531 122.407L77.3867 104.243L84.2227 97.4072L95.4531 108.54L100.336 103.657L116.449 87.6416L123.285 94.4775Z" fill="#00DE9A"/>
<path d="M123.285 94.4775L100.336 117.525V103.657L116.449 87.6416L123.285 94.4775Z" fill="#00DE9A"/>
</g>
<defs>
<clipPath id="clip0_6188_4497">
<rect width="166.667" height="166.667" fill="white" transform="translate(17.002 17.1665)"/>
</clipPath>
</defs>
</svg>
