<svg width="201" height="201" viewBox="0 0 201 201" fill="none" xmlns="http://www.w3.org/2000/svg">
<g clip-path="url(#clip0_6188_4520)">
<path d="M100.66 104.745L88.2816 86.1769H37.1836V17.1665H164.137V86.1769H113.039L100.66 104.745Z" fill="#7EBCF2"/>
<path d="M113.039 86.1769H164.137V17.1665H100.66V104.745L113.039 86.1769Z" fill="#1894FF"/>
<path d="M95.7783 68.6673L82.5605 55.4492L89.4648 48.5449L95.7783 54.8581L111.857 38.7793L118.762 45.6836L95.7783 68.6673Z" fill="#00DE9A"/>
<path d="M100.66 63.7845L118.761 45.6836L111.856 38.7793L100.66 49.9753V63.7845Z" fill="#1BE6A7"/>
<path d="M100.336 154.536C89.569 154.536 80.8047 145.777 80.8047 135.005C80.8047 124.233 89.569 115.474 100.336 115.474C111.103 115.474 119.867 124.233 119.867 135.005C119.867 145.777 111.103 154.536 100.336 154.536Z" fill="#FFD9B3"/>
<path d="M129.633 183.833H71.0391V178.95C71.0391 165.489 81.9873 154.536 95.4531 154.536H105.219C118.685 154.536 129.633 165.489 129.633 178.95V183.833Z" fill="#7EBCF2"/>
<path d="M154.371 135.005C143.604 135.005 134.84 126.245 134.84 115.474C134.84 104.702 143.604 95.9424 154.371 95.9424C165.138 95.9424 173.902 104.702 173.902 115.474C173.902 126.245 165.138 135.005 154.371 135.005Z" fill="#FFD9B3"/>
<path d="M183.668 164.302H125.074V159.419C125.074 145.958 136.022 135.005 149.488 135.005H159.254C172.72 135.005 183.668 145.958 183.668 159.419V164.302Z" fill="#7EBCF2"/>
<path d="M46.2988 135.005C35.5319 135.005 26.7676 126.245 26.7676 115.474C26.7676 104.702 35.5319 95.9424 46.2988 95.9424C57.0658 95.9424 65.8301 104.702 65.8301 115.474C65.8301 126.245 57.0658 135.005 46.2988 135.005Z" fill="#FFD9B3"/>
<path d="M65.8301 115.474C65.8301 104.702 57.0658 95.9424 46.2988 95.9424V135.005C57.0658 135.005 65.8301 126.245 65.8301 115.474Z" fill="#FFBB99"/>
<path d="M75.5957 164.302H17.002V159.419C17.002 145.958 27.9502 135.005 41.416 135.005H51.1816C64.6475 135.005 75.5957 145.958 75.5957 159.419V164.302Z" fill="#7EBCF2"/>
<path d="M51.1816 135.005H46.2988V164.302H75.5957V159.419C75.5957 145.958 64.6475 135.005 51.1816 135.005Z" fill="#2361B5"/>
<path d="M105.219 154.536H100.336V183.833H129.633V178.95C129.633 165.489 118.685 154.536 105.219 154.536Z" fill="#1894FF"/>
<path d="M119.867 135.005C119.867 124.233 111.103 115.474 100.336 115.474V154.536C111.103 154.536 119.867 145.777 119.867 135.005Z" fill="#FFBB99"/>
<path d="M154.371 164.302H183.668V159.419C183.668 145.958 172.72 135.005 159.254 135.005H154.371V164.302Z" fill="#2361B5"/>
<path d="M173.902 115.474C173.902 104.702 165.138 95.9424 154.371 95.9424V135.005C165.138 135.005 173.902 126.245 173.902 115.474Z" fill="#FFBB99"/>
</g>
<defs>
<clipPath id="clip0_6188_4520">
<rect width="166.667" height="166.667" fill="white" transform="translate(17.002 17.1665)"/>
</clipPath>
</defs>
</svg>
