<svg width="33" height="25" viewBox="0 0 33 25" fill="none" xmlns="http://www.w3.org/2000/svg">
<path d="M31.1177 0.138672H1.20561C0.928854 0.138672 0.663436 0.248613 0.467743 0.444306C0.272049 0.64 0.162109 0.905417 0.162109 1.18217L0.162109 23.444C0.162109 23.7208 0.272049 23.9862 0.467743 24.1819C0.663436 24.3776 0.928854 24.4875 1.20561 24.4875H31.1186C31.3954 24.4875 31.6608 24.3776 31.8565 24.1819C32.0522 23.9862 32.1621 23.7208 32.1621 23.444V1.18217C32.1621 1.04506 32.1351 0.909301 32.0826 0.782641C32.0301 0.655982 31.9532 0.540909 31.8562 0.444C31.7592 0.347091 31.644 0.270246 31.5173 0.217856C31.3906 0.165466 31.2549 0.138559 31.1177 0.138672ZM30.0751 11.2104L25.0102 5.84203C24.9125 5.73885 24.7949 5.65666 24.6643 5.60049C24.5338 5.54432 24.3932 5.51535 24.2512 5.51535C24.1091 5.51535 23.9685 5.54432 23.838 5.60049C23.7075 5.65666 23.5898 5.73885 23.4921 5.84203L13.709 16.2117L8.83688 11.0483C8.73914 10.9452 8.62143 10.8631 8.49093 10.807C8.36042 10.7509 8.21986 10.722 8.07782 10.722C7.93577 10.722 7.79521 10.7509 7.66471 10.807C7.53421 10.8631 7.41649 10.9452 7.31875 11.0483L2.2491 16.4227V2.22567H30.0751V11.2104Z" fill="#1894FF"/>
<path d="M13.7095 4.67578C13.0881 4.67578 12.4806 4.86007 11.9639 5.20533C11.4471 5.5506 11.0444 6.04134 10.8066 6.61549C10.5687 7.18965 10.5065 7.82143 10.6278 8.43095C10.749 9.04047 11.0483 9.60035 11.4877 10.0398C11.9271 10.4792 12.487 10.7785 13.0965 10.8997C13.7061 11.021 14.3378 10.9587 14.912 10.7209C15.4862 10.4831 15.9769 10.0804 16.3222 9.56364C16.6674 9.04691 16.8517 8.4394 16.8517 7.81794C16.8508 6.98487 16.5195 6.18618 15.9304 5.59711C15.3413 5.00804 14.5426 4.6767 13.7095 4.67578Z" fill="#00DE9A"/>
</svg>
