<svg width="41" height="48" viewBox="0 0 41 48" fill="none" xmlns="http://www.w3.org/2000/svg">
<path d="M39.1959 13.4089C39.1731 12.2135 39.1517 11.0851 39.1517 9.99338C39.1518 9.78994 39.1117 9.58849 39.0339 9.40053C38.9561 9.21256 38.842 9.04178 38.6982 8.89793C38.5543 8.75407 38.3835 8.63998 38.1956 8.56216C38.0076 8.48433 37.8061 8.44431 37.6027 8.44437C30.9779 8.44437 25.9331 6.54031 21.7276 2.45272C21.4386 2.17121 21.0512 2.01367 20.6477 2.01367C20.2443 2.01367 19.8568 2.17121 19.5678 2.45272C15.3648 6.54031 10.3223 8.44485 3.69752 8.44485C3.28669 8.44485 2.8927 8.60804 2.6022 8.89854C2.31171 9.18904 2.14851 9.58303 2.14851 9.99385C2.14851 11.087 2.12759 12.2149 2.1043 13.4103C1.89232 24.5291 1.60096 39.7573 20.1425 46.1838C20.3054 46.2404 20.4767 46.2693 20.6492 46.2694C20.8213 46.2694 20.9923 46.2405 21.1549 46.1838C39.6993 39.7573 39.4079 24.5281 39.1959 13.4089Z" fill="#1894FF"/>
<path d="M21.2572 46.183C21.0955 46.2397 20.9253 46.2686 20.7539 46.2686V2.01367C21.1552 2.01326 21.5406 2.17086 21.8267 2.45238C26.0093 6.53997 31.0242 8.44403 37.6124 8.44403C37.8153 8.44453 38.0161 8.485 38.2033 8.56313C38.3905 8.64125 38.5605 8.75551 38.7036 8.89936C38.8466 9.04321 38.9599 9.21384 39.037 9.4015C39.1141 9.58916 39.1535 9.79016 39.1528 9.99304C39.1528 11.0862 39.1738 12.2132 39.1966 13.4086C39.4076 24.5278 39.6971 39.7569 21.2572 46.183Z" fill="#1894FF"/>
<path d="M40.566 13.386V13.3409C40.5441 12.1697 40.5227 11.0628 40.5227 9.99809C40.5219 9.2226 40.2134 8.47912 39.6651 7.93077C39.1167 7.38241 38.3732 7.07396 37.5977 7.07308C31.3565 7.07308 26.6183 5.29355 22.6899 1.47307C22.1457 0.938316 21.4133 0.638672 20.6504 0.638672C19.8874 0.638672 19.155 0.938316 18.6108 1.47307C14.6815 5.29355 9.94467 7.07308 3.70395 7.07308C2.92846 7.07396 2.18499 7.38241 1.63663 7.93077C1.08828 8.47912 0.779826 9.2226 0.778945 9.99809C0.778945 11.0856 0.758031 12.2035 0.734741 13.387C0.629224 18.9124 0.497091 25.789 2.80563 32.0312C4.0191 35.3779 5.97102 38.4082 8.51638 40.897C11.3872 43.688 15.1468 45.9019 19.6912 47.4771C19.9993 47.5842 20.3232 47.6388 20.6494 47.6387C20.9753 47.6389 21.2989 47.5843 21.6067 47.4771C26.151 45.9019 29.9111 43.688 32.7824 40.897C35.3274 38.408 37.2792 35.378 38.4932 32.0317C40.8017 25.7895 40.6706 18.9133 40.5646 13.3865L40.566 13.386ZM35.9114 31.0758C33.4783 37.6588 28.5043 42.1727 20.7046 44.8757C20.6872 44.8823 20.6689 44.8857 20.6504 44.8857C20.6309 44.8856 20.6116 44.8822 20.5933 44.8757C12.7955 42.1727 7.82244 37.6588 5.38842 31.0768C3.26192 25.3218 3.38217 19.0098 3.48721 13.4393C3.51003 12.2425 3.53142 11.1103 3.53142 9.99809C3.53154 9.95262 3.54966 9.90905 3.58181 9.8769C3.61396 9.84474 3.65753 9.82663 3.703 9.8265C10.7061 9.8265 16.0528 7.79886 20.5287 3.44652C20.5608 3.41579 20.6036 3.39875 20.648 3.39899C20.6924 3.39895 20.7351 3.41596 20.7673 3.44652C25.2427 7.79886 30.5904 9.8265 37.593 9.8265C37.6384 9.82663 37.682 9.84474 37.7142 9.8769C37.7463 9.90905 37.7644 9.95262 37.7646 9.99809C37.7646 11.0884 37.7855 12.2082 37.8078 13.3932V13.4383C37.8316 14.6812 37.8553 15.9617 37.8553 17.264C37.861 21.7979 37.5645 26.6051 35.9114 31.0758Z" fill="white"/>
<path d="M30.0742 20.4872V25.9532C30.0742 26.1954 29.978 26.4276 29.8068 26.5988C29.6356 26.7701 29.4033 26.8663 29.1612 26.8663H24.2979V31.7305C24.2977 31.9726 24.2015 32.2048 24.0303 32.376C23.8591 32.5472 23.6269 32.6434 23.3848 32.6435H17.9155C17.6734 32.6434 17.4412 32.5472 17.27 32.376C17.0988 32.2048 17.0026 31.9726 17.0025 31.7305V26.8667H12.1406C11.8984 26.8667 11.6662 26.7705 11.495 26.5993C11.3237 26.4281 11.2275 26.1958 11.2275 25.9537V20.4877C11.2275 20.2455 11.3237 20.0133 11.495 19.8421C11.6662 19.6708 11.8984 19.5746 12.1406 19.5746H17.0048V14.7099C17.005 14.4678 17.1012 14.2356 17.2724 14.0644C17.4436 13.8932 17.6758 13.797 17.9179 13.7969H23.3839C23.626 13.797 23.8581 13.8932 24.0294 14.0644C24.2006 14.2356 24.2968 14.4678 24.2969 14.7099V19.5742H29.1612C29.4033 19.5742 29.6356 19.6704 29.8068 19.8416C29.978 20.0128 30.0742 20.2451 30.0742 20.4872Z" fill="white"/>
<path d="M30.1059 20.4872V25.9532C30.1059 26.1954 30.0098 26.4276 29.8385 26.5988C29.6673 26.7701 29.4351 26.8663 29.1929 26.8663H24.3282V31.7305C24.3281 31.9726 24.2318 32.2048 24.0606 32.376C23.8894 32.5472 23.6572 32.6434 23.4151 32.6435H20.6826V13.7969H23.4166C23.6587 13.797 23.8908 13.8932 24.062 14.0644C24.2332 14.2356 24.3295 14.4678 24.3296 14.7099V19.5742H29.1929C29.3128 19.5742 29.4315 19.5978 29.5423 19.6437C29.6531 19.6896 29.7537 19.7568 29.8385 19.8416C29.9233 19.9264 29.9906 20.027 30.0365 20.1378C30.0823 20.2486 30.1059 20.3673 30.1059 20.4872Z" fill="white"/>
<path d="M38.5055 32.0309C37.2998 35.3745 35.3582 38.4043 32.8242 40.8967C29.9682 43.6877 26.2271 45.9017 21.7065 47.4768C21.4009 47.5838 21.0796 47.6384 20.7559 47.6384V44.8855C20.7742 44.8854 20.7924 44.882 20.8096 44.8755C28.5689 42.1725 33.5172 37.6585 35.938 31.0756C37.5825 26.6049 37.8772 21.7982 37.8772 17.2638C37.8772 15.9615 37.8525 14.681 37.8297 13.4381V13.3929C37.8078 12.208 37.7869 11.0882 37.7869 9.99784C37.7869 9.9525 37.7689 9.909 37.737 9.87685C37.705 9.8447 37.6616 9.82651 37.6162 9.82626C30.6483 9.82626 25.3287 7.79862 20.8766 3.44628C20.8446 3.41571 20.802 3.39868 20.7578 3.39875V0.638672C21.5163 0.640283 22.2438 0.939856 22.7835 1.47283C26.6924 5.29283 31.405 7.07283 37.6129 7.07283C38.3864 7.07573 39.1271 7.38531 39.6726 7.93367C40.2181 8.48202 40.5239 9.22436 40.5227 9.99784C40.5227 11.0625 40.5436 12.1695 40.5655 13.3406V13.3858C40.6715 18.9112 40.8017 25.7888 38.5055 32.0309Z" fill="white"/>
</svg>
