<svg width="151" height="151" viewBox="0 0 151 151" fill="none" xmlns="http://www.w3.org/2000/svg">
<g clip-path="url(#clip0_3362:17140)">
<path d="M150.662 60.5967V71.9697L75.6621 128.018L75.6299 128.041L0.662109 71.9697V60.5967L21.4189 44.6299H129.905L150.662 60.5967Z" fill="#1688EB"/>
<path d="M150.662 60.5967V71.9697L75.6621 128.018V44.6299H129.905L150.662 60.5967Z" fill="#1894FF"/>
<path d="M131.619 0.652344V93.9131L113.065 103.54L75.6621 127.388L75.6299 127.367L43.9248 106.162L19.7051 91.376V0.652344L131.619 0.652344Z" fill="#E6F3FF"/>
<path d="M131.616 0.652344V93.9131L113.159 104.852L75.6592 127.388L75.627 127.367V0.652344H131.616Z" fill="#D6E7F9"/>
<path d="M56.6191 72.333H94.7051V81.1221H56.6191V72.333Z" fill="white"/>
<path d="M66.873 89.9111H84.4512V98.7002H66.873V89.9111Z" fill="white"/>
<path d="M75.627 89.9111H84.4483V98.7002H75.627V89.9111Z" fill="#F0F3F7"/>
<path d="M75.627 72.333H94.7022V81.1221H75.627V72.333Z" fill="#F0F3F7"/>
<path d="M150.662 80.7588V150.652H0.662109V71.9697L75.6299 119.252L75.6973 119.296L150.662 80.7588Z" fill="#1894FF"/>
<path d="M150.659 71.9697V150.652H75.627V119.252L75.6943 119.296L150.659 71.9697Z" fill="#1688EB"/>
<g clip-path="url(#clip1_3362:17140)">
<path d="M100.529 32.3258L82.4184 32.3258V14.2149C82.4184 12.9644 81.4048 14.215 80.1546 14.215H75.6269H71.0993C69.849 14.215 68.8354 15.2284 68.8354 16.4789V32.3258H50.7246C49.4743 32.3258 50.7246 33.3392 50.7246 34.5897V43.6451C50.7246 44.8954 49.4743 45.909 50.7246 45.909H68.8354V64.1006C68.8354 65.3508 69.849 64.0198 71.0993 64.0198H75.6269H80.1546C81.4048 64.0198 82.4184 65.3033 82.4184 64.053V45.9089L100.5 46C101.75 46 100.529 44.8953 100.529 43.645V39.1173V34.5896C100.529 33.3392 101.78 32.3258 100.529 32.3258Z" fill="#1894FF"/>
<path d="M71.0997 14.2151C69.8494 14.2151 68.8358 12.7142 68.8358 14.2146V32.3259H50.7252C49.4749 32.3259 50.725 33.3393 50.725 34.5898V43.6452C50.725 44.8954 49.4742 45.909 50.7245 45.909H68.8358L68.8357 64.0004C68.8357 65.2507 69.8494 64.0198 71.0997 64.0198H75.6273V14.2151H71.0997Z" fill="#1688EB"/>
</g>
</g>
<defs>
<clipPath id="clip0_3362:17140">
<rect width="150" height="150" fill="white" transform="translate(0.662109 0.652344)"/>
</clipPath>
<clipPath id="clip1_3362:17140">
<rect width="49.8047" height="49.8047" fill="white" transform="translate(50.7246 14.2148)"/>
</clipPath>
</defs>
</svg>
