<svg width="54" height="55" viewBox="0 0 54 55" fill="none" xmlns="http://www.w3.org/2000/svg">
<path d="M9.63867 39.3557V36.5588H14.4508V31.5879H17.3698V36.5588H22.1941V39.3557H17.3698V44.3876H14.4508V39.3557H9.63867Z" fill="#1894FF"/>
<path fill-rule="evenodd" clip-rule="evenodd" d="M14.2721 31.4092H17.5484V36.3801H22.3728V39.5343H17.5484V44.5662H14.2721V39.5343H9.45996V36.3801H14.2721V31.4092ZM14.6294 31.7665V36.7374H9.81729V39.177H14.6294V44.2089H17.1911V39.177H22.0154V36.7374H17.1911V31.7665H14.6294Z" fill="#1894FF"/>
<path fill-rule="evenodd" clip-rule="evenodd" d="M11.0451 3.3567C6.70347 3.3567 3.18385 6.87632 3.18385 11.218V43.3778C3.18385 47.7195 6.70347 51.2391 11.0451 51.2391H43.205C47.5467 51.2391 51.0663 47.7195 51.0663 43.3778V11.218C51.0663 6.87632 47.5467 3.3567 43.205 3.3567H11.0451ZM0.325195 11.218C0.325195 5.29753 5.12468 0.498047 11.0451 0.498047H43.205C49.1255 0.498047 53.9249 5.29753 53.9249 11.218V43.3778C53.9249 49.2983 49.1255 54.0978 43.205 54.0978H11.0451C5.12468 54.0978 0.325195 49.2983 0.325195 43.3778V11.218Z" fill="#1894FF"/>
</svg>
