<svg width="4505" height="1502" viewBox="0 0 4505 1502" fill="none" xmlns="http://www.w3.org/2000/svg">
<path d="M119.33 845.693C100.719 845.693 83.6088 841.791 67.9994 833.986C52.39 826.181 39.1821 815.675 28.3756 802.467C17.5691 789.259 9.76437 774.25 4.96148 757.44C0.158598 740.03 -0.44176 722.319 3.16041 704.308L18.4696 622.359C20.8711 608.551 25.6739 595.943 32.8783 584.536C40.0826 572.529 48.7878 562.323 58.994 553.918C69.2001 545.513 80.607 538.909 93.2146 534.106C106.423 529.303 120.231 526.902 134.639 526.902H185.07C202.48 526.902 218.69 530.203 233.699 536.807C249.308 543.411 262.817 552.417 274.223 563.824C285.63 574.63 294.636 587.838 301.24 603.448C307.844 618.457 311.146 634.666 311.146 652.077V771.849H382.288C385.891 771.849 388.892 773.35 391.294 776.352C393.695 778.753 394.896 781.455 394.896 784.456V833.086C394.896 841.491 390.693 845.693 382.288 845.693H310.245V856.5C309.044 897.324 296.137 933.946 271.522 966.366C247.507 999.386 215.688 1022.8 176.064 1036.61L73.4026 1071.73L53.5907 1009.59L161.656 973.57C187.471 964.565 208.184 949.255 223.793 927.643C240.003 906.63 248.108 882.315 248.108 854.699V838.489C243.305 841.491 237.601 843.592 230.997 844.793C224.994 845.393 218.69 845.693 212.086 845.693H119.33ZM113.026 771.849H249.008V652.077C249.008 636.467 243.305 623.259 231.898 612.453C221.091 601.046 207.884 595.343 192.274 595.343H132.838C119.03 595.343 107.023 599.545 96.8167 607.95C86.6106 616.355 80.0066 627.462 77.0048 641.27L63.4967 713.314C60.4949 728.923 64.097 742.731 74.3032 754.738C84.5093 766.145 97.4171 771.849 113.026 771.849Z" fill="#1894FF"/>
<path d="M440.155 465.665H516.701V389.119H440.155V465.665ZM563.529 465.665H640.075V389.119H563.529V465.665ZM706.715 833.086C706.715 841.491 702.513 845.693 694.108 845.693H638.274C628.068 845.693 617.862 844.192 607.656 841.19C597.45 838.189 587.844 833.986 578.839 828.583C569.833 823.18 562.028 816.876 555.424 809.672C548.82 802.467 544.318 794.662 541.916 786.257C531.71 803.668 517.001 818.077 497.79 829.483C479.179 840.29 459.367 845.693 438.354 845.693H382.521C374.115 845.693 369.913 841.491 369.913 833.086V785.357C369.913 781.755 371.114 778.753 373.515 776.352C375.917 773.35 378.918 771.849 382.521 771.849H441.056C458.466 771.849 473.475 766.446 486.083 755.639C499.291 744.833 507.696 731.324 511.298 715.115L539.215 572.829L600.452 582.735L577.037 701.607C575.236 710.612 575.537 719.617 577.938 728.623C580.339 737.028 584.542 744.532 590.546 751.136C596.549 757.14 603.754 762.243 612.159 766.446C620.564 770.048 629.569 771.849 639.175 771.849H694.108C697.71 771.849 700.712 773.35 703.113 776.352C705.515 778.753 706.715 781.755 706.715 785.357V833.086Z" fill="#1894FF"/>
<path d="M751.475 1030.3H828.021V953.758H751.475V1030.3ZM874.849 1030.3H951.395V953.758H874.849V1030.3ZM1018.04 833.086C1018.04 841.491 1013.83 845.693 1005.43 845.693H949.594C939.388 845.693 929.182 844.192 918.976 841.19C908.77 838.189 899.164 833.986 890.159 828.583C881.153 823.18 873.348 816.876 866.744 809.672C860.141 802.467 855.638 794.662 853.236 786.257C843.03 803.668 828.321 818.077 809.11 829.483C790.499 840.29 770.687 845.693 749.674 845.693H693.841C685.435 845.693 681.233 841.491 681.233 833.086V785.357C681.233 781.755 682.434 778.753 684.835 776.352C687.237 773.35 690.238 771.849 693.841 771.849H752.376C769.786 771.849 784.795 766.446 797.403 755.639C810.611 744.833 819.016 731.324 822.618 715.115L850.535 572.829L911.772 582.735L888.357 701.607C886.556 710.612 886.857 719.617 889.258 728.623C891.659 737.028 895.862 744.532 901.866 751.136C907.869 757.14 915.074 762.243 923.479 766.446C931.884 770.048 940.889 771.849 950.495 771.849H1005.43C1009.03 771.849 1012.03 773.35 1014.43 776.352C1016.83 778.753 1018.04 781.755 1018.04 785.357V833.086Z" fill="#1894FF"/>
<path d="M1114.13 771.849C1132.14 771.849 1147.45 765.545 1160.05 752.937C1172.66 740.33 1178.96 725.321 1178.96 707.91V542.211H1241.1V707.91C1241.1 727.122 1237.5 745.133 1230.3 761.943C1223.09 778.753 1213.19 793.462 1200.58 806.069C1187.97 818.077 1173.26 827.682 1156.45 834.887C1140.24 842.091 1122.53 845.693 1103.32 845.693H1005.16C996.755 845.693 992.553 841.491 992.553 833.086V785.357C992.553 781.755 993.754 778.753 996.155 776.352C998.557 773.35 1001.56 771.849 1005.16 771.849H1114.13ZM1169.06 435.046H1245.61V358.5H1169.06V435.046Z" fill="#1894FF"/>
<path d="M1551.9 833.086C1551.9 841.491 1547.7 845.693 1539.29 845.693H1505.97C1487.36 845.693 1469.65 842.091 1452.84 834.887C1436.03 827.682 1421.32 817.776 1408.72 805.169C1396.11 792.561 1386.2 777.852 1379 761.042C1371.79 744.232 1368.19 726.522 1368.19 707.91V252.236H1430.33V707.01C1430.33 725.021 1436.63 740.33 1449.24 752.937C1462.45 765.545 1477.76 771.849 1495.17 771.849H1539.29C1542.9 771.849 1545.9 773.35 1548.3 776.352C1550.7 778.753 1551.9 781.755 1551.9 785.357V833.086Z" fill="#1894FF"/>
<path d="M1749.7 771.849H1886.59V651.176C1886.59 635.567 1880.88 622.359 1869.48 611.552C1858.67 600.146 1845.16 594.442 1828.95 594.442H1770.42C1756.61 594.442 1744.6 598.945 1734.4 607.95C1724.19 616.355 1717.58 627.162 1714.58 640.37L1701.08 713.314C1698.07 728.923 1701.38 742.731 1710.98 754.738C1721.19 766.145 1734.09 771.849 1749.7 771.849ZM1637.14 715.115L1656.05 622.359C1658.45 608.551 1663.25 595.643 1670.46 583.636C1677.66 571.628 1686.37 561.422 1696.57 553.017C1706.78 544.612 1718.19 538.008 1730.79 533.205C1744 528.402 1757.81 526.001 1772.22 526.001H1822.65C1840.06 526.001 1856.27 529.303 1871.28 535.907C1886.89 542.511 1900.39 551.516 1911.8 562.923C1923.21 574.33 1932.21 587.538 1938.82 602.547C1945.42 617.556 1948.72 633.766 1948.72 651.176V764.644C1948.72 788.659 1941.22 808.171 1926.21 823.18C1911.8 838.189 1891.99 845.693 1866.77 845.693H1756.91C1737.7 845.693 1719.99 841.19 1703.78 832.185C1688.17 822.579 1675.26 807.27 1665.05 786.257C1654.25 807.27 1639.84 822.579 1621.83 832.185C1603.82 841.19 1584.91 845.693 1565.09 845.693H1538.98C1530.57 845.693 1526.37 841.491 1526.37 833.086V784.456C1526.37 781.455 1527.57 778.753 1529.97 776.352C1532.37 773.35 1535.38 771.849 1538.98 771.849H1567.79C1585.21 771.849 1600.21 766.446 1612.82 755.639C1626.03 744.833 1634.13 731.324 1637.14 715.115Z" fill="#1894FF"/>
<path d="M1905.32 1069.93L1885.51 1008.69L1995.38 972.67C2020.59 964.265 2041 948.955 2056.61 926.742C2072.82 904.529 2080.93 879.914 2080.93 852.898V567.426H2142.16V847.494C2142.16 868.507 2138.86 888.619 2132.26 907.831C2126.26 927.642 2117.25 945.653 2105.24 961.863C2093.84 978.673 2079.73 993.082 2062.92 1005.09C2046.71 1017.7 2028.7 1027.6 2008.88 1034.81L1905.32 1069.93Z" fill="#1894FF"/>
<path d="M2374.79 845.693C2361.58 845.693 2348.97 843.292 2336.96 838.489C2324.96 833.086 2314.45 825.881 2305.44 816.876C2297.04 807.87 2290.13 797.364 2284.73 785.357C2279.93 773.35 2277.53 760.742 2277.53 747.534V652.077H2330.66V734.026C2330.66 744.232 2333.66 753.238 2339.66 761.042C2345.67 768.247 2354.67 771.849 2366.68 771.849H2508.07C2526.08 771.849 2540.79 767.946 2552.19 760.142C2563.6 752.337 2572 743.031 2577.41 732.225C2582.81 720.818 2585.21 708.511 2584.61 695.303C2584.01 682.095 2580.71 670.088 2574.71 659.281L2471.14 474.67L2523.38 439.549L2626.04 623.259C2641.05 649.075 2648.25 675.491 2647.65 702.507C2647.65 728.923 2641.65 752.637 2629.64 773.65C2618.23 794.663 2601.42 812.073 2579.21 825.881C2557.6 839.089 2532.68 845.693 2504.46 845.693H2374.79Z" fill="#1894FF"/>
<path d="M3264.88 1088.28V1009.96H3399.63V870.764H3481.37V1009.96H3616.46V1088.28H3481.37V1229.18H3399.63V1088.28H3264.88Z" fill="#1894FF"/>
<path fill-rule="evenodd" clip-rule="evenodd" d="M3394.63 865.763H3486.37V1004.96H3621.46V1093.28H3486.37V1234.19H3394.63V1093.28H3259.88V1004.96H3394.63V865.763ZM3404.63 875.769V1014.96H3269.88V1083.28H3404.63V1224.18H3476.37V1083.28H3611.46V1014.96H3476.37V875.769H3404.63Z" fill="#1894FF"/>
<path fill-rule="evenodd" clip-rule="evenodd" d="M3304.24 80.2317C3182.67 80.2317 3084.11 178.788 3084.11 300.364V1200.91C3084.11 1322.48 3182.67 1421.04 3304.24 1421.04H4204.79C4326.36 1421.04 4424.92 1322.48 4424.92 1200.91V300.364C4424.92 178.788 4326.36 80.2317 4204.79 80.2317H3304.24ZM3004.06 300.364C3004.06 134.579 3138.46 0.183594 3304.24 0.183594H4204.79C4370.57 0.183594 4504.97 134.579 4504.97 300.364V1200.91C4504.97 1366.69 4370.57 1501.09 4204.79 1501.09H3304.24C3138.46 1501.09 3004.06 1366.69 3004.06 1200.91V300.364Z" fill="#1894FF"/>
</svg>
