<svg width="143" height="113" viewBox="0 0 143 113" fill="none" xmlns="http://www.w3.org/2000/svg">
<path d="M124.585 27.924C116.9 19.2044 107.458 12.2088 96.8786 7.39627C86.2991 2.58374 74.8214 0.0631606 63.1989 0C51.579 0.0650339 40.1043 2.58653 29.5277 7.39901C18.951 12.2115 9.51162 19.2062 1.82889 27.924C1.54941 28.2033 1.32844 28.5355 1.17893 28.9013C1.02941 29.267 0.954354 29.6589 0.958145 30.054C0.961935 30.4491 1.0445 30.8395 1.201 31.2023C1.35751 31.5651 1.58481 31.893 1.8696 32.1669C2.1544 32.4408 2.49096 32.6552 2.8596 32.7974C3.22823 32.9396 3.62154 33.0069 4.01649 32.9952C4.41144 32.9836 4.8001 32.8933 5.15972 32.7296C5.51935 32.5659 5.84272 32.3322 6.11089 32.042C6.14989 32.001 6.18789 31.959 6.22489 31.916C13.3542 23.8152 22.1157 17.3132 31.9346 12.8367C41.7535 8.36018 52.4079 6.01022 63.1989 5.941C73.993 6.01243 84.6499 8.36585 94.4701 12.8468C104.29 17.3277 113.052 23.8348 120.18 31.941C120.713 32.5083 121.448 32.8434 122.226 32.8743C123.005 32.9052 123.764 32.6293 124.34 32.106C124.917 31.5827 125.265 30.8539 125.31 30.0765C125.355 29.299 125.093 28.535 124.58 27.949L124.585 27.924Z" fill="#1894FF"/>
<path d="M63.2067 23.7637C54.4775 23.8138 45.8576 25.7093 37.9127 29.3257C29.9677 32.9421 22.8773 38.1977 17.1067 44.7477C16.8272 45.027 16.6063 45.3592 16.4568 45.725C16.3072 46.0907 16.2322 46.4826 16.236 46.8777C16.2398 47.2728 16.3223 47.6632 16.4788 48.026C16.6353 48.3888 16.8626 48.7167 17.1474 48.9906C17.4322 49.2645 17.7688 49.4788 18.1374 49.621C18.5061 49.7633 18.8994 49.8305 19.2943 49.8189C19.6893 49.8073 20.0779 49.717 20.4376 49.5533C20.7972 49.3896 21.1205 49.1558 21.3887 48.8657C21.4277 48.8247 21.4657 48.7827 21.5027 48.7397C26.6855 42.7661 33.0907 37.9753 40.2851 34.6913C47.4795 31.4073 55.2953 29.7066 63.2037 29.7043C71.1122 29.702 78.929 31.3982 86.1253 34.6781C93.3215 37.958 99.7295 42.7451 104.916 48.7157C105.435 49.2917 106.158 49.6422 106.932 49.6921C107.706 49.742 108.468 49.4875 109.057 48.9829C109.645 48.4783 110.014 47.7636 110.082 46.9914C110.151 46.2191 109.916 45.4505 109.426 44.8497C109.389 44.8067 109.351 44.7647 109.312 44.7237C103.539 38.1763 96.4474 32.924 88.5014 29.3116C80.5554 25.6993 71.9352 23.8086 63.2067 23.7637Z" fill="#1894FF"/>
<path d="M32.3777 61.5502C32.0982 61.8295 31.8773 62.1618 31.7278 62.5275C31.5782 62.8933 31.5032 63.2851 31.507 63.6802C31.5108 64.0753 31.5933 64.4657 31.7498 64.8285C31.9063 65.1913 32.1336 65.5193 32.4184 65.7932C32.7032 66.0671 33.0398 66.2814 33.4084 66.4236C33.7771 66.5658 34.1704 66.6331 34.5653 66.6215C34.9603 66.6098 35.3489 66.5195 35.7085 66.3559C36.0682 66.1922 36.3915 65.9584 36.6597 65.6682C36.6987 65.6272 36.7367 65.5852 36.7737 65.5422C42.7345 58.6694 51.1318 54.3804 60.1942 53.58C69.2566 52.7797 78.2756 55.5305 85.3487 61.2522C85.9379 61.7578 86.7016 62.0126 87.4763 61.9621C88.251 61.9117 88.9752 61.56 89.4939 60.9824C90.0126 60.4048 90.2846 59.6471 90.2516 58.8714C90.2187 58.0958 89.8835 57.3638 89.3177 56.8322C81.066 50.0853 70.5169 46.8063 59.8944 47.6864C49.272 48.5666 39.4064 53.5372 32.3777 61.5502Z" fill="#1894FF"/>
<path d="M63.207 100.999C71.4101 100.999 78.06 94.3491 78.06 86.146C78.06 77.9429 71.4101 71.293 63.207 71.293C55.0039 71.293 48.354 77.9429 48.354 86.146C48.354 94.3491 55.0039 100.999 63.207 100.999Z" fill="#1894FF"/>
<path d="M110.736 109.911C127.142 109.911 140.442 96.6112 140.442 80.205C140.442 63.7989 127.142 50.499 110.736 50.499C94.3296 50.499 81.0298 63.7989 81.0298 80.205C81.0298 96.6112 94.3296 109.911 110.736 109.911Z" fill="#FAFAFA"/>
<path d="M133.889 103.233C139.66 97.0409 142.802 88.8505 142.655 80.3872C142.507 71.9238 139.082 63.8479 133.099 57.8601C127.116 51.8723 119.042 48.4399 110.579 48.2857C102.116 48.1315 93.9231 51.2675 87.7259 57.0334C87.692 57.0516 87.6601 57.0734 87.6309 57.0984C87.6009 57.1284 87.5949 57.1634 87.5659 57.1934C81.7426 63.3802 78.558 71.5918 78.6874 80.0871C78.8168 88.5825 82.2501 96.6933 88.2592 102.7C94.2683 108.706 102.381 112.136 110.876 112.262C119.371 112.388 127.582 109.199 133.766 103.373L133.837 103.325L133.889 103.233ZM137.472 80.2054C137.446 86.253 135.349 92.1092 131.531 96.7994L94.1429 59.4114C98.8346 55.5921 104.693 53.4953 110.743 53.4704C117.832 53.4723 124.631 56.2898 129.643 61.3034C134.655 66.317 137.471 73.116 137.471 80.2054H137.472ZM84.0019 80.2054C84.0283 74.1578 86.125 68.3016 89.9429 63.6114L127.336 100.999C122.646 104.817 116.79 106.914 110.742 106.94C107.231 106.941 103.754 106.25 100.51 104.908C97.2665 103.565 94.3188 101.596 91.8356 99.1141C89.3525 96.6321 87.3826 93.6853 86.0383 90.442C84.694 87.1986 84.0017 83.7223 84.0009 80.2114L84.0019 80.2054Z" fill="#FE5656"/>
</svg>
