<svg width="286" height="243" viewBox="0 0 286 243" fill="none" xmlns="http://www.w3.org/2000/svg">
<path d="M102.544 222.356H24.3808C22.7209 222.356 21.1285 221.699 19.9524 220.527C18.7762 219.356 18.1122 217.766 18.1055 216.106V215.239H108.819V216.106C108.812 217.766 108.148 219.356 106.972 220.527C105.796 221.699 104.204 222.356 102.544 222.356Z" fill="#78B7E5"/>
<path d="M111.654 96.9231C111.246 77.408 105.277 73.0458 97.8279 68.8621C94.3586 66.8978 86.0932 64.2703 84.0014 60.8775C80.4045 55.0357 83.2106 33.4797 83.2106 33.4797H43.7722C43.7722 33.4797 46.8079 55.7245 42.9558 61.5408C40.8385 64.806 32.5988 66.7959 29.1295 68.7601C21.6805 72.9693 15.7111 77.3315 15.3029 96.8211C14.9713 113.403 14.0784 215.239 18.4917 215.239H108.491C112.879 215.341 112.011 113.505 111.654 96.9231Z" fill="#C4F2F0"/>
<path d="M82.0379 34.1682H44.9463C44.1141 34.1682 43.3161 33.8377 42.7277 33.2492C42.1393 32.6608 41.8086 31.8627 41.8086 31.0306V22H85.1756V31.0306C85.169 31.8607 84.8362 32.6549 84.2492 33.2419C83.6622 33.8289 82.8681 34.1616 82.0379 34.1682Z" fill="#1894FF"/>
<path d="M84.0516 205.851H42.7509C40.0446 205.851 37.4492 204.776 35.5356 202.863C33.6219 200.949 32.5469 198.353 32.5469 195.647V91.3622C32.5469 88.4541 39.7407 76.9746 64.0008 77.3572C88.2608 77.7399 94.2811 88.8112 94.2811 91.3622V195.571C94.2913 196.919 94.034 198.256 93.5241 199.505C93.0143 200.754 92.2619 201.889 91.3107 202.845C90.3594 203.801 89.2281 204.558 87.9821 205.075C86.7361 205.591 85.4002 205.855 84.0516 205.851Z" fill="#1894FF"/>
<path d="M80.5061 40.5212H46.7053C44.3807 40.5212 42.4961 42.4057 42.4961 44.7304V47.7405C42.4961 50.0652 44.3807 51.9498 46.7053 51.9498H80.5061C82.8307 51.9498 84.7153 50.0652 84.7153 47.7405V44.7304C84.7153 42.4057 82.8307 40.5212 80.5061 40.5212Z" fill="#1894FF"/>
<path d="M62.42 174.143V182.943H53.6191V187.892H62.42V196.693H67.3689V187.892H76.1699V182.943H67.3689V174.143H62.42Z" fill="white"/>
<path d="M236.215 64.6313C236.215 64.6313 268.071 69.1148 270.365 104.879L248.358 110.11L236.215 64.6313Z" fill="#1894FF"/>
<path d="M235.792 64.5507C235.792 64.5507 267.978 68.5739 270.91 104.959L248.819 110.664L235.792 64.5507Z" fill="#E6F3FF"/>
<path d="M268.49 105.342C268.49 105.342 278.264 141.666 256.1 141.734L248.814 123.051L252.469 109.166L268.49 105.342Z" fill="#F4A28C"/>
<path opacity="0.31" d="M268.49 105.342C268.49 105.342 278.264 141.666 256.1 141.734L248.814 123.051L252.469 109.166L268.49 105.342Z" fill="#CE8172"/>
<path d="M228.109 207.276C228.109 207.276 229.267 210.535 232.204 210.788C235.141 211.041 235.94 213.926 233.257 214.666C230.575 215.406 223.812 211.983 223.812 211.983L224.014 207.746L228.109 207.276Z" fill="#2361B5"/>
<path d="M185.055 206.776C185.055 206.776 183.897 210.035 180.96 210.295C178.023 210.555 177.261 213.426 179.906 214.166C182.552 214.906 189.359 211.488 189.359 211.488L189.15 207.244L185.055 206.776Z" fill="#2361B5"/>
<path d="M206.719 45.3365L208.565 43.5206C208.878 41.5777 209.26 40.1133 209.26 40.1133C209.932 36.8178 215.111 35.219 217.809 37.9388C218.578 38.6194 219.116 39.5229 219.347 40.5234C219.579 41.5239 219.493 42.5718 219.101 43.5212L216.68 48.0029C215.596 50.7676 213.093 51.5597 211.209 51.739C210.847 51.7697 210.482 51.7287 210.136 51.6183C209.79 51.508 209.469 51.3305 209.191 51.0959C208.913 50.8614 208.685 50.5744 208.518 50.2514C208.352 49.9284 208.25 49.5757 208.22 49.2135C208.179 48.5615 208.179 47.9075 208.22 47.2555L207.069 46.8295C206.92 46.7855 206.784 46.7026 206.677 46.5892C206.57 46.4758 206.495 46.336 206.459 46.184C206.424 46.032 206.429 45.8733 206.475 45.7241C206.521 45.5749 206.605 45.4406 206.72 45.3348L206.719 45.3365Z" fill="#F4A28C"/>
<path d="M218.797 45.5234L220.299 63.5084L210.33 63.6277L213.17 50.8194L218.797 45.5234Z" fill="#F4A28C"/>
<path d="M222.234 38.2934C220.372 39.2352 220.112 41.5366 219.626 43.5242L219.036 45.9979C218.183 46.1727 217.297 46.0444 216.529 45.635C215.76 45.2257 216.884 43.2506 216.554 42.4454C216.126 41.5083 212.465 39.5247 214.582 40.7671C214.648 40.5405 214.663 40.302 214.626 40.0689C214.589 39.8358 214.5 39.614 214.366 39.4194C214.232 39.2249 214.057 39.0625 213.853 38.9441C213.649 38.8256 213.421 38.7541 213.185 38.7346L212.364 38.6526C211.298 38.5214 210.277 38.1509 209.375 37.5688L209.666 33.6831" fill="black"/>
<path d="M222.988 40.6301C221.126 41.5718 220.866 43.8732 220.38 45.8609L219.79 48.3345C218.937 48.5094 218.051 48.381 217.282 47.9717C216.514 47.5624 215.913 46.8977 215.583 46.0925C215.155 45.1554 215.118 43.4401 215.386 42.4455C215.452 42.2189 215.417 42.6387 215.38 42.4056C215.342 42.1725 213.183 40.3034 213.05 40.1089C212.916 39.9143 214.811 41.3992 214.607 41.2807C214.403 41.1623 217.374 43.6332 217.139 43.6138L210.201 38.9405C211.297 38.3564 211.881 38.9405 210.129 38.9405L210.42 36.0198" fill="black"/>
<path d="M214.277 45.7179C214.277 45.7179 214.666 43.6331 216.212 44.0591C217.759 44.4852 217.206 47.4966 215.024 47.4216L214.277 45.7179Z" fill="#F4A28C"/>
<path opacity="0.31" d="M213.049 51.188C214.25 50.9585 215.366 50.4057 216.277 49.5891C216.277 49.5891 216.972 53.4824 212.234 54.8199L213.049 51.188Z" fill="#CE8172"/>
<path d="M234.722 64.2802C234.722 64.2802 208.896 56.5234 182.577 67.4709C156.257 78.4185 196.244 148.788 196.244 148.788H236.568C236.568 148.788 273.946 72.2 234.722 64.2802Z" fill="#E6F3FF"/>
<path d="M220.164 61.8794L215.315 70.8462L210.771 61.6547C213.883 61.0667 217.084 61.143 220.164 61.8788V61.8794Z" fill="#F4A28C"/>
<path d="M241.428 95.6265C241.428 95.6265 233.568 91.3229 230.571 97.295C227.574 103.267 238.292 104.812 244.816 99.8737L241.428 95.6265Z" fill="#F4A28C"/>
<path d="M241.628 96.2203C241.628 96.2203 272.959 132.216 260.08 140.549C247.202 148.883 238.001 101.38 238.001 101.38L241.628 96.2203Z" fill="#F4A28C"/>
<path d="M195.585 73.4565C195.585 73.4565 187.738 63.8692 177.77 69.593C167.802 75.3167 154.762 96.3772 154.762 96.3772L176.775 112.267C176.775 112.267 208.781 84.9111 195.585 73.4565Z" fill="#1894FF"/>
<path d="M188.695 75.5149C195.579 78.8448 197.253 87.9264 192.285 93.7622C185.275 101.949 165.828 117.021 147.26 119.75C117.861 124.076 115.165 82.2794 115.165 82.2794L121.594 80.9107C121.594 80.9107 128.444 108.337 147.742 100.511C163.183 94.2492 177.036 69.87 188.695 75.5149Z" fill="#F4A28C"/>
<path d="M196.207 72.9121C196.207 72.9121 188.102 63.0093 177.806 68.9216C167.51 74.834 154.041 96.5842 154.041 96.5842L176.779 113.001C176.779 113.001 209.837 84.7443 196.207 72.9121Z" fill="#E6F3FF"/>
<path d="M196.267 148.788H236.566L229.832 208.211H222.233L215.539 160.072L190.476 208.211H183.003L196.267 148.788Z" fill="#E6F3FF"/>
<path d="M116.994 93.0505C116.994 93.0505 108.268 79.2675 116.063 78.152C123.858 77.0364 124.221 88.3915 124.221 88.3915L116.994 93.0505Z" fill="#F4A28C"/>
<path d="M84.3845 117.801H41.2793V122.782H84.3845V117.801Z" fill="white"/>
<path d="M47.1295 104.95H40.7031V111.376H47.1295V104.95Z" fill="white"/>
<path d="M71.8991 104.95H65.4727V111.376H71.8991V104.95Z" fill="white"/>
<path d="M59.5143 104.95H53.0879V111.376H59.5143V104.95Z" fill="white"/>
<path d="M84.2838 104.95H77.8574V111.376H84.2838V104.95Z" fill="white"/>
<path d="M84.3845 129.545H41.2793V134.525H84.3845V129.545Z" fill="white"/>
<path d="M84.3867 146.27H41.2815L40.7031 141.868H83.8083L84.3867 146.27Z" fill="white"/>
<path d="M84.3845 153.034H41.2793V158.014H84.3845V153.034Z" fill="white"/>
</svg>
