<svg width="286" height="243" viewBox="0 0 286 243" fill="none" xmlns="http://www.w3.org/2000/svg">
<g clip-path="url(#clip0)">
<rect x="241" y="99" width="14" height="14" fill="#1894FF"/>
<rect x="212" y="16" width="13" height="13" fill="#1894FF"/>
<rect x="235" y="45" width="25.1581" height="25.0488" fill="#1894FF"/>
<path d="M252.519 60.3076C252.553 60.9254 252.46 61.5437 252.246 62.1247C252.033 62.7057 251.702 63.2372 251.275 63.6867C250.848 64.1361 250.333 64.4941 249.762 64.7388C249.192 64.9835 248.577 65.1097 247.955 65.1097C247.334 65.1097 246.719 64.9835 246.148 64.7388C245.577 64.4941 245.062 64.1361 244.635 63.6867C244.208 63.2372 243.878 62.7057 243.664 62.1247C243.45 61.5437 243.357 60.9254 243.392 60.3076C243.392 57.8027 247.962 50.5664 247.962 50.5664C247.962 50.5664 252.519 57.8027 252.519 60.3076Z" fill="white"/>
<rect width="53.1114" height="52.8808" fill="#1894FF"/>
<path d="M39.5 17.6626C33.532 12.2075 27.9832 17.6626 26.921 19.7222C25.2997 16.4102 19.6391 13.2791 15.0268 17.2451C5.83016 25.1633 25.3836 37.7991 26.8651 38.8706C28.4165 37.7991 47.0474 24.551 39.5 17.6626Z" fill="white"/>
<rect x="75" y="29" width="40.5324" height="40.3564" fill="#1894FF"/>
<path d="M98.3112 35.9575H91.4766V61.6465H98.3112V35.9575Z" fill="white"/>
<path d="M107.788 45.4065H81.9873V52.2114H107.788V45.4065Z" fill="white"/>
<path d="M190.075 91.1584C190.075 91.1584 222.36 95.7022 224.685 131.948L202.382 137.249L190.075 91.1584Z" fill="#1894FF"/>
<path d="M222.782 121.417C222.782 121.417 232.688 158.23 210.226 158.299L202.842 139.364L206.546 125.292L222.782 121.417Z" fill="#F4A28C"/>
<path opacity="0.31" d="M222.782 121.417C222.782 121.417 232.688 158.23 210.226 158.299L202.842 139.364L206.546 125.292L222.782 121.417Z" fill="#CE8172"/>
<path d="M189.645 91.0767C189.645 91.0767 222.264 95.154 225.236 132.028L202.847 137.81L189.645 91.0767Z" fill="#E6F3FF"/>
<path d="M181.858 235.722C181.858 235.722 183.032 239.025 186.009 239.281C188.985 239.537 189.795 242.462 187.076 243.212C184.357 243.961 177.504 240.493 177.504 240.493L177.708 236.199L181.858 235.722Z" fill="#2361B5"/>
<path d="M138.225 235.215C138.225 235.215 137.051 238.518 134.075 238.782C131.098 239.046 130.326 241.955 133.007 242.705C135.688 243.454 142.587 239.991 142.587 239.991L142.375 235.69L138.225 235.215Z" fill="#2361B5"/>
<path d="M167.17 72.3883L169.645 71.5149C170.768 69.8667 171.747 68.6865 171.747 68.6865C173.78 65.9509 179.221 66.7097 180.528 70.3655C180.941 71.3208 181.046 72.3811 180.829 73.3989C180.611 74.4168 180.082 75.3416 179.315 76.0446L175.166 79.117C172.983 81.1886 170.345 80.8395 168.539 80.1942C168.193 80.0667 167.876 79.8724 167.606 79.6223C167.335 79.3722 167.117 79.0712 166.963 78.7366C166.809 78.402 166.723 78.0403 166.709 77.6723C166.695 77.3042 166.753 76.937 166.881 76.5917C167.123 75.9755 167.405 75.3753 167.723 74.7947L166.85 73.9091C166.731 73.8043 166.643 73.67 166.593 73.5199C166.543 73.3697 166.534 73.209 166.567 73.0542C166.6 72.8995 166.673 72.7562 166.779 72.639C166.886 72.5218 167.021 72.4349 167.172 72.3872L167.17 72.3883Z" fill="#F4A28C"/>
<path d="M178.173 77.7505L171.821 94.9026L162.621 90.7272L170.733 80.1925L178.173 77.7505Z" fill="#F4A28C"/>
<path d="M184.436 72.5929C182.322 72.6566 181.095 74.6572 179.794 76.2725L178.189 78.2891C177.332 78.083 176.573 77.5841 176.044 76.8782C175.515 76.1724 177.395 74.8427 177.438 73.9617C177.448 72.9177 174.941 69.5234 176.35 71.574C176.508 71.3944 176.624 71.1819 176.69 70.9519C176.756 70.7219 176.77 70.4802 176.731 70.2442C176.692 70.0081 176.601 69.7837 176.464 69.5873C176.328 69.3908 176.149 69.2271 175.942 69.1081L175.223 68.6796C174.301 68.1013 173.523 67.322 172.945 66.4002L174.883 62.9591" fill="black"/>
<path d="M184.123 75.0614C182.009 75.1251 180.781 77.1257 179.481 78.741L177.876 80.7576C177.018 80.5516 176.259 80.0526 175.73 79.3467C175.201 78.6409 174.935 77.7726 174.978 76.8916C174.989 75.8476 175.692 74.2573 176.365 73.4598C176.524 73.2803 176.311 73.6504 176.377 73.4205C176.443 73.1905 175.264 70.547 175.225 70.3109C175.186 70.0749 176.287 72.2522 176.151 72.0558C176.014 71.8593 177.679 75.4043 177.472 75.2854L173.113 68.0142C174.37 67.9493 174.655 68.7365 173.047 67.9832L174.569 65.4276" fill="black"/>
<path d="M173.941 75.9862C173.941 75.9862 175.194 74.2399 176.431 75.2957C177.667 76.3514 175.865 78.8779 173.895 77.871L173.941 75.9862Z" fill="#F4A28C"/>
<path opacity="0.31" d="M170.463 80.4791C171.664 80.7848 172.926 80.7572 174.113 80.3992C174.113 80.3992 173.077 84.2711 168.154 83.4621L170.463 80.4791Z" fill="#CE8172"/>
<path d="M188.56 90.8027C188.56 90.8027 162.387 82.9415 135.713 94.0363C109.039 105.131 149.564 176.448 149.564 176.448H190.43C190.43 176.448 228.311 98.829 188.56 90.8027Z" fill="#E6F3FF"/>
<path d="M166.589 97.6924L164.637 88.0993L169.552 87.6639L174.323 88.2655C172.194 91.7332 169.558 94.9455 166.589 97.6924Z" fill="#F4A28C"/>
<path d="M176.141 149.44C176.141 149.44 169.18 145.629 166.526 150.918C163.872 156.207 173.363 157.575 179.141 153.202L176.141 149.44Z" fill="#F4A28C"/>
<path d="M172.77 149.549C172.77 149.549 218.868 134.923 221.427 150.257C223.986 165.591 176.106 155.001 176.106 155.001L172.77 149.549Z" fill="#F4A28C"/>
<path d="M148.897 100.102C148.897 100.102 140.945 90.3861 130.843 96.1868C120.741 101.988 107.525 123.331 107.525 123.331L129.834 139.435C129.834 139.435 162.272 111.711 148.897 100.102Z" fill="#1894FF"/>
<path d="M141.916 102.188C148.892 105.563 150.589 114.767 145.554 120.681C138.45 128.979 118.741 144.253 99.9228 147.019C70.1282 151.402 67.3963 109.044 67.3963 109.044L73.9119 107.657C73.9119 107.657 80.8536 135.452 100.412 127.521C116.06 121.175 130.099 96.4676 141.916 102.188Z" fill="#F4A28C"/>
<path d="M149.526 99.5507C149.526 99.5507 141.313 89.5146 130.878 95.5065C120.443 101.498 106.794 123.541 106.794 123.541L129.838 140.179C129.838 140.179 163.34 111.542 149.526 99.5507Z" fill="#E6F3FF"/>
<path d="M149.588 176.448H190.43L183.605 236.67H175.903L169.119 187.883L143.719 236.67H136.146L149.588 176.448Z" fill="#E6F3FF"/>
<path d="M69.2495 119.96C69.2495 119.96 60.4056 105.992 68.3054 104.861C76.2053 103.73 76.5736 115.238 76.5736 115.238L69.2495 119.96Z" fill="#F4A28C"/>
<rect x="7" y="74" width="39.1347" height="38.9648" fill="#1894FF"/>
<path d="M34 95.7018C34.002 96.9856 33.6224 98.2412 32.9094 99.3096C32.1964 100.378 31.182 101.211 29.9945 101.704C28.8069 102.197 27.4996 102.327 26.2381 102.077C24.9766 101.828 23.8174 101.211 22.9074 100.304C21.9973 99.3967 21.3773 98.2406 21.1256 96.9816C20.874 95.7226 21.0021 94.4174 21.4938 93.2311C21.9855 92.0449 22.8186 91.0309 23.8877 90.3174C24.9568 89.604 26.214 89.2231 27.5 89.2231C29.2221 89.2231 30.8739 89.9054 32.0926 91.1201C33.3113 92.3348 33.9973 93.9827 34 95.7018Z" fill="white"/>
<path d="M29.125 86.7898H25.875V91.6564H29.125V86.7898Z" fill="white"/>
<path d="M30.0967 86.1363C30.0967 86.3514 29.9899 86.5577 29.7997 86.7098C29.6096 86.8619 29.3517 86.9474 29.0829 86.9474H25.423C25.1541 86.9474 24.8962 86.8619 24.7061 86.7098C24.5159 86.5577 24.4092 86.3514 24.4092 86.1363C24.4092 85.9212 24.5159 85.7149 24.7061 85.5628C24.8962 85.4107 25.1541 85.3252 25.423 85.3252H29.0829C29.3517 85.3252 29.6096 85.4107 29.7997 85.5628C29.9899 85.7149 30.0967 85.9212 30.0967 86.1363Z" fill="white"/>
<rect x="137" width="32.1464" height="32.0068" fill="#1894FF"/>
<g clip-path="url(#clip1)">
<path d="M159.506 13.7514L159.375 13.7499C157.55 13.7499 155.896 14.7606 155.059 16.3569C154.536 16.1229 153.965 15.9999 153.375 15.9999C152.783 15.9999 152.213 16.132 151.692 16.3672C151.553 16.4302 151.47 16.5784 151.482 16.731C151.492 16.8608 151.5 16.9911 151.5 17.1248C151.5 17.736 151.377 18.2963 151.135 18.79C151.07 18.9229 150.936 18.9998 150.798 18.9998C150.743 18.9998 150.686 18.9874 150.633 18.9614C150.447 18.8702 150.37 18.6453 150.462 18.4597C150.653 18.0693 150.75 17.6203 150.75 17.1248C150.75 16.8499 150.692 16.1221 150.682 16.032C150.646 15.7107 150.602 15.3968 150.56 15.1037C150.56 15.103 150.56 15.1023 150.56 15.1016C150.49 14.6152 150.422 14.1427 150.418 13.7495L152.314 13.7499C152.613 13.7499 152.899 13.6314 153.11 13.4203L154.61 11.9203C155.039 11.4915 155.048 10.7997 154.639 10.3592C154.834 10.0618 154.882 9.68096 154.743 9.32318C154.655 9.09836 154.485 8.91449 154.285 8.78069L153.411 8.19858C153.009 7.93045 152.541 7.76645 152.058 7.75193C150.908 7.7173 149.82 8.1494 149.01 8.95956C147.574 10.3962 146.443 12.0412 145.649 13.8491C144.693 16.0273 144.208 17.6342 144.208 18.6248C144.208 19.1925 144.159 19.6535 144.062 19.9955C143.855 20.7261 144.181 21.5054 144.855 21.8906C147.556 23.4338 150.628 24.2497 153.738 24.2497H154.28C156.213 24.2497 158.132 23.937 159.964 23.3237L160.205 23.243C161.277 22.8842 162 21.8802 162 20.7496V16.3782C162 14.9661 160.881 13.7876 159.506 13.7514Z" fill="white"/>
</g>
</g>
<defs>
<clipPath id="clip0">
<rect width="286" height="243" fill="white"/>
</clipPath>
<clipPath id="clip1">
<rect width="18" height="18" fill="white" transform="translate(144 7)"/>
</clipPath>
</defs>
</svg>
