<svg width="286" height="243" viewBox="0 0 286 243" fill="none" xmlns="http://www.w3.org/2000/svg">
<path d="M240.468 77.5483C240.468 77.5483 266.243 81.1759 268.099 110.113L250.293 114.346L240.468 77.5483Z" fill="#1894FF"/>
<path d="M252.968 154.296C252.968 154.296 246.508 160.378 251.213 165.029C255.918 169.68 260.656 160.063 258.005 152.408L252.968 154.296Z" fill="#F4A28C"/>
<path d="M252.498 155.818C252.498 155.818 246.625 106.221 262.674 106.607C278.724 106.992 258.675 153.494 258.675 153.494L252.498 155.818Z" fill="#F4A28C"/>
<path d="M240.125 77.4835C240.125 77.4835 266.167 80.7386 268.539 110.178L250.665 114.794L240.125 77.4835Z" fill="#E6F3FF"/>
<path d="M233.908 192.964C233.908 192.964 234.845 195.601 237.221 195.805C239.598 196.01 240.244 198.345 238.074 198.943C235.903 199.542 230.432 196.773 230.432 196.773L230.595 193.344L233.908 192.964Z" fill="#2361B5"/>
<path d="M199.072 192.559C199.072 192.559 198.135 195.196 195.759 195.407C193.382 195.617 192.766 197.94 194.906 198.539C197.047 199.137 202.555 196.372 202.555 196.372L202.386 192.938L199.072 192.559Z" fill="#2361B5"/>
<path d="M216.603 61.9371L218.097 60.4678C218.35 58.8958 218.659 57.711 218.659 57.711C219.203 55.0445 223.393 53.7509 225.576 55.9515C226.198 56.5022 226.633 57.2332 226.821 58.0427C227.008 58.8523 226.939 59.7001 226.622 60.4683L224.663 64.0945C223.786 66.3314 221.76 66.9723 220.236 67.1174C219.943 67.1422 219.648 67.1091 219.368 67.0198C219.088 66.9305 218.828 66.7869 218.603 66.5971C218.379 66.4073 218.194 66.1751 218.059 65.9137C217.924 65.6524 217.842 65.367 217.818 65.074C217.784 64.5465 217.784 64.0173 217.818 63.4898L216.887 63.1451C216.766 63.1095 216.656 63.0424 216.569 62.9507C216.482 62.8589 216.422 62.7457 216.393 62.6228C216.364 62.4998 216.368 62.3714 216.406 62.2507C216.443 62.13 216.511 62.0213 216.604 61.9357L216.603 61.9371Z" fill="#F4A28C"/>
<path d="M226.372 62.0884L227.588 76.6402L219.522 76.7368L221.82 66.3734L226.372 62.0884Z" fill="#F4A28C"/>
<path d="M228.708 56.3917C227.261 57.3506 227.19 59.4666 226.917 61.3081L226.589 63.599C225.911 63.8038 225.188 63.7335 224.544 63.4002C223.899 63.0669 223.375 62.4915 223.06 61.7734C222.659 60.94 222.525 59.979 222.682 59.0562C222.722 58.8457 222.719 58.6271 222.675 58.4161C222.631 58.2052 222.546 58.0072 222.427 57.8366C222.307 57.6659 222.156 57.5268 221.984 57.4295C221.812 57.3321 221.624 57.2788 221.433 57.2734L220.765 57.2419C219.897 57.1785 219.051 56.894 218.288 56.41L218.291 52.845" fill="black"/>
<path d="M222.717 62.2455C222.717 62.2455 223.031 60.5587 224.282 60.9034C225.534 61.2481 225.087 63.6847 223.321 63.624L222.717 62.2455Z" fill="#F4A28C"/>
<path opacity="0.31" d="M221.724 66.6716C222.696 66.4859 223.599 66.0386 224.335 65.3779C224.335 65.3779 224.898 68.528 221.064 69.6102L221.724 66.6716Z" fill="#CE8172"/>
<path d="M239.259 77.2647C239.259 77.2647 218.363 70.9885 197.067 79.8463C175.772 88.7041 208.126 145.641 208.126 145.641H240.752C240.752 145.641 270.995 83.6727 239.259 77.2647Z" fill="#E6F3FF"/>
<path d="M227.48 75.3217L223.557 82.5769L219.881 75.1399C222.398 74.6641 224.988 74.7259 227.48 75.3212V75.3217Z" fill="#F4A28C"/>
<path d="M189.124 149.156C189.124 149.156 185.506 157.257 191.64 159.736C197.774 162.215 198.44 151.514 193.043 145.472L189.124 149.156Z" fill="#F4A28C"/>
<path d="M189.278 150.738C189.278 150.738 164.746 107.235 179.705 101.407C194.663 95.5776 194.083 146.214 194.083 146.214L189.278 150.738Z" fill="#F4A28C"/>
<path d="M207.593 84.6893C207.593 84.6893 201.245 76.932 193.179 81.5632C185.114 86.1944 174.563 103.235 174.563 103.235L192.374 116.091C192.374 116.091 218.271 93.9572 207.593 84.6893Z" fill="#1894FF"/>
<path d="M208.095 84.2485C208.095 84.2485 201.538 76.236 193.207 81.0198C184.876 85.8035 173.979 103.402 173.979 103.402L192.377 116.685C192.377 116.685 219.124 93.8221 208.095 84.2485Z" fill="#E6F3FF"/>
<path d="M208.145 145.641H240.752L235.303 193.72H229.154L223.739 154.771L203.46 193.72H197.413L208.145 145.641Z" fill="#E6F3FF"/>
<rect x="14" y="190.02" width="146.02" height="84.9322" transform="rotate(-90 14 190.02)" fill="#1894FF"/>
<rect x="20" y="184" width="134" height="73" transform="rotate(-90 20 184)" fill="white"/>
<path d="M87.9637 74.5457C87.9637 74.5457 62.3538 78.15 60.5098 106.902L78.2016 111.107L87.9637 74.5457Z" fill="#1894FF"/>
<path d="M88.3048 74.4804C88.3048 74.4804 62.4294 77.7147 60.0726 106.965L77.832 111.552L88.3048 74.4804Z" fill="#1894FF"/>
<path d="M62.0178 107.274C62.0178 107.274 54.1601 136.476 71.9783 136.53L77.8356 121.51L74.8976 110.348L62.0178 107.274Z" fill="#F4A28C"/>
<path opacity="0.31" d="M62.0178 107.274C62.0178 107.274 54.1601 136.476 71.9783 136.53L77.8356 121.51L74.8976 110.348L62.0178 107.274Z" fill="#CE8172"/>
<path d="M94.4826 189.221C94.4826 189.221 93.5515 191.841 91.1904 192.044C88.8293 192.247 88.1869 194.567 90.3435 195.162C92.5001 195.757 97.9368 193.005 97.9368 193.005L97.7744 189.599L94.4826 189.221Z" fill="#2361B5"/>
<path d="M129.092 188.819C129.092 188.819 130.023 191.439 132.384 191.648C134.745 191.857 135.358 194.165 133.231 194.76C131.105 195.355 125.632 192.608 125.632 192.608L125.8 189.196L129.092 188.819Z" fill="#2361B5"/>
<path d="M111.676 59.0342L110.193 57.5743C109.94 56.0124 109.634 54.8351 109.634 54.8351C109.093 52.1858 104.93 50.9004 102.761 53.087C102.143 53.6341 101.711 54.3604 101.524 55.1647C101.338 55.9691 101.407 56.8115 101.722 57.5747L103.668 61.1777C104.54 63.4003 106.552 64.0371 108.067 64.1812C108.358 64.2059 108.651 64.173 108.929 64.0842C109.208 63.9955 109.466 63.8528 109.689 63.6642C109.912 63.4757 110.096 63.245 110.23 62.9853C110.364 62.7256 110.445 62.4421 110.47 62.1509C110.503 61.6268 110.503 61.101 110.47 60.5769L111.395 60.2344C111.515 60.199 111.624 60.1324 111.71 60.0412C111.796 59.95 111.857 59.8376 111.885 59.7154C111.914 59.5932 111.91 59.4656 111.873 59.3457C111.836 59.2258 111.768 59.1178 111.675 59.0328L111.676 59.0342Z" fill="#F4A28C"/>
<path d="M101.968 59.1841L100.761 73.6426L108.775 73.7386L106.492 63.4416L101.968 59.1841Z" fill="#F4A28C"/>
<path d="M99.2041 55.1053C100.701 55.8624 100.91 57.7125 101.301 59.3104L101.775 61.2991C102.461 61.4396 103.174 61.3364 103.791 61.0074C104.409 60.6783 104.892 60.144 105.157 59.4967C105.501 58.7433 105.571 57.8935 105.356 57.0939C105.303 56.9117 105.291 56.72 105.321 56.5326C105.351 56.3452 105.422 56.1669 105.53 56.0105C105.637 55.8541 105.778 55.7235 105.942 55.6283C106.106 55.5331 106.29 55.4756 106.479 55.46L107.139 55.394C107.996 55.2885 108.817 54.9907 109.542 54.5227L109.308 51.3989" fill="black"/>
<path d="M105.602 59.3404C105.602 59.3404 105.289 57.6643 104.046 58.0069C102.803 58.3494 103.247 60.7704 105.001 60.71L105.602 59.3404Z" fill="#F4A28C"/>
<path opacity="0.31" d="M106.587 63.738C105.621 63.5535 104.724 63.1091 103.992 62.4526C103.992 62.4526 103.433 65.5825 107.242 66.6578L106.587 63.738Z" fill="#CE8172"/>
<path d="M89.1657 74.2635C89.1657 74.2635 109.928 68.0276 131.087 76.8286C152.246 85.6297 120.099 142.201 120.099 142.201H87.682C87.682 142.201 57.6329 80.6305 89.1657 74.2635Z" fill="#1894FF"/>
<path d="M108.353 59.1847H112.101L110.517 64.5011L104.047 60.8982V60.4218L106.053 61.4849C106.172 61.5494 106.306 61.5815 106.441 61.578C106.576 61.5745 106.707 61.5354 106.822 61.4648C106.938 61.3941 107.032 61.2944 107.096 61.1756C107.161 61.0569 107.193 60.9232 107.189 60.7882C107.173 60.4244 107.058 60.0719 106.857 59.7683C106.656 59.4646 106.376 59.2212 106.048 59.0639L105.447 58.7635L104.942 58.1267L106.21 58.7275C106.884 59.0285 107.614 59.1843 108.353 59.1847Z" fill="#1894FF"/>
<path opacity="0.08" d="M93.0096 88.3923H100.705L104.376 110.812H94.4157C94.4157 110.812 90.2587 129.273 104.628 142.201H87.681C87.681 142.201 78.814 120.652 77.1501 112.969L76.3691 96.3221L93.0096 88.3923Z" fill="#1894FF"/>
<path d="M100.868 72.3334L104.767 79.5421L108.419 72.1528C105.918 71.68 103.344 71.7414 100.868 72.3329V72.3334Z" fill="#F4A28C"/>
<path d="M72.6201 82.6978H91.6095L94.417 104.709H75.6957L72.6201 82.6978Z" fill="white"/>
<path opacity="0.08" d="M78.6578 95.241C79.7361 95.4395 80.736 95.9401 81.541 96.6845C82.3461 97.4289 82.9232 98.3866 83.2054 99.4461C84.3588 103.273 93.9707 101.062 93.9707 101.062L94.4335 104.709L77.2344 104.654L78.6578 95.241Z" fill="black"/>
<path d="M78.0039 81.0337L78.8462 84.3559H85.7956L85.1588 81.0337H78.0039Z" fill="#2361B5"/>
<path d="M74.2847 102.21C74.2847 102.21 71.3837 96.6227 75.6244 94.6102C79.8651 92.5977 80.7845 100.149 77.2153 104.654L74.2847 102.21Z" fill="#F4A28C"/>
<path d="M101.3 59.3407C101.3 59.3407 103.901 56.0307 109.71 55.2198C109.71 55.2198 111.969 51.9519 109.061 49.6516C106.154 47.3513 99.2453 49.6876 97.6469 52.8535C96.7522 54.6311 96.1458 59.3767 101.3 59.3407Z" fill="#2361B5"/>
<path d="M74.3262 101.081C74.3262 101.081 58.7718 132.92 69.6106 136.422C80.4494 139.925 77.9189 104.084 77.9189 104.084L74.3262 101.081Z" fill="#F4A28C"/>
<path d="M120.745 83.6065C123.64 77.5989 131.558 76.1274 136.654 80.4528C143.803 86.5562 156.971 103.497 159.374 119.687C163.183 145.321 126.736 147.724 126.736 147.724L125.534 142.119C125.534 142.119 149.444 136.111 142.595 119.291C137.115 105.832 115.836 93.7818 120.745 83.6065Z" fill="#F4A28C"/>
<path d="M120.626 81.6407C120.626 81.6407 126.934 73.9332 134.948 78.5347C142.961 83.1362 153.445 100.067 153.445 100.067L135.749 112.841C135.749 112.841 110.017 90.8493 120.626 81.6407Z" fill="#1894FF"/>
<path d="M120.129 81.2022C120.129 81.2022 126.644 73.2411 134.921 77.9942C143.199 82.7472 154.026 100.233 154.026 100.233L135.747 113.431C135.747 113.431 109.171 90.7144 120.129 81.2022Z" fill="#1894FF"/>
<path d="M120.08 142.201H87.6816L93.0954 189.973H99.205L104.586 151.273L124.735 189.973H130.742L120.08 142.201Z" fill="#E6F3FF"/>
<path d="M125.534 142.117C125.534 142.117 114.919 144.484 118.061 148.69C121.203 152.895 126.736 147.723 126.736 147.723L125.534 142.117Z" fill="#F4A28C"/>
<path d="M96.756 82.7458C96.7017 82.3916 95.5544 74.029 100.961 71.5598V72.3286C96.0012 74.6055 97.3582 82.5413 97.3582 82.6494L96.756 82.7458Z" fill="white"/>
<path d="M111.61 90.0148L111.009 89.8885C114.144 74.6237 108.353 72.1545 108.295 72.1307V71.47C108.57 71.5659 114.854 74.2396 111.61 90.0148Z" fill="white"/>
<path d="M115.058 98.7194L113.889 98.4312C113.889 98.389 114.886 94.226 113.39 92.1611C113.145 91.8285 112.827 91.5569 112.46 91.3672C112.094 91.1776 111.688 91.075 111.275 91.0676C110.863 91.016 110.445 91.0563 110.05 91.1858C109.655 91.3152 109.294 91.5305 108.992 91.8162C107.106 93.6186 107.28 97.9557 107.28 97.9979L106.079 98.0521C106.079 97.8537 105.88 93.168 108.151 90.9572C108.578 90.5476 109.09 90.2372 109.651 90.0482C110.212 89.8592 110.807 89.7962 111.395 89.8636C111.983 89.8834 112.559 90.0364 113.079 90.3111C113.599 90.5858 114.051 90.975 114.399 91.4494C116.2 93.9555 115.1 98.521 115.058 98.7194Z" fill="white"/>
<path d="M111.466 91.523C112.09 91.523 112.596 91.0173 112.596 90.3935C112.596 89.7696 112.09 89.2639 111.466 89.2639C110.843 89.2639 110.337 89.7696 110.337 90.3935C110.337 91.0173 110.843 91.523 111.466 91.523Z" fill="#2361B5"/>
<path d="M97.1612 85.2457C98.3623 85.2457 99.3361 84.272 99.3361 83.0709C99.3361 81.8697 98.3623 80.896 97.1612 80.896C95.96 80.896 94.9863 81.8697 94.9863 83.0709C94.9863 84.272 95.96 85.2457 97.1612 85.2457Z" fill="white"/>
<path d="M97.1615 84.308C97.845 84.308 98.3991 83.7539 98.3991 83.0704C98.3991 82.3869 97.845 81.8328 97.1615 81.8328C96.4779 81.8328 95.9238 82.3869 95.9238 83.0704C95.9238 83.7539 96.4779 84.308 97.1615 84.308Z" fill="#2361B5"/>
<path d="M108.502 104.048C105.949 102.775 106.327 96.9478 106.345 96.7021L106.946 96.7443C106.946 96.8042 106.572 102.415 108.748 103.515L108.502 104.048Z" fill="white"/>
<path d="M108.852 104.649C109.409 104.649 109.861 104.197 109.861 103.64C109.861 103.082 109.409 102.631 108.852 102.631C108.295 102.631 107.843 103.082 107.843 103.64C107.843 104.197 108.295 104.649 108.852 104.649Z" fill="white"/>
<path d="M111.801 103.945L111.608 103.38C113.939 102.605 114.378 96.9937 114.384 96.9338L114.984 96.9806C114.961 97.2235 114.51 103.051 111.801 103.945Z" fill="white"/>
<path d="M111.52 104.504C112.077 104.504 112.529 104.053 112.529 103.495C112.529 102.938 112.077 102.486 111.52 102.486C110.963 102.486 110.511 102.938 110.511 103.495C110.511 104.053 110.963 104.504 111.52 104.504Z" fill="white"/>
<path d="M38 115C38 115.793 37.7645 116.567 37.3236 117.226C36.8827 117.884 36.2561 118.397 35.5233 118.699C34.7906 119 33.9847 119.078 33.2079 118.921C32.4312 118.764 31.7186 118.38 31.1604 117.817C30.6023 117.255 30.2238 116.539 30.073 115.761C29.9223 114.983 30.006 114.178 30.3136 113.447C30.6212 112.717 31.1387 112.095 31.8007 111.659C32.4626 111.223 33.239 110.994 34.0315 111C35.0869 111.008 36.0962 111.434 36.8396 112.183C37.5829 112.932 38 113.945 38 115Z" fill="#1894FF"/>
<path d="M84.7964 90.1931H83.207V96.1671H84.7964V90.1931Z" fill="#1894FF"/>
<path d="M87 92.3904H81V93.9729H87V92.3904Z" fill="#1894FF"/>
<path d="M45.605 61.3176C45.51 61.3176 45.4226 61.2976 45.3429 61.2578C45.2632 61.2179 45.1958 61.1643 45.1406 61.0968C45.0854 61.0294 45.0455 60.9527 45.021 60.8669C44.9965 60.778 44.9934 60.6876 45.0118 60.5956L45.09 60.1771C45.1023 60.1066 45.1268 60.0422 45.1636 59.984C45.2004 59.9227 45.2448 59.8705 45.2969 59.8276C45.3491 59.7847 45.4073 59.751 45.4717 59.7265C45.5391 59.7019 45.6096 59.6897 45.6832 59.6897H45.9407C46.0296 59.6897 46.1124 59.7065 46.1891 59.7403C46.2688 59.774 46.3377 59.82 46.396 59.8782C46.4542 59.9334 46.5002 60.0008 46.5339 60.0805C46.5677 60.1572 46.5845 60.24 46.5845 60.3289V60.9405H46.9478C46.9662 60.9405 46.9815 60.9481 46.9938 60.9635C47.0061 60.9757 47.0122 60.9895 47.0122 61.0049V61.2532C47.0122 61.2961 46.9907 61.3176 46.9478 61.3176H46.5799V61.3727C46.5738 61.5812 46.5079 61.7682 46.3822 61.9338C46.2596 62.1024 46.0971 62.2219 45.8947 62.2925L45.3705 62.4718L45.2693 62.1545L45.8212 61.9706C45.953 61.9246 46.0588 61.8464 46.1385 61.736C46.2212 61.6287 46.2626 61.5046 46.2626 61.3635V61.2808C46.2381 61.2961 46.209 61.3068 46.1753 61.313C46.1446 61.316 46.1124 61.3176 46.0787 61.3176H45.605ZM45.5728 60.9405H46.2672V60.3289C46.2672 60.2492 46.2381 60.1817 46.1799 60.1265C46.1247 60.0683 46.0572 60.0392 45.9775 60.0392H45.674C45.6035 60.0392 45.5422 60.0606 45.4901 60.1035C45.438 60.1465 45.4042 60.2032 45.3889 60.2737L45.3199 60.6416C45.3046 60.7213 45.323 60.7918 45.3751 60.8531C45.4272 60.9114 45.4931 60.9405 45.5728 60.9405Z" fill="#1894FF"/>
<path d="M47.2433 59.377H47.6342V58.9861H47.2433V59.377ZM47.8733 59.377H48.2642V58.9861H47.8733V59.377ZM48.6045 61.2532C48.6045 61.2961 48.583 61.3176 48.5401 61.3176H48.255C48.2029 61.3176 48.1508 61.3099 48.0986 61.2946C48.0465 61.2792 47.9975 61.2578 47.9515 61.2302C47.9055 61.2026 47.8656 61.1704 47.8319 61.1336C47.7982 61.0968 47.7752 61.057 47.7629 61.0141C47.7108 61.103 47.6357 61.1765 47.5376 61.2348C47.4426 61.29 47.3414 61.3176 47.2341 61.3176H46.949C46.9061 61.3176 46.8846 61.2961 46.8846 61.2532V61.0095C46.8846 60.9911 46.8908 60.9757 46.903 60.9635C46.9153 60.9481 46.9306 60.9405 46.949 60.9405H47.2479C47.3368 60.9405 47.4135 60.9129 47.4778 60.8577C47.5453 60.8025 47.5882 60.7335 47.6066 60.6508L47.7492 59.9242L48.0619 59.9748L47.9423 60.5818C47.9331 60.6278 47.9346 60.6738 47.9469 60.7197C47.9592 60.7627 47.9806 60.801 48.0113 60.8347C48.0419 60.8654 48.0787 60.8914 48.1216 60.9129C48.1646 60.9313 48.2105 60.9405 48.2596 60.9405H48.5401C48.5585 60.9405 48.5738 60.9481 48.5861 60.9635C48.5984 60.9757 48.6045 60.9911 48.6045 61.0095V61.2532Z" fill="#1894FF"/>
<path d="M48.833 62.2603H49.2239V61.8694H48.833V62.2603ZM49.463 62.2603H49.8539V61.8694H49.463V62.2603ZM50.1942 61.2532C50.1942 61.2961 50.1728 61.3176 50.1298 61.3176H49.8447C49.7926 61.3176 49.7405 61.3099 49.6884 61.2946C49.6363 61.2792 49.5872 61.2578 49.5412 61.2302C49.4952 61.2026 49.4554 61.1704 49.4217 61.1336C49.3879 61.0968 49.3649 61.057 49.3527 61.0141C49.3006 61.103 49.2255 61.1765 49.1274 61.2348C49.0323 61.29 48.9311 61.3176 48.8238 61.3176H48.5387C48.4958 61.3176 48.4744 61.2961 48.4744 61.2532V61.0095C48.4744 60.9911 48.4805 60.9757 48.4928 60.9635C48.505 60.9481 48.5203 60.9405 48.5387 60.9405H48.8376C48.9265 60.9405 49.0032 60.9129 49.0676 60.8577C49.135 60.8025 49.1779 60.7335 49.1963 60.6508L49.3389 59.9242L49.6516 59.9748L49.532 60.5818C49.5228 60.6278 49.5244 60.6738 49.5366 60.7197C49.5489 60.7627 49.5703 60.801 49.601 60.8347C49.6317 60.8654 49.6684 60.8914 49.7114 60.9129C49.7543 60.9313 49.8003 60.9405 49.8493 60.9405H50.1298C50.1482 60.9405 50.1636 60.9481 50.1758 60.9635C50.1881 60.9757 50.1942 60.9911 50.1942 61.0095V61.2532Z" fill="#1894FF"/>
<path d="M50.6849 60.9405C50.7769 60.9405 50.855 60.9083 50.9194 60.8439C50.9838 60.7795 51.016 60.7029 51.016 60.614V59.7678H51.3333V60.614C51.3333 60.7121 51.3149 60.8041 51.2781 60.8899C51.2413 60.9757 51.1907 61.0508 51.1264 61.1152C51.062 61.1765 50.9869 61.2256 50.901 61.2624C50.8183 61.2992 50.7278 61.3176 50.6297 61.3176H50.1285C50.0856 61.3176 50.0641 61.2961 50.0641 61.2532V61.0095C50.0641 60.9911 50.0702 60.9757 50.0825 60.9635C50.0947 60.9481 50.1101 60.9405 50.1285 60.9405H50.6849ZM50.9654 59.2206H51.3563V58.8297H50.9654V59.2206Z" fill="#1894FF"/>
<path d="M52.9204 61.2532C52.9204 61.2961 52.8989 61.3176 52.856 61.3176H52.6858C52.5908 61.3176 52.5004 61.2992 52.4145 61.2624C52.3287 61.2256 52.2536 61.175 52.1892 61.1106C52.1248 61.0462 52.0742 60.9711 52.0374 60.8853C52.0007 60.7995 51.9823 60.709 51.9823 60.614V58.2871H52.2996V60.6094C52.2996 60.7014 52.3318 60.7795 52.3961 60.8439C52.4636 60.9083 52.5418 60.9405 52.6307 60.9405H52.856C52.8744 60.9405 52.8897 60.9481 52.902 60.9635C52.9142 60.9757 52.9204 60.9911 52.9204 61.0095V61.2532Z" fill="#1894FF"/>
<path d="M53.9304 60.9405H54.6294V60.3243C54.6294 60.2446 54.6003 60.1771 54.542 60.1219C54.4869 60.0637 54.4179 60.0346 54.3351 60.0346H54.0362C53.9657 60.0346 53.9044 60.0576 53.8523 60.1035C53.8001 60.1465 53.7664 60.2016 53.7511 60.2691L53.6821 60.6416C53.6668 60.7213 53.6836 60.7918 53.7327 60.8531C53.7848 60.9114 53.8507 60.9405 53.9304 60.9405ZM53.3556 60.6508L53.4522 60.1771C53.4644 60.1066 53.489 60.0407 53.5258 59.9794C53.5626 59.9181 53.607 59.8659 53.6591 59.823C53.7112 59.7801 53.7695 59.7464 53.8339 59.7219C53.9013 59.6973 53.9718 59.6851 54.0454 59.6851H54.3029C54.3918 59.6851 54.4746 59.7019 54.5512 59.7357C54.6309 59.7694 54.6999 59.8154 54.7582 59.8736C54.8164 59.9319 54.8624 59.9993 54.8961 60.0759C54.9299 60.1526 54.9467 60.2354 54.9467 60.3243V60.9037C54.9467 61.0263 54.9084 61.126 54.8318 61.2026C54.7582 61.2792 54.657 61.3176 54.5282 61.3176H53.9672C53.8691 61.3176 53.7787 61.2946 53.6959 61.2486C53.6162 61.1995 53.5503 61.1214 53.4982 61.0141C53.443 61.1214 53.3694 61.1995 53.2774 61.2486C53.1855 61.2946 53.0889 61.3176 52.9877 61.3176H52.8544C52.8115 61.3176 52.79 61.2961 52.79 61.2532V61.0049C52.79 60.9895 52.7961 60.9757 52.8084 60.9635C52.8207 60.9481 52.836 60.9405 52.8544 60.9405H53.0015C53.0904 60.9405 53.1671 60.9129 53.2315 60.8577C53.2989 60.8025 53.3403 60.7335 53.3556 60.6508Z" fill="#1894FF"/>
<path d="M54.7251 62.4626L54.6239 62.1499L55.1849 61.966C55.3137 61.923 55.4179 61.8449 55.4976 61.7314C55.5804 61.618 55.6218 61.4923 55.6218 61.3543V59.8966H55.9345V61.3268C55.9345 61.4341 55.9176 61.5368 55.8839 61.6349C55.8533 61.736 55.8073 61.828 55.746 61.9108C55.6877 61.9966 55.6157 62.0702 55.5298 62.1315C55.4471 62.1959 55.3551 62.2465 55.2539 62.2833L54.7251 62.4626Z" fill="#1894FF"/>
<path d="M57.1224 61.3176C57.0549 61.3176 56.9905 61.3053 56.9292 61.2808C56.8679 61.2532 56.8143 61.2164 56.7683 61.1704C56.7254 61.1244 56.6901 61.0708 56.6625 61.0095C56.638 60.9481 56.6257 60.8838 56.6257 60.8163V60.3289H56.897V60.7473C56.897 60.7995 56.9124 60.8454 56.943 60.8853C56.9737 60.9221 57.0197 60.9405 57.081 60.9405H57.803C57.8949 60.9405 57.97 60.9205 58.0283 60.8807C58.0865 60.8408 58.1295 60.7933 58.157 60.7381C58.1846 60.6799 58.1969 60.617 58.1938 60.5496C58.1908 60.4822 58.1739 60.4208 58.1433 60.3657L57.6144 59.423L57.8811 59.2436L58.4054 60.1817C58.482 60.3135 58.5188 60.4484 58.5157 60.5864C58.5157 60.7213 58.4851 60.8424 58.4238 60.9497C58.3655 61.057 58.2797 61.1459 58.1662 61.2164C58.0559 61.2838 57.9287 61.3176 57.7846 61.3176H57.1224Z" fill="#1894FF"/>
<path d="M61.668 62.5563V62.1563H62.3561V61.4456H62.7734V62.1563H63.4633V62.5563H62.7734V63.2758H62.3561V62.5563H61.668Z" fill="#1894FF"/>
<path fill-rule="evenodd" clip-rule="evenodd" d="M62.3297 61.4202H62.7982V62.131H63.488V62.582H62.7982V63.3015H62.3297V62.582H61.6416V62.131H62.3297V61.4202ZM62.3808 61.4713V62.1821H61.6927V62.5309H62.3808V63.2504H62.7471V62.5309H63.4369V62.1821H62.7471V61.4713H62.3808Z" fill="#1894FF"/>
<path fill-rule="evenodd" clip-rule="evenodd" d="M61.8688 57.4088C61.248 57.4088 60.7447 57.912 60.7447 58.5329V63.1314C60.7447 63.7522 61.248 64.2555 61.8688 64.2555H66.4673C67.0882 64.2555 67.5914 63.7522 67.5914 63.1314V58.5329C67.5914 57.912 67.0882 57.4088 66.4673 57.4088H61.8688ZM60.3359 58.5329C60.3359 57.6863 61.0222 57 61.8688 57H66.4673C67.3139 57 68.0002 57.6863 68.0002 58.5329V63.1314C68.0002 63.978 67.3139 64.6643 66.4673 64.6643H61.8688C61.0222 64.6643 60.3359 63.978 60.3359 63.1314V58.5329Z" fill="#1894FF"/>
</svg>
