<svg width="16" height="17" viewBox="0 0 16 17" fill="none" xmlns="http://www.w3.org/2000/svg">
<path d="M4.33333 2.19434H11.6667C11.7702 2.19434 11.8722 2.21843 11.9648 2.26472C12.0574 2.311 12.1379 2.37821 12.2 2.461L14 4.861V14.861C14 15.0378 13.9298 15.2074 13.8047 15.3324C13.6797 15.4574 13.5101 15.5277 13.3333 15.5277H2.66667C2.48986 15.5277 2.32029 15.4574 2.19526 15.3324C2.07024 15.2074 2 15.0378 2 14.861V4.861L3.8 2.461C3.8621 2.37821 3.94262 2.311 4.03519 2.26472C4.12776 2.21843 4.22984 2.19434 4.33333 2.19434ZM12.6667 6.19434H3.33333V14.1943H12.6667V6.19434ZM12.3333 4.861L11.3333 3.52767H4.66667L3.66667 4.861H12.3333ZM6 7.52767V8.861C6 9.39144 6.21071 9.90014 6.58579 10.2752C6.96086 10.6503 7.46957 10.861 8 10.861C8.53043 10.861 9.03914 10.6503 9.41421 10.2752C9.78929 9.90014 10 9.39144 10 8.861V7.52767H11.3333V8.861C11.3333 9.74506 10.9821 10.5929 10.357 11.218C9.7319 11.8431 8.88406 12.1943 8 12.1943C7.11595 12.1943 6.2681 11.8431 5.64298 11.218C5.01786 10.5929 4.66667 9.74506 4.66667 8.861V7.52767H6Z" fill="#1894FF"/>
</svg>
