<svg width="202" height="249" viewBox="0 0 202 249" fill="none" xmlns="http://www.w3.org/2000/svg">
<path d="M2.073 21.94C1.52318 21.9408 0.996109 22.1596 0.60733 22.5483C0.218552 22.9371 -0.000182986 23.4642 -0.000976562 24.014V245.962C-0.000182986 246.512 0.218552 247.039 0.60733 247.428C0.996109 247.816 1.52318 248.035 2.073 248.036H180.873C181.423 248.035 181.95 247.816 182.339 247.428C182.727 247.039 182.946 246.512 182.947 245.962V24.014C182.946 23.4642 182.727 22.9371 182.339 22.5483C181.95 22.1596 181.423 21.9408 180.873 21.94H2.073Z" fill="#1894FF"/>
<path d="M177.282 48.6C190.493 48.6 201.202 37.8907 201.202 24.68C201.202 11.4694 190.493 0.76001 177.282 0.76001C164.072 0.76001 153.362 11.4694 153.362 24.68C153.362 37.8907 164.072 48.6 177.282 48.6Z" fill="#00DE9A"/>
<path d="M167.317 23.101C166.898 23.101 166.497 23.2673 166.201 23.5634C165.905 23.8594 165.738 24.2609 165.738 24.6795C165.738 25.0982 165.905 25.4997 166.201 25.7957C166.497 26.0917 166.898 26.258 167.317 26.258H175.705V34.646C175.705 35.0647 175.871 35.4662 176.167 35.7622C176.463 36.0582 176.865 36.2245 177.283 36.2245C177.702 36.2245 178.103 36.0582 178.399 35.7622C178.695 35.4662 178.862 35.0647 178.862 34.646V26.258H187.25C187.668 26.258 188.07 26.0917 188.366 25.7957C188.662 25.4997 188.828 25.0982 188.828 24.6795C188.828 24.2609 188.662 23.8594 188.366 23.5634C188.07 23.2673 187.668 23.101 187.25 23.101H178.862V14.713C178.862 14.2944 178.695 13.8929 178.399 13.5969C178.103 13.3008 177.702 13.1345 177.283 13.1345C176.865 13.1345 176.463 13.3008 176.167 13.5969C175.871 13.8929 175.705 14.2944 175.705 14.713V23.101H167.317Z" fill="white"/>
<path d="M27 115.86H155.733" stroke="white" stroke-width="5"/>
<path d="M27 147.86H155.733" stroke="white" stroke-width="5"/>
<path d="M27 179.86H155.733" stroke="white" stroke-width="5"/>
<path d="M27 211.86H155.733" stroke="white" stroke-width="5"/>
</svg>
