<svg width="100" height="101" viewBox="0 0 100 101" fill="none" xmlns="http://www.w3.org/2000/svg">
<path opacity="0.9" d="M29.4889 40.6386L22.4876 47.6384L44.9911 70.1388L94.9994 20.1381L87.9981 13.139L44.9911 56.1385L29.4889 40.6386ZM89.998 50.1387C89.9992 58.0515 87.6539 65.7869 83.2586 72.3667C78.8634 78.9465 72.6156 84.0752 65.3055 87.1041C57.9953 90.133 49.9512 90.926 42.1903 89.383C34.4294 87.84 27.3004 84.0302 21.7048 78.4353C16.1093 72.8405 12.2985 65.712 10.7544 57.9513C9.21036 50.1906 10.0024 42.1464 13.0303 34.8358C16.0582 27.5253 21.186 21.2768 27.7653 16.8807C34.3445 12.4846 42.0797 10.1382 49.9925 10.1384C53.7125 10.1114 57.4174 10.6166 60.9944 11.6387L68.9926 3.63894C62.9943 1.63825 56.4926 0.138672 49.9925 0.138672C40.1037 0.140167 30.4375 3.07389 22.216 8.56886C13.9945 14.0638 7.5871 21.8733 3.80388 31.0097C0.020654 40.1462 -0.968434 50.1993 0.96168 59.8978C2.89179 69.5964 7.65443 78.5048 14.6474 85.4967C21.6403 92.4885 30.5494 97.2498 40.2483 99.1785C49.9471 101.107 60.0001 100.117 69.1359 96.3319C78.2718 92.5473 86.0803 86.1387 91.574 77.9164C97.0677 69.6941 100 60.0274 100 50.1387H89.998Z" fill="white"/>
</svg>
