<svg width="18" height="18" viewBox="0 0 18 18" fill="none" xmlns="http://www.w3.org/2000/svg">
<path d="M4.44878 17.2902H1.28474C1.08402 17.2895 0.891786 17.2092 0.750045 17.0671C0.608305 16.925 0.528592 16.7326 0.528332 16.5319V13.3678C0.527379 13.069 0.5858 12.7729 0.700203 12.4968C0.814606 12.2208 0.982711 11.9702 1.19476 11.7596L11.8096 1.14718C12.236 0.721504 12.8139 0.482422 13.4164 0.482422C14.0189 0.482422 14.5967 0.721504 15.0231 1.14718L16.6704 2.79347C17.0961 3.22042 17.3352 3.79876 17.3352 4.4017C17.3352 5.00463 17.0961 5.58297 16.6704 6.00992L6.058 16.6238C5.84704 16.8356 5.59623 17.0036 5.32003 17.1179C5.04384 17.2323 4.74772 17.2909 4.44878 17.2902ZM10.3848 4.71513L2.26707 12.8334C2.1965 12.9036 2.14054 12.9871 2.10244 13.0791C2.06434 13.1711 2.04485 13.2697 2.0451 13.3693V15.7735H4.44878C4.5485 15.7738 4.6473 15.7543 4.73946 15.7162C4.83161 15.6781 4.9153 15.6221 4.98568 15.5515L13.1029 7.43473L10.3838 4.71563L10.3848 4.71513ZM13.4174 1.99603C13.3177 1.99583 13.219 2.01534 13.127 2.05344C13.0349 2.09153 12.9513 2.14746 12.881 2.21801L11.4571 3.64529L14.1762 6.36439L15.6011 4.93958C15.7426 4.79722 15.822 4.60464 15.822 4.40392C15.822 4.20319 15.7426 4.01062 15.6011 3.86826L13.9533 2.21949C13.8831 2.1489 13.7995 2.09293 13.7076 2.05482C13.6156 2.01672 13.5169 1.99724 13.4174 1.99751V1.99603Z" fill="#1894FF"/>
</svg>
