<svg width="87" height="106" viewBox="0 0 87 106" fill="none" xmlns="http://www.w3.org/2000/svg">
<path d="M12.4233 14.9111H59.8083V34.2321H12.4233V14.9111Z" fill="#2361B5"/>
<path d="M61.1293 27.4843C44.4869 25.9935 27.7446 25.9935 11.1023 27.4843C8.60326 27.7029 6.26274 28.8006 4.49691 30.5824C2.73108 32.3642 1.65438 34.7144 1.45827 37.2153C0.00740027 56.191 0.00740027 75.2497 1.45827 94.2253C1.65438 96.7262 2.73108 99.0765 4.49691 100.858C6.26274 102.64 8.60326 103.738 11.1023 103.956C27.7446 105.447 44.4869 105.447 61.1293 103.956C63.6283 103.738 65.9688 102.64 67.7346 100.858C69.5005 99.0765 70.5772 96.7262 70.7733 94.2253C72.2242 75.2497 72.2242 56.1909 70.7733 37.2153C70.5772 34.7144 69.5005 32.3642 67.7346 30.5824C65.9688 28.8006 63.6283 27.7029 61.1293 27.4843Z" fill="#1894FF"/>
<path d="M15.8183 104.336C14.247 104.221 12.6756 104.093 11.1043 103.954C8.60531 103.735 6.26491 102.637 4.49926 100.855C2.73361 99.0734 1.65715 96.723 1.4613 94.2221C0.00964522 75.2471 0.00964522 56.189 1.4613 37.2141C1.65738 34.7134 2.73394 32.3632 4.49956 30.5815C6.26519 28.7997 8.60546 27.7019 11.1043 27.4831C12.6756 27.3424 14.2476 27.2151 15.8203 27.1011C14.6829 28.0764 13.7488 29.2663 13.0714 30.6028C12.394 31.9393 11.9865 33.3961 11.8723 34.8901C10.3031 55.4131 10.3031 76.026 11.8723 96.5491C12.1032 99.5653 13.5226 102.366 15.8183 104.336Z" fill="#2361B5"/>
<path d="M59.4304 84.8951C59.2985 86.5775 58.5742 88.1585 57.3862 89.3569C56.1981 90.5554 54.6235 91.2936 52.9424 91.4401C41.7471 92.4422 30.4847 92.4422 19.2894 91.4401C17.6087 91.2924 16.0347 90.5538 14.847 89.3556C13.6592 88.1574 12.9344 86.577 12.8014 84.8951C11.8266 72.1304 11.8266 59.3099 12.8014 46.5451C12.9353 44.8633 13.6603 43.2833 14.8479 42.0849C16.0354 40.8866 17.6089 40.1473 19.2894 39.9981C30.4847 38.9961 41.7471 38.9961 52.9424 39.9981C54.6237 40.1452 56.1983 40.8837 57.3863 42.0825C58.5743 43.2813 59.2986 44.8626 59.4304 46.5451C60.405 59.3099 60.405 72.1304 59.4304 84.8951Z" fill="white"/>
<path d="M14.9475 0.968078C12.866 1.15386 10.9178 2.07135 9.44877 3.55758C7.97975 5.04382 7.08501 7.00261 6.92348 9.08608C6.81615 10.5061 6.71848 11.9261 6.63048 13.3461C6.57927 14.1571 6.69471 14.9699 6.9697 15.7346C7.24469 16.4993 7.6734 17.1995 8.22938 17.7921C8.78537 18.3847 9.45685 18.8572 10.2024 19.1803C10.948 19.5035 11.7519 19.6705 12.5645 19.6711H59.6645C60.4771 19.6705 61.281 19.5035 62.0265 19.1803C62.7721 18.8572 63.4436 18.3847 63.9996 17.7921C64.5556 17.1995 64.9843 16.4993 65.2593 15.7346C65.5343 14.9699 65.6497 14.1571 65.5985 13.3461C65.5105 11.9261 65.4128 10.5057 65.3055 9.08508C65.1441 7.00208 64.2497 5.04366 62.7813 3.55749C61.3129 2.07131 59.3654 1.15354 57.2845 0.967078C43.202 -0.32301 29.031 -0.32301 14.9485 0.967078L14.9475 0.968078Z" fill="#82EEFF"/>
<path d="M24.488 19.6711H12.565C11.7523 19.6706 10.9484 19.5035 10.2027 19.1803C9.45708 18.8571 8.78555 18.3846 8.22955 17.7918C7.67355 17.1991 7.24487 16.4988 6.96995 15.734C6.69502 14.9692 6.57968 14.1562 6.63103 13.3451C6.7197 11.9265 6.81803 10.5061 6.92603 9.08414C7.08753 7.00083 7.98212 5.04217 9.45094 3.55595C10.9198 2.06974 12.8678 1.15215 14.949 0.966145C18.6077 0.632811 22.2657 0.385145 25.923 0.223145C24.49 1.0452 23.2842 2.21123 22.4146 3.61595C21.5449 5.02068 21.0389 6.61987 20.942 8.26914C20.8287 9.86914 20.7254 11.4661 20.632 13.0601C20.5296 14.423 20.8434 15.7848 21.532 16.9653C22.2205 18.1458 23.2514 19.0894 24.488 19.6711Z" fill="#38DFFA"/>
<path d="M48.4842 59.5493C47.0075 59.4826 45.5312 59.4309 44.0552 59.3943C43.6259 59.3829 43.2174 59.2073 42.9138 58.9037C42.6102 58.6 42.4346 58.1915 42.4232 57.7623C42.3832 56.2856 42.3315 54.8093 42.2682 53.3333C42.2534 52.9613 42.1143 52.605 41.8732 52.3213C41.6321 52.0376 41.3029 51.8429 40.9382 51.7683C37.9215 51.1671 34.8159 51.1671 31.7992 51.7683C31.4344 51.8429 31.1052 52.0376 30.8641 52.3213C30.6231 52.605 30.484 52.9613 30.4692 53.3333C30.4025 54.8099 30.3509 56.2863 30.3142 57.7623C30.3028 58.1915 30.1272 58.6 29.8236 58.9037C29.52 59.2073 29.1114 59.3829 28.6822 59.3943C27.2055 59.4343 25.7292 59.4859 24.2532 59.5493C23.8812 59.5641 23.5249 59.7031 23.2412 59.9442C22.9575 60.1853 22.7628 60.5145 22.6882 60.8793C22.087 63.896 22.087 67.0016 22.6882 70.0183C22.7628 70.383 22.9575 70.7122 23.2412 70.9533C23.5249 71.1944 23.8812 71.3335 24.2532 71.3483C25.7299 71.4149 27.2062 71.4666 28.6822 71.5033C29.1114 71.5146 29.52 71.6902 29.8236 71.9939C30.1272 72.2975 30.3028 72.706 30.3142 73.1353C30.3542 74.6119 30.4059 76.0883 30.4692 77.5643C30.484 77.9363 30.6231 78.2926 30.8641 78.5763C31.1052 78.86 31.4344 79.0547 31.7992 79.1293C34.8159 79.7304 37.9215 79.7304 40.9382 79.1293C41.3029 79.0547 41.6321 78.86 41.8732 78.5763C42.1143 78.2926 42.2534 77.9363 42.2682 77.5643C42.3349 76.0876 42.3865 74.6113 42.4232 73.1353C42.4346 72.706 42.6102 72.2975 42.9138 71.9939C43.2174 71.6902 43.6259 71.5146 44.0552 71.5033C45.5319 71.4633 47.0082 71.4116 48.4842 71.3483C48.8562 71.3335 49.2125 71.1944 49.4962 70.9533C49.7799 70.7122 49.9746 70.383 50.0492 70.0183C50.6503 67.0016 50.6503 63.896 50.0492 60.8793C49.9746 60.5145 49.7799 60.1853 49.4962 59.9442C49.2125 59.7031 48.8562 59.5641 48.4842 59.5493Z" fill="#04E890"/>
<path d="M67.8125 85.3101L63.7305 95.0861L67.8125 105.071C70.8691 105.071 73.9265 105.025 76.9845 104.934C79.5003 104.861 81.8895 103.814 83.649 102.014C85.4084 100.214 86.4009 97.8019 86.4174 95.285V95.0981C86.4014 92.581 85.4091 90.1685 83.6495 88.3686C81.8899 86.5688 79.5005 85.522 76.9845 85.449C73.9278 85.3564 70.8705 85.3101 67.8125 85.3101Z" fill="#2361B5"/>
<path d="M67.8125 105.072C70.8698 105.072 73.9272 105.026 76.9845 104.932C79.5002 104.86 81.8894 103.814 83.649 102.014C85.4086 100.215 86.4012 97.8028 86.4175 95.2862V95.2202C86.4075 96.8482 82.2045 98.1782 76.9845 98.2272C73.9265 98.2552 69.6425 98.2692 66.5845 98.2692" fill="#1894FF"/>
<path d="M49.2085 95.0961V95.2851C49.2251 97.8016 50.2177 100.214 51.9772 102.013C53.7368 103.812 56.1259 104.858 58.6415 104.931C61.6982 105.024 64.7555 105.071 67.8135 105.071V85.3101C64.7568 85.3101 61.6995 85.3567 58.6415 85.4501C56.126 85.5231 53.737 86.5693 51.9775 88.3686C50.218 90.1678 49.2253 92.5796 49.2085 95.0961Z" fill="#38DFFA"/>
<path d="M49.2085 95.2202V95.2862C49.2253 97.8027 50.218 100.215 51.9775 102.014C53.737 103.813 56.126 104.859 58.6415 104.932C61.6981 105.026 64.7555 105.072 67.8135 105.072V98.2722C64.7568 98.2722 61.6995 98.2582 58.6415 98.2302C53.4215 98.1782 49.2205 96.8482 49.2085 95.2202Z" fill="#82EEFF"/>
</svg>
