<svg width="16" height="17" viewBox="0 0 16 17" fill="none" xmlns="http://www.w3.org/2000/svg">
<path d="M13.334 4.19466H2.66732V13.528L8.86198 7.332C8.987 7.20701 9.15654 7.1368 9.33332 7.1368C9.51009 7.1368 9.67963 7.20701 9.80465 7.332L13.334 10.868V4.19466ZM1.33398 3.52333C1.3352 3.34825 1.40525 3.18067 1.52899 3.05681C1.65273 2.93294 1.82024 2.86272 1.99532 2.86133H14.006C14.3713 2.86133 14.6673 3.15799 14.6673 3.52333V14.1993C14.6661 14.3744 14.5961 14.542 14.4723 14.6658C14.3486 14.7897 14.1811 14.8599 14.006 14.8613H1.99532C1.81986 14.8612 1.65165 14.7913 1.52764 14.6672C1.40364 14.5431 1.33398 14.3748 1.33398 14.1993V3.52333ZM5.33398 8.19466C4.98036 8.19466 4.64122 8.05419 4.39118 7.80414C4.14113 7.55409 4.00065 7.21495 4.00065 6.86133C4.00065 6.50771 4.14113 6.16857 4.39118 5.91852C4.64122 5.66847 4.98036 5.52799 5.33398 5.52799C5.68761 5.52799 6.02674 5.66847 6.27679 5.91852C6.52684 6.16857 6.66732 6.50771 6.66732 6.86133C6.66732 7.21495 6.52684 7.55409 6.27679 7.80414C6.02674 8.05419 5.68761 8.19466 5.33398 8.19466Z" fill="#1894FF"/>
</svg>
