<svg width="25" height="25" viewBox="0 0 25 25" fill="none" xmlns="http://www.w3.org/2000/svg">
<path d="M18.6991 19.7057C16.8846 21.278 14.5631 22.142 12.1621 22.1387C6.63911 22.1387 2.16211 17.6617 2.16211 12.1387C2.16211 6.61567 6.63911 2.13867 12.1621 2.13867C17.6851 2.13867 22.1621 6.61567 22.1621 12.1387C22.1621 14.2747 21.4921 16.2547 20.3521 17.8787L17.1621 12.1387H20.1621C20.162 10.2949 19.5249 8.50773 18.3588 7.07956C17.1926 5.65139 15.569 4.66986 13.7624 4.30103C11.9559 3.93219 10.0774 4.19869 8.44479 5.05544C6.81213 5.91218 5.52553 7.30658 4.80263 9.00275C4.07973 10.6989 3.96491 12.5927 4.4776 14.3638C4.99029 16.1349 6.099 17.6745 7.61619 18.7222C9.13338 19.7699 10.9659 20.2614 12.8038 20.1136C14.6416 19.9657 16.372 19.1875 17.7021 17.9107L18.6991 19.7057Z" fill="white"/>
</svg>
