<svg width="32" height="33" viewBox="0 0 32 33" fill="none" xmlns="http://www.w3.org/2000/svg">
<g clip-path="url(#clip0)">
<path d="M24.5056 26.6081L27.8663 25.1366C27.8663 25.1366 27.8663 25.1366 27.8663 25.1366C28.3771 24.9127 28.9543 24.9126 29.465 25.1365C29.9857 25.3614 30.3943 25.7945 30.5979 26.3354C30.8065 26.8774 30.7945 27.4831 30.5645 28.016C30.5644 28.0161 30.5644 28.0163 30.5643 28.0165L30.4725 27.9768C30.2603 28.4789 29.8609 28.8715 29.3644 29.0658L24.5056 26.6081ZM24.5056 26.6081C24.5063 26.5953 24.5069 26.5826 24.5074 26.5699L24.5075 26.5699V26.5661C24.5075 25.4326 23.6156 24.5085 22.5091 24.5085H18.3019C17.8924 24.5078 17.4886 24.4096 17.1217 24.2214C15.3473 23.3095 13.3921 22.8333 11.4092 22.8304H11.4091H11.1189C10.7612 22.8304 10.4765 23.1286 10.4765 23.4898C10.4765 23.851 10.7612 24.1491 11.1189 24.1491L11.4089 24.1491C11.409 24.1491 11.409 24.1491 11.409 24.1491C13.1917 24.1514 14.9497 24.5795 16.5453 25.3999L16.5454 25.3999C17.0908 25.6802 17.692 25.8265 18.3017 25.8271H18.3018H22.5088C22.8999 25.8297 23.2203 26.1595 23.2179 26.5705C23.216 26.9124 22.9886 27.2054 22.6718 27.2845C22.6465 27.2871 22.6207 27.2906 22.5971 27.2939C22.5875 27.2952 22.5782 27.2965 22.5695 27.2976C22.5353 27.3021 22.5049 27.3052 22.4755 27.3052H16.0004C15.6428 27.3052 15.358 27.6033 15.358 27.9645C15.358 28.3257 15.6428 28.6238 16.0004 28.6238H22.4755H22.5026H22.5091C22.5226 28.6238 22.5349 28.6219 22.5397 28.6211L22.5406 28.621C22.5423 28.6207 22.5433 28.6205 22.544 28.6205C22.9874 28.6129 23.4252 28.5173 23.8335 28.3392L23.8336 28.3391L28.368 26.3535L28.3683 26.3533C28.5588 26.2691 28.7744 26.2691 28.9649 26.3533L28.9654 26.3536C29.1645 26.4402 29.3218 26.6073 29.3997 26.8174L29.4002 26.8187C29.4834 27.034 29.4787 27.2751 29.387 27.4868L29.3866 27.4879C29.3012 27.6918 29.1399 27.8505 28.9405 27.9291L20.5617 31.2236L20.5615 31.2236C18.6171 31.9915 16.4623 31.9675 14.5344 31.1564C14.5343 31.1563 14.5342 31.1563 14.534 31.1562L10.1341 29.2701V22.9304C10.1341 22.5692 9.84935 22.2711 9.4917 22.2711H5.15257C4.82855 22.2711 4.56436 22.5158 4.51756 22.8304H1.89823C1.54058 22.8304 1.25583 23.1286 1.25583 23.4898C1.25583 23.851 1.54058 24.1491 1.89823 24.1491H4.51018V26.8458C4.51018 27.207 4.79493 27.5052 5.15257 27.5052C5.51022 27.5052 5.79496 27.207 5.79496 26.8458V23.5898H8.84931V30.1019H5.79496V29.0832C5.79496 28.722 5.51022 28.4238 5.15257 28.4238C4.79493 28.4238 4.51018 28.722 4.51018 29.0832V29.5425H1.89823C1.54058 29.5425 1.25583 29.8407 1.25583 30.2019C1.25583 30.5631 1.54058 30.8612 1.89823 30.8612H4.51756C4.56436 31.1758 4.82855 31.4205 5.15257 31.4205H9.4917C9.84935 31.4205 10.1341 31.1224 10.1341 30.7612V30.6997L14.0442 32.374L14.0448 32.3742C16.2766 33.3133 18.7715 33.3416 21.0228 32.4534L29.4008 29.159L24.5056 26.6081Z" fill="#1894FF" stroke="#1894FF" stroke-width="0.2"/>
<path d="M30.1787 4.30299V4.28705L29.7256 18.4297C29.95 18.3553 30.1022 18.1398 30.102 17.8967H30.202V17.8966L30.202 4.47247L30.202 4.47034C30.2008 4.41563 30.1929 4.36135 30.1787 4.3087V4.30866V4.30862V4.30859V4.30855V4.30851V4.30847V4.30843V4.3084V4.30836V4.30832V4.30828V4.30824V4.30821V4.30817V4.30813V4.30809V4.30805V4.30801V4.30798V4.30794V4.3079V4.30786V4.30782V4.30779V4.30775V4.30771V4.30767V4.30763V4.3076V4.30756V4.30752V4.30748V4.30744V4.3074V4.30737V4.30733V4.30729V4.30725V4.30721V4.30718V4.30714V4.3071V4.30706V4.30702V4.30698V4.30695V4.30691V4.30687V4.30683V4.30679V4.30675V4.30672V4.30668V4.30664V4.3066V4.30656V4.30652V4.30649V4.30645V4.30641V4.30637V4.30633V4.30629V4.30626V4.30622V4.30618V4.30614V4.3061V4.30606V4.30602V4.30599V4.30595V4.30591V4.30587V4.30583V4.30579V4.30575V4.30572V4.30568V4.30564V4.3056V4.30556V4.30552V4.30548V4.30545V4.30541V4.30537V4.30533V4.30529V4.30525V4.30521V4.30518V4.30514V4.3051V4.30506V4.30502V4.30498V4.30494V4.3049V4.30487V4.30483V4.30479V4.30475V4.30471V4.30467V4.30463V4.30459V4.30456V4.30452V4.30448V4.30444V4.3044V4.30436V4.30432V4.30428V4.30424V4.3042V4.30417V4.30413V4.30409V4.30405V4.30401V4.30397V4.30393V4.30389V4.30385V4.30381V4.30378V4.30374V4.3037V4.30366V4.30362V4.30358V4.30354V4.3035V4.30346V4.30342V4.30338V4.30335V4.30331V4.30327V4.30323V4.30319V4.30315V4.30311V4.30307V4.30303V4.30299ZM5.05198 17.8967C5.05222 18.1824 5.23216 18.4376 5.5006 18.5248L29.9832 4.1268L30.0625 4.06583C30.0622 4.06553 30.062 4.06523 30.0618 4.06493C30.0515 4.05166 30.041 4.04111 30.0333 4.03352C30.024 4.02443 30.0204 4.02119 30.0157 4.0161L30.0157 4.01609L30.0145 4.01483C29.9774 3.97647 29.936 3.94281 29.891 3.91457L29.891 3.91455L29.8894 3.91357C29.8676 3.90049 29.8452 3.88858 29.822 3.87791C29.8044 3.86776 29.7864 3.85861 29.7681 3.85042L29.7683 3.84991L29.7584 3.84664L17.8258 -0.0687442L17.8257 -0.0687584C17.6986 -0.110414 17.5619 -0.110414 17.4348 -0.0687585L17.4347 -0.0687442L5.50274 3.84644C5.50262 3.84647 5.5025 3.84651 5.50239 3.84655C5.23419 3.93273 5.05357 4.18671 5.05198 4.47192V4.47247L5.05198 17.8967L5.05198 17.8967ZM18.2694 8.86921L21.1431 7.92791V11.5006C21.1431 11.8618 21.4278 12.1599 21.7855 12.1599L21.7861 12.1599C21.8516 12.1595 21.9167 12.149 21.979 12.1288L21.9794 12.1286L23.2448 11.7125C23.5843 11.6012 23.7679 11.2298 23.6617 10.8855C23.5552 10.54 23.1947 10.3446 22.8538 10.4564L22.8537 10.4564L22.4263 10.5968V7.50717L25.0282 6.65325V9.74284L24.4809 9.92219L24.4809 9.9222C24.1414 10.0335 23.9578 10.4049 24.064 10.7492C24.1478 11.021 24.3934 11.2088 24.6745 11.2096L24.6747 11.2096C24.7407 11.2097 24.8063 11.1991 24.8689 11.1783C24.869 11.1782 24.869 11.1782 24.8691 11.1782L25.8631 10.8524C26.1317 10.7653 26.3117 10.51 26.3119 10.2243V10.2242V6.22966L28.9172 5.37567V17.4148L18.2694 20.9088V19.0153C18.2694 18.6541 17.9846 18.356 17.627 18.356C17.2693 18.356 16.9846 18.6541 16.9846 19.0153V20.9088L6.33676 17.4153V4.95379L9.85288 3.80023L19.6748 7.0236L17.627 7.69531L8.60021 4.73431L8.6002 4.73431C8.25926 4.62251 7.89878 4.81792 7.79224 5.16344C7.68607 5.50777 7.8697 5.87913 8.20919 5.99046L16.9846 8.86918V16.778C16.9846 17.1392 17.2693 17.4373 17.627 17.4373C17.9846 17.4373 18.2694 17.1392 18.2694 16.778V8.86921ZM25.6717 5.05577L15.8503 1.83241L17.627 1.24964L27.449 4.47248L25.6717 5.05577ZM21.7855 6.33107L11.9635 3.10822L13.7402 2.52494L23.5622 5.74779L21.7855 6.33107Z" fill="#1894FF" stroke="#1894FF" stroke-width="0.2"/>
<path d="M7.86454 13.8814C7.5069 13.8814 7.22214 14.1796 7.22214 14.5408V16.2188C7.22214 16.58 7.5069 16.8782 7.86454 16.8782C8.22218 16.8782 8.50694 16.58 8.50694 16.2188V14.5408C8.50694 14.1796 8.22218 13.8814 7.86454 13.8814Z" fill="#1894FF" stroke="#1894FF" stroke-width="0.2"/>
<path d="M10.034 14.441C9.67633 14.441 9.39158 14.7392 9.39158 15.1004V16.7784C9.39158 17.1396 9.67633 17.4377 10.034 17.4377C10.3916 17.4377 10.6764 17.1396 10.6764 16.7784V15.1004C10.6764 14.7392 10.3916 14.441 10.034 14.441Z" fill="#1894FF" stroke="#1894FF" stroke-width="0.2"/>
</g>
<defs>
<clipPath id="clip0">
<rect width="32" height="33" fill="white"/>
</clipPath>
</defs>
</svg>
