<svg width="671" height="669" viewBox="0 0 671 669" fill="none" xmlns="http://www.w3.org/2000/svg">
<path d="M660.555 668.894H10C7.34873 668.891 4.80688 667.836 2.93215 665.962C1.05742 664.087 0.0029116 661.545 0 658.894L0 505.272C7.57599 502.808 14.4116 498.48 19.879 492.686C24.884 487.126 27.53 480.686 27.53 474.066C27.53 467.446 24.884 461.006 19.879 455.445C14.4115 449.651 7.57595 445.323 0 442.859L0 10.4658C0.0029116 7.81455 1.05742 5.2727 2.93215 3.39797C4.80688 1.52324 7.34873 0.468732 10 0.46582L660.555 0.46582C663.206 0.468732 665.748 1.52324 667.623 3.39797C669.498 5.2727 670.552 7.81455 670.555 10.4658V442.859C662.979 445.323 656.143 449.651 650.676 455.445C645.671 461.006 643.025 467.445 643.025 474.066C643.025 480.687 645.671 487.126 650.676 492.686C656.144 498.48 662.979 502.807 670.555 505.271V658.894C670.552 661.545 669.498 664.087 667.623 665.962C665.748 667.836 663.206 668.891 660.555 668.894Z" fill="white"/>
</svg>
