<svg width="33" height="23" viewBox="0 0 33 23" fill="none" xmlns="http://www.w3.org/2000/svg">
<path d="M25.0314 14.5801C24.2205 14.5801 23.4278 14.8205 22.7536 15.2711C22.0793 15.7216 21.5538 16.3619 21.2435 17.1111C20.9332 17.8603 20.852 18.6846 21.0102 19.4799C21.1684 20.2753 21.5589 21.0058 22.1323 21.5792C22.7056 22.1526 23.4362 22.5431 24.2315 22.7013C25.0268 22.8595 25.8512 22.7783 26.6004 22.468C27.3496 22.1577 27.9899 21.6322 28.4404 20.9579C28.8909 20.2837 29.1314 19.491 29.1314 18.6801C29.1293 17.5933 28.6966 16.5517 27.9282 15.7833C27.1597 15.0149 26.1181 14.5822 25.0314 14.5801ZM25.0314 20.7351C24.6255 20.7351 24.2288 20.6147 23.8914 20.3893C23.5539 20.1638 23.2909 19.8433 23.1356 19.4684C22.9803 19.0934 22.9396 18.6808 23.0188 18.2827C23.098 17.8847 23.2934 17.5191 23.5804 17.2321C23.8674 16.9451 24.233 16.7497 24.6311 16.6705C25.0291 16.5913 25.4417 16.632 25.8167 16.7873C26.1916 16.9426 26.5121 17.2056 26.7376 17.5431C26.963 17.8805 27.0834 18.2772 27.0834 18.6831C27.0837 19.2277 26.8676 19.75 26.4828 20.1354C26.098 20.5208 25.576 20.7376 25.0314 20.7381V20.7351Z" fill="black"/>
<path d="M11.0119 14.5801C10.201 14.5801 9.40827 14.8205 8.73402 15.2711C8.05978 15.7216 7.53428 16.3619 7.22396 17.1111C6.91364 17.8603 6.83245 18.6846 6.99065 19.4799C7.14885 20.2753 7.53933 21.0058 8.11273 21.5792C8.68612 22.1526 9.41667 22.5431 10.212 22.7013C11.0073 22.8595 11.8317 22.7783 12.5809 22.468C13.33 22.1577 13.9704 21.6322 14.4209 20.9579C14.8714 20.2837 15.1119 19.491 15.1119 18.6801C15.1097 17.5933 14.6771 16.5517 13.9087 15.7833C13.1402 15.0149 12.0986 14.5822 11.0119 14.5801ZM11.0119 20.7351C10.606 20.7351 10.2093 20.6147 9.87183 20.3893C9.53438 20.1638 9.27138 19.8433 9.11607 19.4684C8.96076 19.0934 8.92011 18.6808 8.99929 18.2827C9.07847 17.8847 9.27391 17.5191 9.56088 17.2321C9.84786 16.9451 10.2135 16.7497 10.6115 16.6705C11.0096 16.5913 11.4222 16.632 11.7971 16.7873C12.1721 16.9426 12.4926 17.2056 12.718 17.5431C12.9435 17.8805 13.0639 18.2772 13.0639 18.6831C13.0641 19.2277 12.8481 19.75 12.4633 20.1354C12.0785 20.5208 11.5564 20.7376 11.0119 20.7381V20.7351Z" fill="black"/>
<path d="M27.796 2.83746C27.7105 2.66755 27.5795 2.52472 27.4176 2.42495C27.2557 2.32518 27.0692 2.27239 26.879 2.27246H21.479V4.32446H26.249L29.042 9.88046L30.876 8.95846L27.796 2.83746Z" fill="black"/>
<path d="M21.954 17.6934H14.192V19.7454H21.954V17.6934Z" fill="black"/>
<path d="M7.93632 17.6934H4.37732C4.10521 17.6934 3.84424 17.8015 3.65182 17.9939C3.45941 18.1863 3.35132 18.4472 3.35132 18.7194C3.35132 18.9915 3.45941 19.2524 3.65182 19.4449C3.84424 19.6373 4.10521 19.7454 4.37732 19.7454H7.93632C8.20843 19.7454 8.4694 19.6373 8.66181 19.4449C8.85422 19.2524 8.96232 18.9915 8.96232 18.7194C8.96232 18.4472 8.85422 18.1863 8.66181 17.9939C8.4694 17.8015 8.20843 17.6934 7.93632 17.6934Z" fill="black"/>
<path d="M32.7841 11.4227L30.7661 8.8227C30.6707 8.69853 30.548 8.59789 30.4076 8.52855C30.2672 8.4592 30.1127 8.42299 29.9561 8.4227H22.5021V1.2467C22.5021 0.974584 22.394 0.713622 22.2016 0.52121C22.0092 0.328797 21.7482 0.220703 21.4761 0.220703H4.37609C4.10398 0.220703 3.84302 0.328797 3.6506 0.52121C3.45819 0.713622 3.3501 0.974584 3.3501 1.2467C3.3501 1.51881 3.45819 1.77978 3.6506 1.97219C3.84302 2.1646 4.10398 2.2727 4.37609 2.2727H20.4501V9.4537C20.4501 9.58843 20.4766 9.72186 20.5282 9.84634C20.5798 9.97082 20.6553 10.0839 20.7506 10.1792C20.8459 10.2745 20.959 10.35 21.0835 10.4016C21.2079 10.4532 21.3414 10.4797 21.4761 10.4797H29.4541L30.9481 12.3997V17.6907H28.1101C27.838 17.6907 27.577 17.7988 27.3846 17.9912C27.1922 18.1836 27.0841 18.4446 27.0841 18.7167C27.0841 18.9888 27.1922 19.2498 27.3846 19.4422C27.577 19.6346 27.838 19.7427 28.1101 19.7427H31.9741C32.2462 19.7427 32.5072 19.6346 32.6996 19.4422C32.892 19.2498 33.0001 18.9888 33.0001 18.7167V12.0517C32.9999 11.8239 32.9239 11.6026 32.7841 11.4227Z" fill="black"/>
<path d="M7.86785 12.5H3.14685C2.87474 12.5 2.61377 12.6081 2.42136 12.8005C2.22895 12.9929 2.12085 13.2539 2.12085 13.526C2.12085 13.7981 2.22895 14.0591 2.42136 14.2515C2.61377 14.4439 2.87474 14.552 3.14685 14.552H7.86785C8.13996 14.552 8.40093 14.4439 8.59334 14.2515C8.78575 14.0591 8.89385 13.7981 8.89385 13.526C8.89385 13.2539 8.78575 12.9929 8.59334 12.8005C8.40093 12.6081 8.13996 12.5 7.86785 12.5Z" fill="black"/>
<path d="M10.226 8.46191H1.47204C1.19993 8.46191 0.938966 8.57001 0.746553 8.76242C0.554141 8.95483 0.446045 9.2158 0.446045 9.48792C0.446045 9.76003 0.554141 10.021 0.746553 10.2134C0.938966 10.4058 1.19993 10.5139 1.47204 10.5139H10.226C10.4982 10.5139 10.7591 10.4058 10.9515 10.2134C11.1439 10.021 11.252 9.76003 11.252 9.48792C11.252 9.2158 11.1439 8.95483 10.9515 8.76242C10.7591 8.57001 10.4982 8.46191 10.226 8.46191Z" fill="black"/>
<path d="M11.9008 4.42676H3.14685C2.87474 4.42676 2.61377 4.53485 2.42136 4.72726C2.22895 4.91968 2.12085 5.18065 2.12085 5.45276C2.12085 5.72487 2.22895 5.98584 2.42136 6.17825C2.61377 6.37067 2.87474 6.47876 3.14685 6.47876H11.9008C12.173 6.47876 12.4339 6.37067 12.6263 6.17825C12.8188 5.98584 12.9268 5.72487 12.9268 5.45276C12.9268 5.18065 12.8188 4.91968 12.6263 4.72726C12.4339 4.53485 12.173 4.42676 11.9008 4.42676Z" fill="black"/>
</svg>
