<svg width="14" height="21" viewBox="0 0 14 21" fill="none" xmlns="http://www.w3.org/2000/svg">
<path d="M4.64435 20.6387C4.37595 20.6372 4.1114 20.5747 3.87071 20.4559C3.63001 20.3372 3.41948 20.1652 3.25502 19.9531C3.0978 19.7489 2.99054 19.5108 2.94183 19.2578C2.89311 19.0047 2.9043 18.7438 2.97448 18.4959L4.44504 12.8557L2.00783 11.8805C1.75386 11.7788 1.52809 11.6175 1.34958 11.4102C1.17107 11.2029 1.04506 10.9557 0.982177 10.6895C0.919298 10.4233 0.9214 10.1458 0.988307 9.88053C1.05521 9.61528 1.18496 9.37001 1.36659 9.16544L8.43082 1.21845C8.5858 1.0379 8.77772 0.892718 8.99362 0.792697C9.20951 0.692677 9.44436 0.640153 9.68229 0.638672C9.95069 0.640151 10.2152 0.70264 10.4559 0.821414C10.6966 0.940187 10.9072 1.11214 11.0716 1.32425C11.2294 1.52816 11.3372 1.76614 11.3864 2.01918C11.4357 2.27221 11.4251 2.53327 11.3554 2.78145L9.88161 8.42161L12.3172 9.39682C12.5712 9.49851 12.797 9.65981 12.9755 9.86711C13.154 10.0744 13.28 10.3216 13.3429 10.5878C13.4057 10.8541 13.4036 11.1316 13.3367 11.3968C13.2698 11.6621 13.1401 11.9073 12.9585 12.1119L5.89582 20.0584C5.74087 20.239 5.54897 20.3842 5.33308 20.4844C5.11719 20.5845 4.88232 20.6371 4.64435 20.6387ZM9.70367 2.35183L2.64104 10.2978L6.47293 11.8308L4.62245 18.9255L11.6856 10.9796L7.85372 9.44652L9.70367 2.35183Z" fill="black"/>
</svg>
