<svg width="150" height="134" viewBox="0 0 150 134" fill="none" xmlns="http://www.w3.org/2000/svg">
<path d="M148.568 117.484L84.1453 5.9007C83.2185 4.29548 81.8854 2.96251 80.2802 2.03575C78.6749 1.10899 76.8539 0.621094 75.0004 0.621094C73.1468 0.621094 71.3258 1.10899 69.7206 2.03575C68.1153 2.96251 66.7822 4.29548 65.8554 5.9007L1.43235 117.484C0.505526 119.089 0.0175881 120.91 0.0175781 122.764C0.0175681 124.617 0.505486 126.438 1.43229 128.044C2.3591 129.649 3.69214 130.982 5.29743 131.909C6.90272 132.836 8.7237 133.324 10.5773 133.324H139.423C141.277 133.324 143.098 132.836 144.703 131.909C146.309 130.982 147.642 129.649 148.568 128.044C149.495 126.438 149.983 124.617 149.983 122.764C149.983 120.91 149.495 119.089 148.568 117.484ZM140.947 123.644C140.798 123.915 140.577 124.141 140.308 124.296C140.039 124.451 139.733 124.53 139.423 124.524H10.5773C10.2684 124.524 9.96495 124.442 9.69742 124.288C9.4299 124.133 9.20775 123.911 9.0533 123.644C8.89885 123.376 8.81755 123.073 8.81755 122.764C8.81756 122.455 8.89889 122.151 9.05335 121.884L73.4763 10.3007C73.6309 10.0332 73.853 9.81115 74.1205 9.65674C74.388 9.50234 74.6915 9.42105 75.0004 9.42105C75.3092 9.42105 75.6127 9.50234 75.8802 9.65674C76.1477 9.81115 76.3699 10.0332 76.5244 10.3007L140.948 121.885C141.109 122.15 141.194 122.454 141.194 122.764C141.194 123.074 141.109 123.378 140.948 123.644H140.947Z" fill="#343639" fill-opacity="0.24"/>
<path d="M79.4016 40.6318H70.6016V87.5648H79.4016V40.6318Z" fill="#343639" fill-opacity="0.24"/>
<path d="M75.0018 108.098C78.242 108.098 80.8688 105.472 80.8688 102.231C80.8688 98.991 78.242 96.3643 75.0018 96.3643C71.7615 96.3643 69.1348 98.991 69.1348 102.231C69.1348 105.472 71.7615 108.098 75.0018 108.098Z" fill="#343639" fill-opacity="0.24"/>
</svg>
